<svg width="1038" height="422" viewBox="0 0 1038 422" fill="none" xmlns="http://www.w3.org/2000/svg">
<path d="M65.6902 62.1905L223 0.53703L380.31 62.1905L445.454 211L380.31 359.81L223 421.463L65.6902 359.81L0.545813 211L65.6902 62.1905Z" fill="black" stroke="white"/>
<path d="M167.616 360.773C177.427 374.074 187.856 378.326 210.929 383L216.628 344.246L184.143 308.912L220.618 318.6V301.503L184.143 285.545L178.444 259.899L203.52 267.878L220.618 259.899V241.092L210.929 250.211L203.52 244.512L167.616 232.543L148.809 187.52L139.12 151.616L148.809 139.078H124.873L88.9681 102.604L100.366 91.7752H88.9681V84.9363L100.366 61L88.9681 68.9788L77 95.7646L81.5593 112.862L114.044 151.616L130.002 194.359L148.809 237.673L167.616 255.91H159.637V267.878L167.616 278.136L159.637 285.545L167.616 296.943V323.729L159.637 332.848L167.616 360.773Z" fill="white" stroke="white" stroke-width="5"/>
<path d="M278.179 360.773C268.367 374.074 257.939 378.326 234.865 383L229.166 344.246L261.651 308.912L225.177 318.6V301.503L261.651 285.545L267.35 259.899L242.274 267.878L225.177 259.899V241.092L234.865 250.211L242.274 244.512L278.179 232.543L296.986 187.52L306.674 151.616L296.986 139.078H320.922L356.827 102.604L345.428 91.7752H356.827V84.9363L345.428 61L356.827 68.9788L368.795 95.7646L364.235 112.862L331.75 151.616L315.793 194.359L296.986 237.673L278.179 255.91H286.158V267.878L278.179 278.136L286.158 285.545L278.179 296.943V323.729L286.158 332.848L278.179 360.773Z" fill="white" stroke="white" stroke-width="5"/>
<mask id="path-4-outside-1_71_198" maskUnits="userSpaceOnUse" x="462" y="279" width="574" height="42" fill="black">
<rect fill="white" x="462" y="279" width="574" height="42"/>
<path d="M463.992 319V280.728H476.524C484.428 280.728 490.356 283.536 490.356 291.856C490.356 299.864 484.428 303.556 476.524 303.556H470.076V319H463.992ZM470.076 298.72H475.848C481.36 298.72 484.376 296.432 484.376 291.856C484.376 287.228 481.36 285.616 475.848 285.616H470.076V298.72ZM484.948 319L475.38 301.996L479.852 298.46L491.708 319H484.948ZM498.117 319V280.728H520.789V285.824H504.201V296.432H518.189V301.58H504.201V313.904H521.361V319H498.117ZM544.221 319.728C534.653 319.728 527.217 312.552 527.217 299.968C527.217 287.488 534.861 280.052 544.533 280.052C549.317 280.052 553.009 282.34 555.349 284.836L552.125 288.736C550.149 286.708 547.757 285.304 544.637 285.304C538.033 285.304 533.457 290.816 533.457 299.76C533.457 308.86 537.721 314.424 544.481 314.424C547.965 314.424 550.669 312.864 552.905 310.368L556.181 314.164C553.113 317.752 549.213 319.728 544.221 319.728ZM575.495 319.728C565.615 319.728 558.803 312.084 558.803 299.708C558.803 287.384 565.615 280.052 575.495 280.052C585.323 280.052 592.135 287.384 592.135 299.708C592.135 312.084 585.323 319.728 575.495 319.728ZM575.495 314.424C581.839 314.424 585.947 308.652 585.947 299.708C585.947 290.764 581.839 285.304 575.495 285.304C569.099 285.304 565.043 290.764 565.043 299.708C565.043 308.652 569.099 314.424 575.495 314.424ZM600.086 319V280.728H612.618C620.522 280.728 626.45 283.536 626.45 291.856C626.45 299.864 620.522 303.556 612.618 303.556H606.17V319H600.086ZM606.17 298.72H611.942C617.454 298.72 620.47 296.432 620.47 291.856C620.47 287.228 617.454 285.616 611.942 285.616H606.17V298.72ZM621.042 319L611.474 301.996L615.946 298.46L627.802 319H621.042ZM634.211 319V280.728H644.195C655.947 280.728 662.603 287.228 662.603 299.708C662.603 312.188 655.947 319 644.507 319H634.211ZM640.295 314.06H643.727C651.943 314.06 656.415 309.224 656.415 299.708C656.415 290.192 651.943 285.616 643.727 285.616H640.295V314.06ZM670.57 319V280.728H676.654V319H670.57ZM686.617 319V280.728H692.805L705.545 303.244L709.549 311.304H709.809C709.445 307.404 708.977 302.724 708.977 298.616V280.728H714.749V319H708.509L695.873 296.484L691.869 288.424H691.609C691.869 292.428 692.389 296.796 692.389 301.008V319H686.617ZM740.457 319.728C730.265 319.728 722.725 312.552 722.725 299.968C722.725 287.488 730.473 280.052 740.613 280.052C746.021 280.052 749.661 282.444 752.001 284.836L748.725 288.736C746.801 286.812 744.461 285.304 740.821 285.304C733.645 285.304 728.965 290.816 728.965 299.76C728.965 308.86 733.176 314.424 741.081 314.424C743.421 314.424 745.761 313.748 747.061 312.552V303.608H739.521V298.616H752.573V315.204C750.025 317.804 745.657 319.728 740.457 319.728ZM787.557 319.728C777.677 319.728 770.865 312.084 770.865 299.708C770.865 287.384 777.677 280.052 787.557 280.052C797.385 280.052 804.197 287.384 804.197 299.708C804.197 312.084 797.385 319.728 787.557 319.728ZM787.557 314.424C793.901 314.424 798.009 308.652 798.009 299.708C798.009 290.764 793.901 285.304 787.557 285.304C781.161 285.304 777.105 290.764 777.105 299.708C777.105 308.652 781.161 314.424 787.557 314.424ZM812.148 319V280.728H834.872V285.824H818.232V297.472H832.376V302.568H818.232V319H812.148ZM853.281 319V280.728H865.189C872.989 280.728 878.657 283.224 878.657 290.14C878.657 293.832 876.681 297.264 873.249 298.46V298.668C877.617 299.604 880.737 302.62 880.737 307.768C880.737 315.36 874.601 319 866.125 319H853.281ZM859.365 296.692H864.513C870.337 296.692 872.729 294.508 872.729 290.972C872.729 286.968 870.025 285.46 864.669 285.46H859.365V296.692ZM859.365 314.268H865.449C871.377 314.268 874.809 312.136 874.809 307.508C874.809 303.192 871.533 301.268 865.449 301.268H859.365V314.268ZM887.965 319V280.728H910.637V285.824H894.049V296.432H908.037V301.58H894.049V313.904H911.209V319H887.965ZM919.144 319V280.728H941.816V285.824H925.228V296.432H939.216V301.58H925.228V313.904H942.388V319H919.144ZM958.124 319V285.824H946.892V280.728H975.44V285.824H964.208V319H958.124ZM982.113 319V280.728H988.197V313.904H1004.42V319H982.113ZM1011.11 319V280.728H1033.78V285.824H1017.19V296.432H1031.18V301.58H1017.19V313.904H1034.35V319H1011.11Z"/>
</mask>
<path d="M463.992 319V280.728H476.524C484.428 280.728 490.356 283.536 490.356 291.856C490.356 299.864 484.428 303.556 476.524 303.556H470.076V319H463.992ZM470.076 298.72H475.848C481.36 298.72 484.376 296.432 484.376 291.856C484.376 287.228 481.36 285.616 475.848 285.616H470.076V298.72ZM484.948 319L475.38 301.996L479.852 298.46L491.708 319H484.948ZM498.117 319V280.728H520.789V285.824H504.201V296.432H518.189V301.58H504.201V313.904H521.361V319H498.117ZM544.221 319.728C534.653 319.728 527.217 312.552 527.217 299.968C527.217 287.488 534.861 280.052 544.533 280.052C549.317 280.052 553.009 282.34 555.349 284.836L552.125 288.736C550.149 286.708 547.757 285.304 544.637 285.304C538.033 285.304 533.457 290.816 533.457 299.76C533.457 308.86 537.721 314.424 544.481 314.424C547.965 314.424 550.669 312.864 552.905 310.368L556.181 314.164C553.113 317.752 549.213 319.728 544.221 319.728ZM575.495 319.728C565.615 319.728 558.803 312.084 558.803 299.708C558.803 287.384 565.615 280.052 575.495 280.052C585.323 280.052 592.135 287.384 592.135 299.708C592.135 312.084 585.323 319.728 575.495 319.728ZM575.495 314.424C581.839 314.424 585.947 308.652 585.947 299.708C585.947 290.764 581.839 285.304 575.495 285.304C569.099 285.304 565.043 290.764 565.043 299.708C565.043 308.652 569.099 314.424 575.495 314.424ZM600.086 319V280.728H612.618C620.522 280.728 626.45 283.536 626.45 291.856C626.45 299.864 620.522 303.556 612.618 303.556H606.17V319H600.086ZM606.17 298.72H611.942C617.454 298.72 620.47 296.432 620.47 291.856C620.47 287.228 617.454 285.616 611.942 285.616H606.17V298.72ZM621.042 319L611.474 301.996L615.946 298.46L627.802 319H621.042ZM634.211 319V280.728H644.195C655.947 280.728 662.603 287.228 662.603 299.708C662.603 312.188 655.947 319 644.507 319H634.211ZM640.295 314.06H643.727C651.943 314.06 656.415 309.224 656.415 299.708C656.415 290.192 651.943 285.616 643.727 285.616H640.295V314.06ZM670.57 319V280.728H676.654V319H670.57ZM686.617 319V280.728H692.805L705.545 303.244L709.549 311.304H709.809C709.445 307.404 708.977 302.724 708.977 298.616V280.728H714.749V319H708.509L695.873 296.484L691.869 288.424H691.609C691.869 292.428 692.389 296.796 692.389 301.008V319H686.617ZM740.457 319.728C730.265 319.728 722.725 312.552 722.725 299.968C722.725 287.488 730.473 280.052 740.613 280.052C746.021 280.052 749.661 282.444 752.001 284.836L748.725 288.736C746.801 286.812 744.461 285.304 740.821 285.304C733.645 285.304 728.965 290.816 728.965 299.76C728.965 308.86 733.176 314.424 741.081 314.424C743.421 314.424 745.761 313.748 747.061 312.552V303.608H739.521V298.616H752.573V315.204C750.025 317.804 745.657 319.728 740.457 319.728ZM787.557 319.728C777.677 319.728 770.865 312.084 770.865 299.708C770.865 287.384 777.677 280.052 787.557 280.052C797.385 280.052 804.197 287.384 804.197 299.708C804.197 312.084 797.385 319.728 787.557 319.728ZM787.557 314.424C793.901 314.424 798.009 308.652 798.009 299.708C798.009 290.764 793.901 285.304 787.557 285.304C781.161 285.304 777.105 290.764 777.105 299.708C777.105 308.652 781.161 314.424 787.557 314.424ZM812.148 319V280.728H834.872V285.824H818.232V297.472H832.376V302.568H818.232V319H812.148ZM853.281 319V280.728H865.189C872.989 280.728 878.657 283.224 878.657 290.14C878.657 293.832 876.681 297.264 873.249 298.46V298.668C877.617 299.604 880.737 302.62 880.737 307.768C880.737 315.36 874.601 319 866.125 319H853.281ZM859.365 296.692H864.513C870.337 296.692 872.729 294.508 872.729 290.972C872.729 286.968 870.025 285.46 864.669 285.46H859.365V296.692ZM859.365 314.268H865.449C871.377 314.268 874.809 312.136 874.809 307.508C874.809 303.192 871.533 301.268 865.449 301.268H859.365V314.268ZM887.965 319V280.728H910.637V285.824H894.049V296.432H908.037V301.58H894.049V313.904H911.209V319H887.965ZM919.144 319V280.728H941.816V285.824H925.228V296.432H939.216V301.58H925.228V313.904H942.388V319H919.144ZM958.124 319V285.824H946.892V280.728H975.44V285.824H964.208V319H958.124ZM982.113 319V280.728H988.197V313.904H1004.42V319H982.113ZM1011.11 319V280.728H1033.78V285.824H1017.19V296.432H1031.18V301.58H1017.19V313.904H1034.35V319H1011.11Z" fill="white"/>
<path d="M463.992 319H462.992V320H463.992V319ZM463.992 280.728V279.728H462.992V280.728H463.992ZM470.076 303.556V302.556H469.076V303.556H470.076ZM470.076 319V320H471.076V319H470.076ZM470.076 298.72H469.076V299.72H470.076V298.72ZM470.076 285.616V284.616H469.076V285.616H470.076ZM484.948 319L484.076 319.49L484.363 320H484.948V319ZM475.38 301.996L474.76 301.212L474.089 301.742L474.508 302.486L475.38 301.996ZM479.852 298.46L480.718 297.96L480.14 296.958L479.232 297.676L479.852 298.46ZM491.708 319V320H493.44L492.574 318.5L491.708 319ZM464.992 319V280.728H462.992V319H464.992ZM463.992 281.728H476.524V279.728H463.992V281.728ZM476.524 281.728C480.388 281.728 483.602 282.42 485.828 283.989C487.99 285.514 489.356 287.966 489.356 291.856H491.356C491.356 287.426 489.758 284.314 486.98 282.355C484.266 280.44 480.564 279.728 476.524 279.728V281.728ZM489.356 291.856C489.356 295.585 487.991 298.205 485.789 299.92C483.552 301.663 480.338 302.556 476.524 302.556V304.556C480.614 304.556 484.316 303.603 487.019 301.498C489.757 299.365 491.356 296.135 491.356 291.856H489.356ZM476.524 302.556H470.076V304.556H476.524V302.556ZM469.076 303.556V319H471.076V303.556H469.076ZM470.076 318H463.992V320H470.076V318ZM470.076 299.72H475.848V297.72H470.076V299.72ZM475.848 299.72C478.719 299.72 481.11 299.128 482.8 297.788C484.531 296.415 485.376 294.381 485.376 291.856H483.376C483.376 293.907 482.713 295.305 481.558 296.22C480.362 297.168 478.489 297.72 475.848 297.72V299.72ZM485.376 291.856C485.376 289.299 484.524 287.386 482.741 286.174C481.044 285.019 478.66 284.616 475.848 284.616V286.616C478.548 286.616 480.428 287.019 481.617 287.827C482.72 288.578 483.376 289.785 483.376 291.856H485.376ZM475.848 284.616H470.076V286.616H475.848V284.616ZM469.076 285.616V298.72H471.076V285.616H469.076ZM485.82 318.51L476.252 301.506L474.508 302.486L484.076 319.49L485.82 318.51ZM476 302.78L480.472 299.244L479.232 297.676L474.76 301.212L476 302.78ZM478.986 298.96L490.842 319.5L492.574 318.5L480.718 297.96L478.986 298.96ZM491.708 318H484.948V320H491.708V318ZM498.117 319H497.117V320H498.117V319ZM498.117 280.728V279.728H497.117V280.728H498.117ZM520.789 280.728H521.789V279.728H520.789V280.728ZM520.789 285.824V286.824H521.789V285.824H520.789ZM504.201 285.824V284.824H503.201V285.824H504.201ZM504.201 296.432H503.201V297.432H504.201V296.432ZM518.189 296.432H519.189V295.432H518.189V296.432ZM518.189 301.58V302.58H519.189V301.58H518.189ZM504.201 301.58V300.58H503.201V301.58H504.201ZM504.201 313.904H503.201V314.904H504.201V313.904ZM521.361 313.904H522.361V312.904H521.361V313.904ZM521.361 319V320H522.361V319H521.361ZM499.117 319V280.728H497.117V319H499.117ZM498.117 281.728H520.789V279.728H498.117V281.728ZM519.789 280.728V285.824H521.789V280.728H519.789ZM520.789 284.824H504.201V286.824H520.789V284.824ZM503.201 285.824V296.432H505.201V285.824H503.201ZM504.201 297.432H518.189V295.432H504.201V297.432ZM517.189 296.432V301.58H519.189V296.432H517.189ZM518.189 300.58H504.201V302.58H518.189V300.58ZM503.201 301.58V313.904H505.201V301.58H503.201ZM504.201 314.904H521.361V312.904H504.201V314.904ZM520.361 313.904V319H522.361V313.904H520.361ZM521.361 318H498.117V320H521.361V318ZM555.349 284.836L556.119 285.473L556.68 284.794L556.078 284.152L555.349 284.836ZM552.125 288.736L551.408 289.434L552.186 290.232L552.895 289.373L552.125 288.736ZM552.905 310.368L553.662 309.715L552.919 308.854L552.16 309.701L552.905 310.368ZM556.181 314.164L556.941 314.814L557.499 314.161L556.938 313.511L556.181 314.164ZM544.221 318.728C539.697 318.728 535.723 317.038 532.871 313.895C530.015 310.747 528.217 306.063 528.217 299.968H526.217C526.217 306.457 528.136 311.653 531.39 315.239C534.649 318.83 539.176 320.728 544.221 320.728V318.728ZM528.217 299.968C528.217 293.933 530.062 289.209 532.986 286.004C535.907 282.803 539.963 281.052 544.533 281.052V279.052C539.43 279.052 534.828 281.019 531.509 284.656C528.193 288.289 526.217 293.523 526.217 299.968H528.217ZM544.533 281.052C548.979 281.052 552.421 283.176 554.619 285.52L556.078 284.152C553.596 281.504 549.655 279.052 544.533 279.052V281.052ZM554.578 284.199L551.354 288.099L552.895 289.373L556.119 285.473L554.578 284.199ZM552.841 288.038C550.737 285.879 548.102 284.304 544.637 284.304V286.304C547.411 286.304 549.56 287.537 551.408 289.434L552.841 288.038ZM544.637 284.304C541.03 284.304 537.945 285.821 535.785 288.559C533.641 291.275 532.457 295.127 532.457 299.76H534.457C534.457 295.449 535.56 292.073 537.355 289.797C539.134 287.543 541.639 286.304 544.637 286.304V284.304ZM532.457 299.76C532.457 304.452 533.554 308.353 535.636 311.107C537.74 313.892 540.795 315.424 544.481 315.424V313.424C541.407 313.424 538.949 312.174 537.231 309.902C535.491 307.599 534.457 304.168 534.457 299.76H532.457ZM544.481 315.424C548.314 315.424 551.272 313.689 553.65 311.035L552.16 309.701C550.065 312.039 547.615 313.424 544.481 313.424V315.424ZM552.148 311.021L555.424 314.817L556.938 313.511L553.662 309.715L552.148 311.021ZM555.421 313.514C552.531 316.894 548.903 318.728 544.221 318.728V320.728C549.523 320.728 553.694 318.61 556.941 314.814L555.421 313.514ZM575.495 318.728C570.831 318.728 566.943 316.933 564.206 313.712C561.456 310.475 559.803 305.719 559.803 299.708H557.803C557.803 306.073 559.555 311.327 562.682 315.006C565.82 318.701 570.278 320.728 575.495 320.728V318.728ZM559.803 299.708C559.803 293.725 561.455 289.064 564.198 285.915C566.929 282.779 570.817 281.052 575.495 281.052V279.052C570.292 279.052 565.834 280.991 562.69 284.602C559.556 288.2 557.803 293.367 557.803 299.708H559.803ZM575.495 281.052C580.144 281.052 584.02 282.778 586.745 285.914C589.482 289.064 591.135 293.725 591.135 299.708H593.135C593.135 293.367 591.381 288.2 588.255 284.603C585.117 280.992 580.673 279.052 575.495 279.052V281.052ZM591.135 299.708C591.135 305.719 589.481 310.476 586.737 313.712C584.006 316.934 580.131 318.728 575.495 318.728V320.728C580.687 320.728 585.131 318.7 588.263 315.006C591.382 311.326 593.135 306.073 593.135 299.708H591.135ZM575.495 315.424C579.01 315.424 581.919 313.808 583.915 310.999C585.89 308.22 586.947 304.319 586.947 299.708H584.947C584.947 304.041 583.95 307.498 582.285 309.841C580.64 312.154 578.323 313.424 575.495 313.424V315.424ZM586.947 299.708C586.947 295.097 585.89 291.267 583.906 288.561C581.9 285.824 578.989 284.304 575.495 284.304V286.304C578.344 286.304 580.659 287.514 582.293 289.743C583.95 292.003 584.947 295.375 584.947 299.708H586.947ZM575.495 284.304C571.976 284.304 569.063 285.823 567.063 288.562C565.086 291.269 564.043 295.1 564.043 299.708H566.043C566.043 295.372 567.028 292.001 568.678 289.742C570.304 287.515 572.617 286.304 575.495 286.304V284.304ZM564.043 299.708C564.043 304.316 565.086 308.218 567.054 310.998C569.045 313.809 571.955 315.424 575.495 315.424V313.424C572.638 313.424 570.322 312.153 568.686 309.842C567.028 307.5 566.043 304.044 566.043 299.708H564.043ZM600.086 319H599.086V320H600.086V319ZM600.086 280.728V279.728H599.086V280.728H600.086ZM606.17 303.556V302.556H605.17V303.556H606.17ZM606.17 319V320H607.17V319H606.17ZM606.17 298.72H605.17V299.72H606.17V298.72ZM606.17 285.616V284.616H605.17V285.616H606.17ZM621.042 319L620.17 319.49L620.457 320H621.042V319ZM611.474 301.996L610.854 301.212L610.183 301.742L610.602 302.486L611.474 301.996ZM615.946 298.46L616.812 297.96L616.233 296.958L615.326 297.676L615.946 298.46ZM627.802 319V320H629.534L628.668 318.5L627.802 319ZM601.086 319V280.728H599.086V319H601.086ZM600.086 281.728H612.618V279.728H600.086V281.728ZM612.618 281.728C616.481 281.728 619.696 282.42 621.921 283.989C624.083 285.514 625.45 287.966 625.45 291.856H627.45C627.45 287.426 625.852 284.314 623.074 282.355C620.359 280.44 616.658 279.728 612.618 279.728V281.728ZM625.45 291.856C625.45 295.585 624.085 298.205 621.883 299.92C619.646 301.663 616.432 302.556 612.618 302.556V304.556C616.708 304.556 620.41 303.603 623.112 301.498C625.851 299.365 627.45 296.135 627.45 291.856H625.45ZM612.618 302.556H606.17V304.556H612.618V302.556ZM605.17 303.556V319H607.17V303.556H605.17ZM606.17 318H600.086V320H606.17V318ZM606.17 299.72H611.942V297.72H606.17V299.72ZM611.942 299.72C614.813 299.72 617.204 299.128 618.894 297.788C620.625 296.415 621.47 294.381 621.47 291.856H619.47C619.47 293.907 618.806 295.305 617.652 296.22C616.456 297.168 614.583 297.72 611.942 297.72V299.72ZM621.47 291.856C621.47 289.299 620.618 287.386 618.835 286.174C617.137 285.019 614.754 284.616 611.942 284.616V286.616C614.642 286.616 616.522 287.019 617.71 287.827C618.814 288.578 619.47 289.785 619.47 291.856H621.47ZM611.942 284.616H606.17V286.616H611.942V284.616ZM605.17 285.616V298.72H607.17V285.616H605.17ZM621.913 318.51L612.345 301.506L610.602 302.486L620.17 319.49L621.913 318.51ZM612.094 302.78L616.566 299.244L615.326 297.676L610.854 301.212L612.094 302.78ZM615.08 298.96L626.936 319.5L628.668 318.5L616.812 297.96L615.08 298.96ZM627.802 318H621.042V320H627.802V318ZM634.211 319H633.211V320H634.211V319ZM634.211 280.728V279.728H633.211V280.728H634.211ZM640.295 314.06H639.295V315.06H640.295V314.06ZM640.295 285.616V284.616H639.295V285.616H640.295ZM635.211 319V280.728H633.211V319H635.211ZM634.211 281.728H644.195V279.728H634.211V281.728ZM644.195 281.728C649.891 281.728 654.202 283.3 657.093 286.239C659.986 289.181 661.603 293.639 661.603 299.708H663.603C663.603 293.297 661.891 288.265 658.519 284.837C655.144 281.406 650.251 279.728 644.195 279.728V281.728ZM661.603 299.708C661.603 305.778 659.986 310.323 657.119 313.346C654.26 316.361 650.027 318 644.507 318V320C650.427 320 655.242 318.233 658.57 314.722C661.892 311.219 663.603 306.118 663.603 299.708H661.603ZM644.507 318H634.211V320H644.507V318ZM640.295 315.06H643.727V313.06H640.295V315.06ZM643.727 315.06C648.034 315.06 651.512 313.786 653.897 311.119C656.265 308.471 657.415 304.606 657.415 299.708H655.415C655.415 304.326 654.328 307.637 652.406 309.786C650.502 311.916 647.636 313.06 643.727 313.06V315.06ZM657.415 299.708C657.415 294.81 656.265 291.003 653.888 288.417C651.497 285.815 648.018 284.616 643.727 284.616V286.616C647.652 286.616 650.517 287.705 652.416 289.77C654.328 291.851 655.415 295.09 655.415 299.708H657.415ZM643.727 284.616H640.295V286.616H643.727V284.616ZM639.295 285.616V314.06H641.295V285.616H639.295ZM670.57 319H669.57V320H670.57V319ZM670.57 280.728V279.728H669.57V280.728H670.57ZM676.654 280.728H677.654V279.728H676.654V280.728ZM676.654 319V320H677.654V319H676.654ZM671.57 319V280.728H669.57V319H671.57ZM670.57 281.728H676.654V279.728H670.57V281.728ZM675.654 280.728V319H677.654V280.728H675.654ZM676.654 318H670.57V320H676.654V318ZM686.617 319H685.617V320H686.617V319ZM686.617 280.728V279.728H685.617V280.728H686.617ZM692.805 280.728L693.675 280.236L693.388 279.728H692.805V280.728ZM705.545 303.244L706.441 302.799L706.429 302.775L706.415 302.752L705.545 303.244ZM709.549 311.304L708.653 311.749L708.929 312.304H709.549V311.304ZM709.809 311.304V312.304H710.907L710.805 311.211L709.809 311.304ZM708.977 280.728V279.728H707.977V280.728H708.977ZM714.749 280.728H715.749V279.728H714.749V280.728ZM714.749 319V320H715.749V319H714.749ZM708.509 319L707.637 319.489L707.923 320H708.509V319ZM695.873 296.484L694.977 296.929L694.989 296.951L695.001 296.973L695.873 296.484ZM691.869 288.424L692.765 287.979L692.489 287.424H691.869V288.424ZM691.609 288.424V287.424H690.542L690.611 288.489L691.609 288.424ZM692.389 319V320H693.389V319H692.389ZM687.617 319V280.728H685.617V319H687.617ZM686.617 281.728H692.805V279.728H686.617V281.728ZM691.935 281.22L704.675 303.736L706.415 302.752L693.675 280.236L691.935 281.22ZM704.649 303.689L708.653 311.749L710.445 310.859L706.441 302.799L704.649 303.689ZM709.549 312.304H709.809V310.304H709.549V312.304ZM710.805 311.211C710.439 307.293 709.977 302.667 709.977 298.616H707.977C707.977 302.781 708.451 307.515 708.813 311.397L710.805 311.211ZM709.977 298.616V280.728H707.977V298.616H709.977ZM708.977 281.728H714.749V279.728H708.977V281.728ZM713.749 280.728V319H715.749V280.728H713.749ZM714.749 318H708.509V320H714.749V318ZM709.381 318.511L696.745 295.995L695.001 296.973L707.637 319.489L709.381 318.511ZM696.769 296.039L692.765 287.979L690.973 288.869L694.977 296.929L696.769 296.039ZM691.869 287.424H691.609V289.424H691.869V287.424ZM690.611 288.489C690.876 292.57 691.389 296.836 691.389 301.008H693.389C693.389 296.756 692.862 292.286 692.607 288.359L690.611 288.489ZM691.389 301.008V319H693.389V301.008H691.389ZM692.389 318H686.617V320H692.389V318ZM752 284.836L752.766 285.479L753.349 284.785L752.715 284.137L752 284.836ZM748.725 288.736L748.017 289.443L748.789 290.214L749.49 289.379L748.725 288.736ZM747.061 312.552L747.738 313.288L748.061 312.991V312.552H747.061ZM747.061 303.608H748.061V302.608H747.061V303.608ZM739.521 303.608H738.521V304.608H739.521V303.608ZM739.521 298.616V297.616H738.521V298.616H739.521ZM752.573 298.616H753.573V297.616H752.573V298.616ZM752.573 315.204L753.287 315.904L753.573 315.612V315.204H752.573ZM740.457 318.728C735.603 318.728 731.446 317.025 728.498 313.883C725.546 310.737 723.724 306.06 723.724 299.968H721.724C721.724 306.46 723.673 311.663 727.039 315.251C730.409 318.843 735.118 320.728 740.457 320.728V318.728ZM723.724 299.968C723.724 293.937 725.593 289.217 728.596 286.014C731.596 282.813 735.795 281.052 740.612 281.052V279.052C735.29 279.052 730.545 281.009 727.136 284.646C723.73 288.281 721.724 293.519 721.724 299.968H723.724ZM740.612 281.052C745.687 281.052 749.083 283.284 751.286 285.535L752.715 284.137C750.238 281.604 746.354 279.052 740.612 279.052V281.052ZM751.235 284.193L747.959 288.093L749.49 289.379L752.766 285.479L751.235 284.193ZM749.432 288.029C747.382 285.979 744.802 284.304 740.82 284.304V286.304C744.119 286.304 746.219 287.645 748.017 289.443L749.432 288.029ZM740.82 284.304C736.955 284.304 733.701 285.799 731.431 288.54C729.178 291.261 727.965 295.123 727.965 299.76H729.965C729.965 295.453 731.091 292.087 732.972 289.816C734.836 287.565 737.51 286.304 740.82 286.304V284.304ZM727.965 299.76C727.965 304.448 729.048 308.366 731.28 311.133C733.539 313.931 736.873 315.424 741.081 315.424V313.424C737.384 313.424 734.66 312.135 732.837 309.876C730.987 307.586 729.965 304.172 729.965 299.76H727.965ZM741.081 315.424C743.554 315.424 746.182 314.719 747.738 313.288L746.383 311.816C745.339 312.777 743.287 313.424 741.081 313.424V315.424ZM748.061 312.552V303.608H746.061V312.552H748.061ZM747.061 302.608H739.521V304.608H747.061V302.608ZM740.521 303.608V298.616H738.521V303.608H740.521ZM739.521 299.616H752.573V297.616H739.521V299.616ZM751.573 298.616V315.204H753.573V298.616H751.573ZM751.858 314.504C749.523 316.887 745.425 318.728 740.457 318.728V320.728C745.888 320.728 750.526 318.721 753.287 315.904L751.858 314.504ZM787.557 318.728C782.893 318.728 779.005 316.933 776.268 313.712C773.519 310.475 771.865 305.719 771.865 299.708H769.865C769.865 306.073 771.618 311.327 774.744 315.006C777.883 318.701 782.341 320.728 787.557 320.728V318.728ZM771.865 299.708C771.865 293.725 773.518 289.064 776.26 285.915C778.992 282.779 782.88 281.052 787.557 281.052V279.052C782.354 279.052 777.897 280.991 774.752 284.602C771.619 288.2 769.865 293.367 769.865 299.708H771.865ZM787.557 281.052C792.207 281.052 796.082 282.778 798.808 285.914C801.545 289.064 803.197 293.725 803.197 299.708H805.197C805.197 293.367 803.444 288.2 800.317 284.603C797.18 280.992 792.735 279.052 787.557 279.052V281.052ZM803.197 299.708C803.197 305.719 801.544 310.476 798.8 313.712C796.068 316.934 792.193 318.728 787.557 318.728V320.728C792.749 320.728 797.194 318.7 800.325 315.006C803.445 311.326 805.197 306.073 805.197 299.708H803.197ZM787.557 315.424C791.073 315.424 793.981 313.808 795.977 310.999C797.952 308.22 799.009 304.319 799.009 299.708H797.009C797.009 304.041 796.012 307.498 794.347 309.841C792.703 312.154 790.386 313.424 787.557 313.424V315.424ZM799.009 299.708C799.009 295.097 797.952 291.267 795.969 288.561C793.963 285.824 791.052 284.304 787.557 284.304V286.304C790.407 286.304 792.722 287.514 794.356 289.743C796.012 292.003 797.009 295.375 797.009 299.708H799.009ZM787.557 284.304C784.038 284.304 781.126 285.823 779.125 288.562C777.148 291.269 776.105 295.1 776.105 299.708H778.105C778.105 295.372 779.09 292.001 780.74 289.742C782.366 287.515 784.68 286.304 787.557 286.304V284.304ZM776.105 299.708C776.105 304.316 777.148 308.218 779.117 310.998C781.107 313.809 784.017 315.424 787.557 315.424V313.424C784.701 313.424 782.385 312.153 780.749 309.842C779.09 307.5 778.105 304.044 778.105 299.708H776.105ZM812.148 319H811.148V320H812.148V319ZM812.148 280.728V279.728H811.148V280.728H812.148ZM834.872 280.728H835.872V279.728H834.872V280.728ZM834.872 285.824V286.824H835.872V285.824H834.872ZM818.232 285.824V284.824H817.232V285.824H818.232ZM818.232 297.472H817.232V298.472H818.232V297.472ZM832.376 297.472H833.376V296.472H832.376V297.472ZM832.376 302.568V303.568H833.376V302.568H832.376ZM818.232 302.568V301.568H817.232V302.568H818.232ZM818.232 319V320H819.232V319H818.232ZM813.148 319V280.728H811.148V319H813.148ZM812.148 281.728H834.872V279.728H812.148V281.728ZM833.872 280.728V285.824H835.872V280.728H833.872ZM834.872 284.824H818.232V286.824H834.872V284.824ZM817.232 285.824V297.472H819.232V285.824H817.232ZM818.232 298.472H832.376V296.472H818.232V298.472ZM831.376 297.472V302.568H833.376V297.472H831.376ZM832.376 301.568H818.232V303.568H832.376V301.568ZM817.232 302.568V319H819.232V302.568H817.232ZM818.232 318H812.148V320H818.232V318ZM853.281 319H852.281V320H853.281V319ZM853.281 280.728V279.728H852.281V280.728H853.281ZM873.249 298.46L872.92 297.516L872.249 297.75V298.46H873.249ZM873.249 298.668H872.249V299.476L873.04 299.646L873.249 298.668ZM859.365 296.692H858.365V297.692H859.365V296.692ZM859.365 285.46V284.46H858.365V285.46H859.365ZM859.365 314.268H858.365V315.268H859.365V314.268ZM859.365 301.268V300.268H858.365V301.268H859.365ZM854.281 319V280.728H852.281V319H854.281ZM853.281 281.728H865.189V279.728H853.281V281.728ZM865.189 281.728C869.013 281.728 872.16 282.345 874.32 283.69C876.404 284.987 877.657 287.011 877.657 290.14H879.657C879.657 286.353 878.076 283.671 875.376 281.991C872.752 280.359 869.165 279.728 865.189 279.728V281.728ZM877.657 290.14C877.657 293.503 875.866 296.489 872.92 297.516L873.578 299.404C877.496 298.039 879.657 294.161 879.657 290.14H877.657ZM872.249 298.46V298.668H874.249V298.46H872.249ZM873.04 299.646C875.059 300.078 876.723 300.977 877.879 302.297C879.027 303.609 879.737 305.407 879.737 307.768H881.737C881.737 304.981 880.887 302.697 879.383 300.98C877.888 299.271 875.807 298.194 873.459 297.69L873.04 299.646ZM879.737 307.768C879.737 311.255 878.348 313.755 876.027 315.418C873.662 317.114 870.24 318 866.125 318V320C870.486 320 874.37 319.066 877.192 317.044C880.058 314.989 881.737 311.873 881.737 307.768H879.737ZM866.125 318H853.281V320H866.125V318ZM859.365 297.692H864.513V295.692H859.365V297.692ZM864.513 297.692C867.522 297.692 869.828 297.133 871.403 295.96C873.031 294.746 873.729 292.989 873.729 290.972H871.729C871.729 292.491 871.231 293.594 870.208 294.356C869.13 295.159 867.329 295.692 864.513 295.692V297.692ZM873.729 290.972C873.729 288.711 872.943 286.978 871.254 285.877C869.658 284.836 867.399 284.46 864.669 284.46V286.46C867.295 286.46 869.066 286.838 870.161 287.552C871.163 288.206 871.729 289.229 871.729 290.972H873.729ZM864.669 284.46H859.365V286.46H864.669V284.46ZM858.365 285.46V296.692H860.365V285.46H858.365ZM859.365 315.268H865.449V313.268H859.365V315.268ZM865.449 315.268C868.504 315.268 871.083 314.724 872.923 313.445C874.825 312.122 875.809 310.106 875.809 307.508H873.809C873.809 309.538 873.077 310.902 871.781 311.802C870.423 312.746 868.322 313.268 865.449 313.268V315.268ZM875.809 307.508C875.809 305.051 874.851 303.155 872.953 301.93C871.134 300.754 868.563 300.268 865.449 300.268V302.268C868.419 302.268 870.528 302.744 871.868 303.609C873.13 304.425 873.809 305.649 873.809 307.508H875.809ZM865.449 300.268H859.365V302.268H865.449V300.268ZM858.365 301.268V314.268H860.365V301.268H858.365ZM887.965 319H886.965V320H887.965V319ZM887.965 280.728V279.728H886.965V280.728H887.965ZM910.637 280.728H911.637V279.728H910.637V280.728ZM910.637 285.824V286.824H911.637V285.824H910.637ZM894.049 285.824V284.824H893.049V285.824H894.049ZM894.049 296.432H893.049V297.432H894.049V296.432ZM908.037 296.432H909.037V295.432H908.037V296.432ZM908.037 301.58V302.58H909.037V301.58H908.037ZM894.049 301.58V300.58H893.049V301.58H894.049ZM894.049 313.904H893.049V314.904H894.049V313.904ZM911.209 313.904H912.209V312.904H911.209V313.904ZM911.209 319V320H912.209V319H911.209ZM888.965 319V280.728H886.965V319H888.965ZM887.965 281.728H910.637V279.728H887.965V281.728ZM909.637 280.728V285.824H911.637V280.728H909.637ZM910.637 284.824H894.049V286.824H910.637V284.824ZM893.049 285.824V296.432H895.049V285.824H893.049ZM894.049 297.432H908.037V295.432H894.049V297.432ZM907.037 296.432V301.58H909.037V296.432H907.037ZM908.037 300.58H894.049V302.58H908.037V300.58ZM893.049 301.58V313.904H895.049V301.58H893.049ZM894.049 314.904H911.209V312.904H894.049V314.904ZM910.209 313.904V319H912.209V313.904H910.209ZM911.209 318H887.965V320H911.209V318ZM919.144 319H918.144V320H919.144V319ZM919.144 280.728V279.728H918.144V280.728H919.144ZM941.816 280.728H942.816V279.728H941.816V280.728ZM941.816 285.824V286.824H942.816V285.824H941.816ZM925.228 285.824V284.824H924.228V285.824H925.228ZM925.228 296.432H924.228V297.432H925.228V296.432ZM939.216 296.432H940.216V295.432H939.216V296.432ZM939.216 301.58V302.58H940.216V301.58H939.216ZM925.228 301.58V300.58H924.228V301.58H925.228ZM925.228 313.904H924.228V314.904H925.228V313.904ZM942.388 313.904H943.388V312.904H942.388V313.904ZM942.388 319V320H943.388V319H942.388ZM920.144 319V280.728H918.144V319H920.144ZM919.144 281.728H941.816V279.728H919.144V281.728ZM940.816 280.728V285.824H942.816V280.728H940.816ZM941.816 284.824H925.228V286.824H941.816V284.824ZM924.228 285.824V296.432H926.228V285.824H924.228ZM925.228 297.432H939.216V295.432H925.228V297.432ZM938.216 296.432V301.58H940.216V296.432H938.216ZM939.216 300.58H925.228V302.58H939.216V300.58ZM924.228 301.58V313.904H926.228V301.58H924.228ZM925.228 314.904H942.388V312.904H925.228V314.904ZM941.388 313.904V319H943.388V313.904H941.388ZM942.388 318H919.144V320H942.388V318ZM958.124 319H957.124V320H958.124V319ZM958.124 285.824H959.124V284.824H958.124V285.824ZM946.892 285.824H945.892V286.824H946.892V285.824ZM946.892 280.728V279.728H945.892V280.728H946.892ZM975.44 280.728H976.44V279.728H975.44V280.728ZM975.44 285.824V286.824H976.44V285.824H975.44ZM964.208 285.824V284.824H963.208V285.824H964.208ZM964.208 319V320H965.208V319H964.208ZM959.124 319V285.824H957.124V319H959.124ZM958.124 284.824H946.892V286.824H958.124V284.824ZM947.892 285.824V280.728H945.892V285.824H947.892ZM946.892 281.728H975.44V279.728H946.892V281.728ZM974.44 280.728V285.824H976.44V280.728H974.44ZM975.44 284.824H964.208V286.824H975.44V284.824ZM963.208 285.824V319H965.208V285.824H963.208ZM964.208 318H958.124V320H964.208V318ZM982.113 319H981.113V320H982.113V319ZM982.113 280.728V279.728H981.113V280.728H982.113ZM988.197 280.728H989.197V279.728H988.197V280.728ZM988.197 313.904H987.197V314.904H988.197V313.904ZM1004.42 313.904H1005.42V312.904H1004.42V313.904ZM1004.42 319V320H1005.42V319H1004.42ZM983.113 319V280.728H981.113V319H983.113ZM982.113 281.728H988.197V279.728H982.113V281.728ZM987.197 280.728V313.904H989.197V280.728H987.197ZM988.197 314.904H1004.42V312.904H988.197V314.904ZM1003.42 313.904V319H1005.42V313.904H1003.42ZM1004.42 318H982.113V320H1004.42V318ZM1011.11 319H1010.11V320H1011.11V319ZM1011.11 280.728V279.728H1010.11V280.728H1011.11ZM1033.78 280.728H1034.78V279.728H1033.78V280.728ZM1033.78 285.824V286.824H1034.78V285.824H1033.78ZM1017.19 285.824V284.824H1016.19V285.824H1017.19ZM1017.19 296.432H1016.19V297.432H1017.19V296.432ZM1031.18 296.432H1032.18V295.432H1031.18V296.432ZM1031.18 301.58V302.58H1032.18V301.58H1031.18ZM1017.19 301.58V300.58H1016.19V301.58H1017.19ZM1017.19 313.904H1016.19V314.904H1017.19V313.904ZM1034.35 313.904H1035.35V312.904H1034.35V313.904ZM1034.35 319V320H1035.35V319H1034.35ZM1012.11 319V280.728H1010.11V319H1012.11ZM1011.11 281.728H1033.78V279.728H1011.11V281.728ZM1032.78 280.728V285.824H1034.78V280.728H1032.78ZM1033.78 284.824H1017.19V286.824H1033.78V284.824ZM1016.19 285.824V296.432H1018.19V285.824H1016.19ZM1017.19 297.432H1031.18V295.432H1017.19V297.432ZM1030.18 296.432V301.58H1032.18V296.432H1030.18ZM1031.18 300.58H1017.19V302.58H1031.18V300.58ZM1016.19 301.58V313.904H1018.19V301.58H1016.19ZM1017.19 314.904H1034.35V312.904H1017.19V314.904ZM1033.35 313.904V319H1035.35V313.904H1033.35ZM1034.35 318H1011.11V320H1034.35V318Z" fill="black" mask="url(#path-4-outside-1_71_198)"/>
<mask id="path-6-outside-2_71_198" maskUnits="userSpaceOnUse" x="458" y="123" width="572" height="137" fill="black">
<rect fill="white" x="458" y="123" width="572" height="137"/>
<path d="M516.856 137.64H529.656V243.752H516.856V137.64ZM474.488 132.776H572.152V210.6H559.224V144.424H486.904V210.856H474.488V132.776ZM480.376 162.856H565.112V174.248H480.376V162.856ZM480.376 192.296H564.984V204.072H480.376V192.296ZM637.816 141.48V150.952H702.712V141.48H637.816ZM626.552 132.648H714.616V159.784H626.552V132.648ZM663.8 124.712H675.832V174.248H663.8V124.712ZM618.104 168.872C640.76 169 677.368 168.616 711.672 168.232L711.16 176.808C677.88 177.96 642.424 178.728 618.744 178.984L618.104 168.872ZM690.808 162.6L699.128 157.736C708.344 163.624 719.608 172.2 725.496 177.704L716.92 183.464C711.16 177.576 699.768 168.488 690.808 162.6ZM624.76 197.032V208.296H655.864V197.032H624.76ZM615.672 188.072H665.336V217.384H615.672V188.072ZM635.384 179.496H645.368V234.536H635.384V179.496ZM610.424 229.416C623.352 228.904 642.424 228.136 661.368 227.24L661.24 236.712C643.192 237.864 624.76 239.016 611.192 239.784L610.424 229.416ZM651.256 221.352L659.576 217.896C664.056 224.808 668.792 234.024 670.712 240.168L661.88 244.008C660.088 237.864 655.48 228.264 651.256 221.352ZM681.464 197.032V208.168H714.232V197.032H681.464ZM672.376 187.944H723.832V217.256H672.376V187.944ZM692.6 179.496H702.84V234.536H692.6V179.496ZM669.56 229.416C682.488 229.032 701.944 228.136 721.016 227.24L720.888 236.84C702.84 238.12 684.28 239.272 670.584 240.04L669.56 229.416ZM709.24 221.352L717.816 217.384C723.064 224.296 728.44 233.384 731 239.528L721.912 244.008C719.608 237.736 714.232 228.264 709.24 221.352ZM761.336 131.624H807.8V143.272H761.336V131.624ZM799.736 131.624H811.768V227.624C811.768 235.048 810.104 238.504 805.368 240.552C800.632 242.472 792.696 242.728 781.56 242.728C781.048 239.4 779.128 233.768 777.336 230.44C785.4 230.824 794.104 230.824 796.536 230.696C798.968 230.696 799.736 229.928 799.736 227.624V131.624ZM757.624 210.472C766.456 206.12 779.896 198.696 792.952 191.272L796.28 201.384C784.76 208.424 772.216 215.848 762.232 221.48L757.624 210.472ZM818.552 131.624H864.12V143.272H818.552V131.624ZM858.104 131.624H870.52V227.624C870.52 235.176 868.728 238.76 863.736 240.808C858.744 242.856 850.296 242.984 838.392 242.984C837.88 239.528 835.832 233.768 834.168 230.44C842.616 230.952 851.96 230.824 854.776 230.696C857.336 230.696 858.104 229.8 858.104 227.368V131.624ZM819.96 160.424L829.176 154.024C837.112 161.192 846.712 170.536 851.448 176.424L841.976 183.976C837.24 177.832 827.64 167.72 819.96 160.424ZM762.232 160.808L771.704 154.92C779.512 162.216 788.984 171.944 793.72 177.96L783.864 185C779.256 178.728 769.912 168.232 762.232 160.808ZM815.48 207.912C824.312 203.688 837.88 196.392 850.936 189.224L853.88 199.208C842.872 206.248 830.968 213.416 821.496 219.048L815.48 207.912ZM913.912 157.48H945.144V167.72H913.912V157.48ZM906.872 179.752H950.52V190.12H906.872V179.752ZM907.512 197.16L915.704 195.112C917.752 202.408 919.8 211.88 920.568 218.024L911.992 220.328C911.352 214.056 909.432 204.456 907.512 197.16ZM904.696 228.904C916.088 227.24 933.88 224.296 951.16 221.352L951.8 231.08C936.056 234.28 919.544 237.48 907.256 239.912L904.696 228.904ZM943.864 194.088L951.928 196.264C949.88 203.816 947.704 212.904 945.784 218.792L939.256 216.744C940.92 210.6 942.968 200.744 943.864 194.088ZM925.048 161.704H935.032V230.44L925.048 232.36V161.704ZM927.992 124.84L937.336 128.168C930.424 143.016 918.904 158.12 907.256 167.72C906.872 165.288 904.568 158.888 903.032 156.072C912.632 148.52 922.36 136.872 927.992 124.84ZM926.2 136.104L932.728 129.32C940.536 136.616 951.544 146.856 956.92 152.872L949.88 160.936C944.76 154.408 934.136 143.784 926.2 136.104ZM1013.37 186.408L1021.56 193.32C1016.18 199.08 1009.66 205.48 1004.54 209.576L998.008 203.304C1002.74 199.08 1009.53 191.784 1013.37 186.408ZM955 192.424L962.936 186.664C967.928 191.528 974.072 198.312 977.016 202.664L968.44 209.192C965.752 204.712 959.736 197.544 955 192.424ZM970.616 135.976H1004.92V145.448H970.616V135.976ZM966.648 155.304H1001.98V164.648H966.648V155.304ZM952.312 172.456H1023.61V183.208H952.312V172.456ZM981.88 178.856H993.016V231.848C993.016 237.352 992.12 240.296 988.536 242.088C985.08 243.624 979.832 243.88 972.536 243.88C972.152 240.936 970.744 236.456 969.208 233.384C973.944 233.64 978.552 233.512 979.96 233.512C981.496 233.512 981.88 233.128 981.88 231.848V178.856ZM949.88 226.344C956.152 222.632 965.368 216.36 974.456 209.96L978.04 218.792C970.872 224.552 962.808 230.568 956.152 235.432L949.88 226.344ZM969.336 124.84L980.6 126.12C977.784 138.92 973.688 154.92 970.744 164.648H958.968C962.424 154.408 966.648 137.64 969.336 124.84ZM1001.59 135.976H1002.87L1004.79 135.464L1012.98 136.744C1011.06 148.776 1007.86 164.52 1004.92 176.68L993.912 175.272C996.856 162.984 1000.18 146.088 1001.59 137.384V135.976ZM995.192 216.744L1001.72 209.448C1009.14 214.696 1019.38 222.376 1024.38 227.112L1017.59 235.432C1012.86 230.44 1002.74 222.248 995.192 216.744Z"/>
<path d="M459 252.2H1028.6V258.6H459V252.2Z"/>
</mask>
<path d="M516.856 137.64H529.656V243.752H516.856V137.64ZM474.488 132.776H572.152V210.6H559.224V144.424H486.904V210.856H474.488V132.776ZM480.376 162.856H565.112V174.248H480.376V162.856ZM480.376 192.296H564.984V204.072H480.376V192.296ZM637.816 141.48V150.952H702.712V141.48H637.816ZM626.552 132.648H714.616V159.784H626.552V132.648ZM663.8 124.712H675.832V174.248H663.8V124.712ZM618.104 168.872C640.76 169 677.368 168.616 711.672 168.232L711.16 176.808C677.88 177.96 642.424 178.728 618.744 178.984L618.104 168.872ZM690.808 162.6L699.128 157.736C708.344 163.624 719.608 172.2 725.496 177.704L716.92 183.464C711.16 177.576 699.768 168.488 690.808 162.6ZM624.76 197.032V208.296H655.864V197.032H624.76ZM615.672 188.072H665.336V217.384H615.672V188.072ZM635.384 179.496H645.368V234.536H635.384V179.496ZM610.424 229.416C623.352 228.904 642.424 228.136 661.368 227.24L661.24 236.712C643.192 237.864 624.76 239.016 611.192 239.784L610.424 229.416ZM651.256 221.352L659.576 217.896C664.056 224.808 668.792 234.024 670.712 240.168L661.88 244.008C660.088 237.864 655.48 228.264 651.256 221.352ZM681.464 197.032V208.168H714.232V197.032H681.464ZM672.376 187.944H723.832V217.256H672.376V187.944ZM692.6 179.496H702.84V234.536H692.6V179.496ZM669.56 229.416C682.488 229.032 701.944 228.136 721.016 227.24L720.888 236.84C702.84 238.12 684.28 239.272 670.584 240.04L669.56 229.416ZM709.24 221.352L717.816 217.384C723.064 224.296 728.44 233.384 731 239.528L721.912 244.008C719.608 237.736 714.232 228.264 709.24 221.352ZM761.336 131.624H807.8V143.272H761.336V131.624ZM799.736 131.624H811.768V227.624C811.768 235.048 810.104 238.504 805.368 240.552C800.632 242.472 792.696 242.728 781.56 242.728C781.048 239.4 779.128 233.768 777.336 230.44C785.4 230.824 794.104 230.824 796.536 230.696C798.968 230.696 799.736 229.928 799.736 227.624V131.624ZM757.624 210.472C766.456 206.12 779.896 198.696 792.952 191.272L796.28 201.384C784.76 208.424 772.216 215.848 762.232 221.48L757.624 210.472ZM818.552 131.624H864.12V143.272H818.552V131.624ZM858.104 131.624H870.52V227.624C870.52 235.176 868.728 238.76 863.736 240.808C858.744 242.856 850.296 242.984 838.392 242.984C837.88 239.528 835.832 233.768 834.168 230.44C842.616 230.952 851.96 230.824 854.776 230.696C857.336 230.696 858.104 229.8 858.104 227.368V131.624ZM819.96 160.424L829.176 154.024C837.112 161.192 846.712 170.536 851.448 176.424L841.976 183.976C837.24 177.832 827.64 167.72 819.96 160.424ZM762.232 160.808L771.704 154.92C779.512 162.216 788.984 171.944 793.72 177.96L783.864 185C779.256 178.728 769.912 168.232 762.232 160.808ZM815.48 207.912C824.312 203.688 837.88 196.392 850.936 189.224L853.88 199.208C842.872 206.248 830.968 213.416 821.496 219.048L815.48 207.912ZM913.912 157.48H945.144V167.72H913.912V157.48ZM906.872 179.752H950.52V190.12H906.872V179.752ZM907.512 197.16L915.704 195.112C917.752 202.408 919.8 211.88 920.568 218.024L911.992 220.328C911.352 214.056 909.432 204.456 907.512 197.16ZM904.696 228.904C916.088 227.24 933.88 224.296 951.16 221.352L951.8 231.08C936.056 234.28 919.544 237.48 907.256 239.912L904.696 228.904ZM943.864 194.088L951.928 196.264C949.88 203.816 947.704 212.904 945.784 218.792L939.256 216.744C940.92 210.6 942.968 200.744 943.864 194.088ZM925.048 161.704H935.032V230.44L925.048 232.36V161.704ZM927.992 124.84L937.336 128.168C930.424 143.016 918.904 158.12 907.256 167.72C906.872 165.288 904.568 158.888 903.032 156.072C912.632 148.52 922.36 136.872 927.992 124.84ZM926.2 136.104L932.728 129.32C940.536 136.616 951.544 146.856 956.92 152.872L949.88 160.936C944.76 154.408 934.136 143.784 926.2 136.104ZM1013.37 186.408L1021.56 193.32C1016.18 199.08 1009.66 205.48 1004.54 209.576L998.008 203.304C1002.74 199.08 1009.53 191.784 1013.37 186.408ZM955 192.424L962.936 186.664C967.928 191.528 974.072 198.312 977.016 202.664L968.44 209.192C965.752 204.712 959.736 197.544 955 192.424ZM970.616 135.976H1004.92V145.448H970.616V135.976ZM966.648 155.304H1001.98V164.648H966.648V155.304ZM952.312 172.456H1023.61V183.208H952.312V172.456ZM981.88 178.856H993.016V231.848C993.016 237.352 992.12 240.296 988.536 242.088C985.08 243.624 979.832 243.88 972.536 243.88C972.152 240.936 970.744 236.456 969.208 233.384C973.944 233.64 978.552 233.512 979.96 233.512C981.496 233.512 981.88 233.128 981.88 231.848V178.856ZM949.88 226.344C956.152 222.632 965.368 216.36 974.456 209.96L978.04 218.792C970.872 224.552 962.808 230.568 956.152 235.432L949.88 226.344ZM969.336 124.84L980.6 126.12C977.784 138.92 973.688 154.92 970.744 164.648H958.968C962.424 154.408 966.648 137.64 969.336 124.84ZM1001.59 135.976H1002.87L1004.79 135.464L1012.98 136.744C1011.06 148.776 1007.86 164.52 1004.92 176.68L993.912 175.272C996.856 162.984 1000.18 146.088 1001.59 137.384V135.976ZM995.192 216.744L1001.72 209.448C1009.14 214.696 1019.38 222.376 1024.38 227.112L1017.59 235.432C1012.86 230.44 1002.74 222.248 995.192 216.744Z" fill="white"/>
<path d="M459 252.2H1028.6V258.6H459V252.2Z" fill="white"/>
<path d="M516.856 137.64V136.64H515.856V137.64H516.856ZM529.656 137.64H530.656V136.64H529.656V137.64ZM529.656 243.752V244.752H530.656V243.752H529.656ZM516.856 243.752H515.856V244.752H516.856V243.752ZM474.488 132.776V131.776H473.488V132.776H474.488ZM572.152 132.776H573.152V131.776H572.152V132.776ZM572.152 210.6V211.6H573.152V210.6H572.152ZM559.224 210.6H558.224V211.6H559.224V210.6ZM559.224 144.424H560.224V143.424H559.224V144.424ZM486.904 144.424V143.424H485.904V144.424H486.904ZM486.904 210.856V211.856H487.904V210.856H486.904ZM474.488 210.856H473.488V211.856H474.488V210.856ZM480.376 162.856V161.856H479.376V162.856H480.376ZM565.112 162.856H566.112V161.856H565.112V162.856ZM565.112 174.248V175.248H566.112V174.248H565.112ZM480.376 174.248H479.376V175.248H480.376V174.248ZM480.376 192.296V191.296H479.376V192.296H480.376ZM564.984 192.296H565.984V191.296H564.984V192.296ZM564.984 204.072V205.072H565.984V204.072H564.984ZM480.376 204.072H479.376V205.072H480.376V204.072ZM516.856 138.64H529.656V136.64H516.856V138.64ZM528.656 137.64V243.752H530.656V137.64H528.656ZM529.656 242.752H516.856V244.752H529.656V242.752ZM517.856 243.752V137.64H515.856V243.752H517.856ZM474.488 133.776H572.152V131.776H474.488V133.776ZM571.152 132.776V210.6H573.152V132.776H571.152ZM572.152 209.6H559.224V211.6H572.152V209.6ZM560.224 210.6V144.424H558.224V210.6H560.224ZM559.224 143.424H486.904V145.424H559.224V143.424ZM485.904 144.424V210.856H487.904V144.424H485.904ZM486.904 209.856H474.488V211.856H486.904V209.856ZM475.488 210.856V132.776H473.488V210.856H475.488ZM480.376 163.856H565.112V161.856H480.376V163.856ZM564.112 162.856V174.248H566.112V162.856H564.112ZM565.112 173.248H480.376V175.248H565.112V173.248ZM481.376 174.248V162.856H479.376V174.248H481.376ZM480.376 193.296H564.984V191.296H480.376V193.296ZM563.984 192.296V204.072H565.984V192.296H563.984ZM564.984 203.072H480.376V205.072H564.984V203.072ZM481.376 204.072V192.296H479.376V204.072H481.376ZM637.816 141.48V140.48H636.816V141.48H637.816ZM637.816 150.952H636.816V151.952H637.816V150.952ZM702.712 150.952V151.952H703.712V150.952H702.712ZM702.712 141.48H703.712V140.48H702.712V141.48ZM626.552 132.648V131.648H625.552V132.648H626.552ZM714.616 132.648H715.616V131.648H714.616V132.648ZM714.616 159.784V160.784H715.616V159.784H714.616ZM626.552 159.784H625.552V160.784H626.552V159.784ZM663.8 124.712V123.712H662.8V124.712H663.8ZM675.832 124.712H676.832V123.712H675.832V124.712ZM675.832 174.248V175.248H676.832V174.248H675.832ZM663.8 174.248H662.8V175.248H663.8V174.248ZM618.104 168.872L618.11 167.872L617.038 167.866L617.106 168.935L618.104 168.872ZM711.672 168.232L712.67 168.292L712.734 167.22L711.661 167.232L711.672 168.232ZM711.16 176.808L711.195 177.807L712.104 177.776L712.158 176.868L711.16 176.808ZM618.744 178.984L617.746 179.047L617.806 179.994L618.755 179.984L618.744 178.984ZM690.808 162.6L690.303 161.737L688.912 162.55L690.259 163.436L690.808 162.6ZM699.128 157.736L699.666 156.893L699.151 156.564L698.623 156.873L699.128 157.736ZM725.496 177.704L726.054 178.534L727.098 177.833L726.179 176.973L725.496 177.704ZM716.92 183.464L716.205 184.163L716.787 184.758L717.478 184.294L716.92 183.464ZM624.76 197.032V196.032H623.76V197.032H624.76ZM624.76 208.296H623.76V209.296H624.76V208.296ZM655.864 208.296V209.296H656.864V208.296H655.864ZM655.864 197.032H656.864V196.032H655.864V197.032ZM615.672 188.072V187.072H614.672V188.072H615.672ZM665.336 188.072H666.336V187.072H665.336V188.072ZM665.336 217.384V218.384H666.336V217.384H665.336ZM615.672 217.384H614.672V218.384H615.672V217.384ZM635.384 179.496V178.496H634.384V179.496H635.384ZM645.368 179.496H646.368V178.496H645.368V179.496ZM645.368 234.536V235.536H646.368V234.536H645.368ZM635.384 234.536H634.384V235.536H635.384V234.536ZM610.424 229.416L610.384 228.417L609.35 228.458L609.427 229.49L610.424 229.416ZM661.368 227.24L662.368 227.254L662.382 226.191L661.321 226.241L661.368 227.24ZM661.24 236.712L661.304 237.71L662.227 237.651L662.24 236.726L661.24 236.712ZM611.192 239.784L610.195 239.858L610.267 240.838L611.249 240.782L611.192 239.784ZM651.256 221.352L650.872 220.428L649.794 220.877L650.403 221.873L651.256 221.352ZM659.576 217.896L660.415 217.352L659.962 216.653L659.192 216.973L659.576 217.896ZM670.712 240.168L671.111 241.085L671.934 240.727L671.666 239.87L670.712 240.168ZM661.88 244.008L660.92 244.288L661.238 245.378L662.279 244.925L661.88 244.008ZM681.464 197.032V196.032H680.464V197.032H681.464ZM681.464 208.168H680.464V209.168H681.464V208.168ZM714.232 208.168V209.168H715.232V208.168H714.232ZM714.232 197.032H715.232V196.032H714.232V197.032ZM672.376 187.944V186.944H671.376V187.944H672.376ZM723.832 187.944H724.832V186.944H723.832V187.944ZM723.832 217.256V218.256H724.832V217.256H723.832ZM672.376 217.256H671.376V218.256H672.376V217.256ZM692.6 179.496V178.496H691.6V179.496H692.6ZM702.84 179.496H703.84V178.496H702.84V179.496ZM702.84 234.536V235.536H703.84V234.536H702.84ZM692.6 234.536H691.6V235.536H692.6V234.536ZM669.56 229.416L669.53 228.416L668.462 228.448L668.565 229.512L669.56 229.416ZM721.016 227.24L722.016 227.253L722.03 226.191L720.969 226.241L721.016 227.24ZM720.888 236.84L720.959 237.837L721.876 237.772L721.888 236.853L720.888 236.84ZM670.584 240.04L669.589 240.136L669.681 241.092L670.64 241.038L670.584 240.04ZM709.24 221.352L708.82 220.444L707.719 220.954L708.429 221.937L709.24 221.352ZM717.816 217.384L718.612 216.779L718.126 216.139L717.396 216.476L717.816 217.384ZM731 239.528L731.442 240.425L732.284 240.01L731.923 239.143L731 239.528ZM721.912 244.008L720.973 244.353L721.357 245.397L722.354 244.905L721.912 244.008ZM636.816 141.48V150.952H638.816V141.48H636.816ZM637.816 151.952H702.712V149.952H637.816V151.952ZM703.712 150.952V141.48H701.712V150.952H703.712ZM702.712 140.48H637.816V142.48H702.712V140.48ZM626.552 133.648H714.616V131.648H626.552V133.648ZM713.616 132.648V159.784H715.616V132.648H713.616ZM714.616 158.784H626.552V160.784H714.616V158.784ZM627.552 159.784V132.648H625.552V159.784H627.552ZM663.8 125.712H675.832V123.712H663.8V125.712ZM674.832 124.712V174.248H676.832V124.712H674.832ZM675.832 173.248H663.8V175.248H675.832V173.248ZM664.8 174.248V124.712H662.8V174.248H664.8ZM618.098 169.872C640.765 170 677.382 169.616 711.683 169.232L711.661 167.232C677.354 167.616 640.755 168 618.11 167.872L618.098 169.872ZM710.674 168.172L710.162 176.748L712.158 176.868L712.67 168.292L710.674 168.172ZM711.125 175.809C677.853 176.96 642.405 177.728 618.733 177.984L618.755 179.984C642.443 179.728 677.907 178.96 711.195 177.807L711.125 175.809ZM619.742 178.921L619.102 168.809L617.106 168.935L617.746 179.047L619.742 178.921ZM691.313 163.463L699.633 158.599L698.623 156.873L690.303 161.737L691.313 163.463ZM698.59 158.579C707.768 164.442 718.98 172.982 724.813 178.435L726.179 176.973C720.236 171.418 708.92 162.806 699.666 156.893L698.59 158.579ZM724.938 176.874L716.362 182.634L717.478 184.294L726.054 178.534L724.938 176.874ZM717.635 182.765C711.812 176.812 700.359 167.68 691.357 161.764L690.259 163.436C699.177 169.296 710.508 178.34 716.205 184.163L717.635 182.765ZM623.76 197.032V208.296H625.76V197.032H623.76ZM624.76 209.296H655.864V207.296H624.76V209.296ZM656.864 208.296V197.032H654.864V208.296H656.864ZM655.864 196.032H624.76V198.032H655.864V196.032ZM615.672 189.072H665.336V187.072H615.672V189.072ZM664.336 188.072V217.384H666.336V188.072H664.336ZM665.336 216.384H615.672V218.384H665.336V216.384ZM616.672 217.384V188.072H614.672V217.384H616.672ZM635.384 180.496H645.368V178.496H635.384V180.496ZM644.368 179.496V234.536H646.368V179.496H644.368ZM645.368 233.536H635.384V235.536H645.368V233.536ZM636.384 234.536V179.496H634.384V234.536H636.384ZM610.464 230.415C623.392 229.903 642.467 229.135 661.415 228.239L661.321 226.241C642.381 227.137 623.312 227.905 610.384 228.417L610.464 230.415ZM660.368 227.226L660.24 236.698L662.24 236.726L662.368 227.254L660.368 227.226ZM661.176 235.714C643.128 236.866 624.7 238.018 611.135 238.786L611.249 240.782C624.82 240.014 643.256 238.862 661.304 237.71L661.176 235.714ZM612.189 239.71L611.421 229.342L609.427 229.49L610.195 239.858L612.189 239.71ZM651.64 222.275L659.96 218.819L659.192 216.973L650.872 220.428L651.64 222.275ZM658.737 218.44C663.19 225.31 667.875 234.441 669.758 240.466L671.666 239.87C669.709 233.607 664.922 224.306 660.415 217.352L658.737 218.44ZM670.313 239.251L661.481 243.091L662.279 244.925L671.111 241.085L670.313 239.251ZM662.84 243.728C661.015 237.47 656.36 227.787 652.109 220.831L650.403 221.873C654.6 228.741 659.161 238.258 660.92 244.288L662.84 243.728ZM680.464 197.032V208.168H682.464V197.032H680.464ZM681.464 209.168H714.232V207.168H681.464V209.168ZM715.232 208.168V197.032H713.232V208.168H715.232ZM714.232 196.032H681.464V198.032H714.232V196.032ZM672.376 188.944H723.832V186.944H672.376V188.944ZM722.832 187.944V217.256H724.832V187.944H722.832ZM723.832 216.256H672.376V218.256H723.832V216.256ZM673.376 217.256V187.944H671.376V217.256H673.376ZM692.6 180.496H702.84V178.496H692.6V180.496ZM701.84 179.496V234.536H703.84V179.496H701.84ZM702.84 233.536H692.6V235.536H702.84V233.536ZM693.6 234.536V179.496H691.6V234.536H693.6ZM669.59 230.416C682.528 230.031 701.994 229.135 721.063 228.239L720.969 226.241C701.894 227.137 682.448 228.033 669.53 228.416L669.59 230.416ZM720.016 227.227L719.888 236.827L721.888 236.853L722.016 227.253L720.016 227.227ZM720.817 235.842C702.775 237.122 684.219 238.274 670.528 239.042L670.64 241.038C684.34 240.27 702.905 239.118 720.959 237.837L720.817 235.842ZM671.579 239.944L670.555 229.32L668.565 229.512L669.589 240.136L671.579 239.944ZM709.66 222.26L718.236 218.292L717.396 216.476L708.82 220.444L709.66 222.26ZM717.02 217.989C722.228 224.849 727.556 233.864 730.077 239.913L731.923 239.143C729.324 232.904 723.9 223.743 718.612 216.779L717.02 217.989ZM730.558 238.631L721.47 243.111L722.354 244.905L731.442 240.425L730.558 238.631ZM722.851 243.663C720.505 237.279 715.076 227.725 710.051 220.767L708.429 221.937C713.388 228.803 718.711 238.193 720.973 244.353L722.851 243.663ZM761.336 131.624V130.624H760.336V131.624H761.336ZM807.8 131.624H808.8V130.624H807.8V131.624ZM807.8 143.272V144.272H808.8V143.272H807.8ZM761.336 143.272H760.336V144.272H761.336V143.272ZM799.736 131.624V130.624H798.736V131.624H799.736ZM811.768 131.624H812.768V130.624H811.768V131.624ZM805.368 240.552L805.744 241.479L805.754 241.474L805.765 241.47L805.368 240.552ZM781.56 242.728L780.572 242.88L780.702 243.728H781.56V242.728ZM777.336 230.44L777.384 229.441L775.617 229.357L776.456 230.914L777.336 230.44ZM796.536 230.696V229.696H796.51L796.483 229.697L796.536 230.696ZM757.624 210.472L757.182 209.575L756.338 209.991L756.702 210.858L757.624 210.472ZM792.952 191.272L793.902 190.959L793.52 189.799L792.458 190.403L792.952 191.272ZM796.28 201.384L796.801 202.237L797.478 201.824L797.23 201.071L796.28 201.384ZM762.232 221.48L761.31 221.866L761.744 222.904L762.723 222.351L762.232 221.48ZM818.552 131.624V130.624H817.552V131.624H818.552ZM864.12 131.624H865.12V130.624H864.12V131.624ZM864.12 143.272V144.272H865.12V143.272H864.12ZM818.552 143.272H817.552V144.272H818.552V143.272ZM858.104 131.624V130.624H857.104V131.624H858.104ZM870.52 131.624H871.52V130.624H870.52V131.624ZM863.736 240.808L864.116 241.733L863.736 240.808ZM838.392 242.984L837.403 243.131L837.529 243.984H838.392V242.984ZM834.168 230.44L834.228 229.442L832.498 229.337L833.274 230.887L834.168 230.44ZM854.776 230.696V229.696H854.753L854.731 229.697L854.776 230.696ZM819.96 160.424L819.39 159.603L818.381 160.303L819.271 161.149L819.96 160.424ZM829.176 154.024L829.846 153.282L829.257 152.75L828.606 153.203L829.176 154.024ZM851.448 176.424L852.071 177.206L852.857 176.58L852.227 175.797L851.448 176.424ZM841.976 183.976L841.184 184.587L841.805 185.392L842.599 184.758L841.976 183.976ZM762.232 160.808L761.704 159.959L760.615 160.636L761.537 161.527L762.232 160.808ZM771.704 154.92L772.387 154.189L771.827 153.666L771.176 154.071L771.704 154.92ZM793.72 177.96L794.301 178.774L795.154 178.165L794.506 177.341L793.72 177.96ZM783.864 185L783.058 185.592L783.642 186.387L784.445 185.814L783.864 185ZM815.48 207.912L815.049 207.01L814.101 207.463L814.6 208.387L815.48 207.912ZM850.936 189.224L851.895 188.941L851.544 187.75L850.455 188.347L850.936 189.224ZM853.88 199.208L854.419 200.05L855.052 199.646L854.839 198.925L853.88 199.208ZM821.496 219.048L820.616 219.523L821.111 220.44L822.007 219.908L821.496 219.048ZM761.336 132.624H807.8V130.624H761.336V132.624ZM806.8 131.624V143.272H808.8V131.624H806.8ZM807.8 142.272H761.336V144.272H807.8V142.272ZM762.336 143.272V131.624H760.336V143.272H762.336ZM799.736 132.624H811.768V130.624H799.736V132.624ZM810.768 131.624V227.624H812.768V131.624H810.768ZM810.768 227.624C810.768 231.286 810.353 233.821 809.447 235.662C808.565 237.454 807.17 238.683 804.971 239.634L805.765 241.47C808.302 240.373 810.107 238.85 811.241 236.546C812.351 234.291 812.768 231.386 812.768 227.624H810.768ZM804.992 239.625C802.77 240.526 799.726 241.061 795.788 241.363C791.862 241.664 787.128 241.728 781.56 241.728V243.728C787.128 243.728 791.93 243.664 795.94 243.357C799.938 243.051 803.23 242.498 805.744 241.479L804.992 239.625ZM782.548 242.576C782.018 239.126 780.058 233.386 778.216 229.966L776.456 230.914C778.198 234.15 780.078 239.674 780.572 242.88L782.548 242.576ZM777.288 231.439C785.368 231.824 794.109 231.825 796.589 231.695L796.483 229.697C794.099 229.823 785.432 229.824 777.384 229.441L777.288 231.439ZM796.536 231.696C797.796 231.696 798.949 231.511 799.743 230.743C800.548 229.964 800.736 228.83 800.736 227.624H798.736C798.736 228.722 798.54 229.124 798.353 229.305C798.155 229.497 797.708 229.696 796.536 229.696V231.696ZM800.736 227.624V131.624H798.736V227.624H800.736ZM758.066 211.369C766.927 207.003 780.39 199.565 793.446 192.141L792.458 190.403C779.402 197.827 765.985 205.237 757.182 209.575L758.066 211.369ZM792.002 191.585L795.33 201.697L797.23 201.071L793.902 190.959L792.002 191.585ZM795.759 200.531C784.246 207.566 771.712 214.984 761.741 220.609L762.723 222.351C772.72 216.712 785.274 209.282 796.801 202.237L795.759 200.531ZM763.154 221.094L758.546 210.086L756.702 210.858L761.31 221.866L763.154 221.094ZM818.552 132.624H864.12V130.624H818.552V132.624ZM863.12 131.624V143.272H865.12V131.624H863.12ZM864.12 142.272H818.552V144.272H864.12V142.272ZM819.552 143.272V131.624H817.552V143.272H819.552ZM858.104 132.624H870.52V130.624H858.104V132.624ZM869.52 131.624V227.624H871.52V131.624H869.52ZM869.52 227.624C869.52 231.345 869.074 233.939 868.11 235.825C867.169 237.663 865.683 238.928 863.356 239.883L864.116 241.733C866.781 240.64 868.687 239.089 869.89 236.735C871.07 234.429 871.52 231.455 871.52 227.624H869.52ZM863.356 239.883C861.014 240.844 857.786 241.38 853.588 241.666C849.403 241.952 844.349 241.984 838.392 241.984V243.984C844.339 243.984 849.461 243.952 853.724 243.662C857.974 243.372 861.466 242.82 864.116 241.733L863.356 239.883ZM839.381 242.837C838.849 239.246 836.758 233.383 835.062 229.993L833.274 230.887C834.906 234.153 836.911 239.81 837.403 243.131L839.381 242.837ZM834.108 231.438C842.595 231.953 851.975 231.824 854.821 231.695L854.731 229.697C851.945 229.824 842.637 229.951 834.228 229.442L834.108 231.438ZM854.776 231.696C856.119 231.696 857.31 231.473 858.118 230.64C858.918 229.815 859.104 228.631 859.104 227.368H857.104C857.104 228.537 856.906 229.017 856.682 229.248C856.466 229.471 855.993 229.696 854.776 229.696V231.696ZM859.104 227.368V131.624H857.104V227.368H859.104ZM820.53 161.245L829.746 154.845L828.606 153.203L819.39 159.603L820.53 161.245ZM828.506 154.766C836.439 161.931 845.987 171.23 850.669 177.051L852.227 175.797C847.437 169.842 837.785 160.453 829.846 153.282L828.506 154.766ZM850.825 175.642L841.353 183.194L842.599 184.758L852.071 177.206L850.825 175.642ZM842.768 183.365C837.986 177.162 828.344 167.009 820.649 159.699L819.271 161.149C826.936 168.431 836.494 178.502 841.184 184.587L842.768 183.365ZM762.76 161.657L772.232 155.769L771.176 154.071L761.704 159.959L762.76 161.657ZM771.021 155.651C778.817 162.935 788.245 172.623 792.934 178.579L794.506 177.341C789.723 171.265 780.207 161.497 772.387 154.189L771.021 155.651ZM793.139 177.146L783.283 184.186L784.445 185.814L794.301 178.774L793.139 177.146ZM784.67 184.408C780.02 178.08 770.636 167.541 762.927 160.089L761.537 161.527C769.188 168.923 778.492 179.376 783.058 185.592L784.67 184.408ZM815.911 208.814C824.772 204.576 838.364 197.267 851.417 190.101L850.455 188.347C837.396 195.517 823.852 202.8 815.049 207.01L815.911 208.814ZM849.977 189.507L852.921 199.491L854.839 198.925L851.895 188.941L849.977 189.507ZM853.341 198.366C842.347 205.397 830.454 212.558 820.985 218.188L822.007 219.908C831.482 214.274 843.397 207.099 854.419 200.05L853.341 198.366ZM822.376 218.573L816.36 207.437L814.6 208.387L820.616 219.523L822.376 218.573ZM913.912 157.48V156.48H912.912V157.48H913.912ZM945.144 157.48H946.144V156.48H945.144V157.48ZM945.144 167.72V168.72H946.144V167.72H945.144ZM913.912 167.72H912.912V168.72H913.912V167.72ZM906.872 179.752V178.752H905.872V179.752H906.872ZM950.52 179.752H951.52V178.752H950.52V179.752ZM950.52 190.12V191.12H951.52V190.12H950.52ZM906.872 190.12H905.872V191.12H906.872V190.12ZM907.512 197.16L907.269 196.19L906.287 196.435L906.545 197.414L907.512 197.16ZM915.704 195.112L916.667 194.842L916.404 193.906L915.461 194.142L915.704 195.112ZM920.568 218.024L920.827 218.99L921.668 218.764L921.56 217.9L920.568 218.024ZM911.992 220.328L910.997 220.43L911.116 221.599L912.251 221.294L911.992 220.328ZM904.696 228.904L904.551 227.915L903.476 228.072L903.722 229.131L904.696 228.904ZM951.16 221.352L952.158 221.286L952.085 220.18L950.992 220.366L951.16 221.352ZM951.8 231.08L951.999 232.06L952.855 231.886L952.798 231.014L951.8 231.08ZM907.256 239.912L906.282 240.139L906.501 241.081L907.45 240.893L907.256 239.912ZM943.864 194.088L944.125 193.123L943.025 192.826L942.873 193.955L943.864 194.088ZM951.928 196.264L952.893 196.526L953.155 195.559L952.189 195.299L951.928 196.264ZM945.784 218.792L945.485 219.746L946.428 220.042L946.735 219.102L945.784 218.792ZM939.256 216.744L938.291 216.483L938.039 217.41L938.957 217.698L939.256 216.744ZM925.048 161.704V160.704H924.048V161.704H925.048ZM935.032 161.704H936.032V160.704H935.032V161.704ZM935.032 230.44L935.221 231.422L936.032 231.266V230.44H935.032ZM925.048 232.36H924.048V233.571L925.237 233.342L925.048 232.36ZM927.992 124.84L928.328 123.898L927.472 123.593L927.086 124.416L927.992 124.84ZM937.336 128.168L938.243 128.59L938.706 127.594L937.672 127.226L937.336 128.168ZM907.256 167.72L906.268 167.876L906.541 169.605L907.892 168.492L907.256 167.72ZM903.032 156.072L902.414 155.286L901.749 155.809L902.154 156.551L903.032 156.072ZM926.2 136.104L925.479 135.411L924.788 136.129L925.505 136.823L926.2 136.104ZM932.728 129.32L933.411 128.589L932.691 127.917L932.007 128.627L932.728 129.32ZM956.92 152.872L957.673 153.53L958.254 152.864L957.666 152.206L956.92 152.872ZM949.88 160.936L949.093 161.553L949.839 162.504L950.633 161.594L949.88 160.936ZM1013.37 186.408L1014.01 185.644L1013.18 184.945L1012.55 185.827L1013.37 186.408ZM1021.56 193.32L1022.29 194.002L1023.01 193.234L1022.2 192.556L1021.56 193.32ZM1004.54 209.576L1003.84 210.297L1004.48 210.905L1005.16 210.357L1004.54 209.576ZM998.008 203.304L997.342 202.558L996.536 203.277L997.315 204.025L998.008 203.304ZM955 192.424L954.413 191.615L953.501 192.276L954.266 193.103L955 192.424ZM962.936 186.664L963.634 185.948L963.03 185.36L962.349 185.855L962.936 186.664ZM977.016 202.664L977.622 203.46L978.374 202.887L977.844 202.104L977.016 202.664ZM968.44 209.192L967.583 209.706L968.157 210.664L969.046 209.988L968.44 209.192ZM970.616 135.976V134.976H969.616V135.976H970.616ZM1004.92 135.976H1005.92V134.976H1004.92V135.976ZM1004.92 145.448V146.448H1005.92V145.448H1004.92ZM970.616 145.448H969.616V146.448H970.616V145.448ZM966.648 155.304V154.304H965.648V155.304H966.648ZM1001.98 155.304H1002.98V154.304H1001.98V155.304ZM1001.98 164.648V165.648H1002.98V164.648H1001.98ZM966.648 164.648H965.648V165.648H966.648V164.648ZM952.312 172.456V171.456H951.312V172.456H952.312ZM1023.61 172.456H1024.61V171.456H1023.61V172.456ZM1023.61 183.208V184.208H1024.61V183.208H1023.61ZM952.312 183.208H951.312V184.208H952.312V183.208ZM981.88 178.856V177.856H980.88V178.856H981.88ZM993.016 178.856H994.016V177.856H993.016V178.856ZM988.536 242.088L988.942 243.002L988.963 242.993L988.983 242.982L988.536 242.088ZM972.536 243.88L971.544 244.009L971.658 244.88H972.536V243.88ZM969.208 233.384L969.262 232.385L967.544 232.293L968.314 233.831L969.208 233.384ZM949.88 226.344L949.371 225.483L948.448 226.03L949.057 226.912L949.88 226.344ZM974.456 209.96L975.383 209.584L974.909 208.418L973.88 209.142L974.456 209.96ZM978.04 218.792L978.666 219.572L979.246 219.105L978.967 218.416L978.04 218.792ZM956.152 235.432L955.329 236L955.913 236.846L956.742 236.239L956.152 235.432ZM969.336 124.84L969.449 123.846L968.544 123.744L968.357 124.634L969.336 124.84ZM980.6 126.12L981.577 126.335L981.815 125.252L980.713 125.126L980.6 126.12ZM970.744 164.648V165.648H971.486L971.701 164.938L970.744 164.648ZM958.968 164.648L958.021 164.328L957.575 165.648H958.968V164.648ZM1001.59 135.976V134.976H1000.59V135.976H1001.59ZM1002.87 135.976V136.976H1003L1003.13 136.942L1002.87 135.976ZM1004.79 135.464L1004.95 134.476L1004.74 134.443L1004.53 134.498L1004.79 135.464ZM1012.98 136.744L1013.97 136.902L1014.13 135.911L1013.14 135.756L1012.98 136.744ZM1004.92 176.68L1004.79 177.672L1005.68 177.786L1005.89 176.915L1004.92 176.68ZM993.912 175.272L992.94 175.039L992.68 176.123L993.785 176.264L993.912 175.272ZM1001.59 137.384L1002.58 137.544L1002.59 137.464V137.384H1001.59ZM995.192 216.744L994.447 216.077L993.71 216.901L994.603 217.552L995.192 216.744ZM1001.72 209.448L1002.3 208.631L1001.57 208.117L1000.97 208.781L1001.72 209.448ZM1024.38 227.112L1025.15 227.744L1025.74 227.025L1025.06 226.387L1024.38 227.112ZM1017.59 235.432L1016.87 236.12L1017.65 236.945L1018.37 236.064L1017.59 235.432ZM913.912 158.48H945.144V156.48H913.912V158.48ZM944.144 157.48V167.72H946.144V157.48H944.144ZM945.144 166.72H913.912V168.72H945.144V166.72ZM914.912 167.72V157.48H912.912V167.72H914.912ZM906.872 180.752H950.52V178.752H906.872V180.752ZM949.52 179.752V190.12H951.52V179.752H949.52ZM950.52 189.12H906.872V191.12H950.52V189.12ZM907.872 190.12V179.752H905.872V190.12H907.872ZM907.755 198.13L915.947 196.082L915.461 194.142L907.269 196.19L907.755 198.13ZM914.741 195.382C916.78 202.646 918.816 212.067 919.576 218.148L921.56 217.9C920.784 211.693 918.724 202.17 916.667 194.842L914.741 195.382ZM920.309 217.058L911.733 219.362L912.251 221.294L920.827 218.99L920.309 217.058ZM912.987 220.226C912.34 213.887 910.407 204.233 908.479 196.906L906.545 197.414C908.457 204.679 910.364 214.225 910.997 220.43L912.987 220.226ZM904.841 229.893C916.246 228.228 934.048 225.282 951.328 222.338L950.992 220.366C933.712 223.31 915.93 226.252 904.551 227.915L904.841 229.893ZM950.162 221.418L950.802 231.146L952.798 231.014L952.158 221.286L950.162 221.418ZM951.601 230.1C935.86 233.299 919.356 236.498 907.062 238.931L907.45 240.893C919.732 238.462 936.252 235.261 951.999 232.06L951.601 230.1ZM908.23 239.685L905.67 228.677L903.722 229.131L906.282 240.139L908.23 239.685ZM943.603 195.053L951.667 197.229L952.189 195.299L944.125 193.123L943.603 195.053ZM950.963 196.002C948.9 203.607 946.743 212.625 944.833 218.482L946.735 219.102C948.665 213.183 950.86 204.025 952.893 196.526L950.963 196.002ZM946.083 217.838L939.555 215.79L938.957 217.698L945.485 219.746L946.083 217.838ZM940.221 217.005C941.896 210.823 943.953 200.924 944.855 194.221L942.873 193.955C941.983 200.564 939.944 210.377 938.291 216.483L940.221 217.005ZM925.048 162.704H935.032V160.704H925.048V162.704ZM934.032 161.704V230.44H936.032V161.704H934.032ZM934.843 229.458L924.859 231.378L925.237 233.342L935.221 231.422L934.843 229.458ZM926.048 232.36V161.704H924.048V232.36H926.048ZM927.656 125.782L937 129.11L937.672 127.226L928.328 123.898L927.656 125.782ZM936.429 127.746C929.576 142.469 918.145 157.45 906.62 166.948L907.892 168.492C919.663 158.79 931.272 143.563 938.243 128.59L936.429 127.746ZM908.244 167.564C908.036 166.245 907.333 163.958 906.516 161.7C905.695 159.429 904.715 157.068 903.91 155.593L902.154 156.551C902.885 157.892 903.825 160.139 904.636 162.38C905.451 164.634 906.092 166.763 906.268 167.876L908.244 167.564ZM903.65 156.858C913.363 149.217 923.194 137.449 928.898 125.264L927.086 124.416C921.526 136.295 911.901 147.823 902.414 155.286L903.65 156.858ZM926.921 136.797L933.449 130.013L932.007 128.627L925.479 135.411L926.921 136.797ZM932.045 130.051C939.873 137.365 950.837 147.565 956.174 153.538L957.666 152.206C952.251 146.147 941.199 135.867 933.411 128.589L932.045 130.051ZM956.167 152.214L949.127 160.278L950.633 161.594L957.673 153.53L956.167 152.214ZM950.667 160.319C945.497 153.727 934.821 143.056 926.895 135.385L925.505 136.823C933.451 144.512 944.023 155.089 949.093 161.553L950.667 160.319ZM1012.72 187.172L1020.92 194.084L1022.2 192.556L1014.01 185.644L1012.72 187.172ZM1020.83 192.638C1015.47 198.383 1008.98 204.743 1003.91 208.795L1005.16 210.357C1010.34 206.217 1016.9 199.777 1022.29 194.002L1020.83 192.638ZM1005.23 208.855L998.701 202.583L997.315 204.025L1003.84 210.297L1005.23 208.855ZM998.674 204.05C1003.45 199.786 1010.29 192.436 1014.18 186.989L1012.55 185.827C1008.76 191.132 1002.03 198.374 997.342 202.558L998.674 204.05ZM955.587 193.233L963.523 187.473L962.349 185.855L954.413 191.615L955.587 193.233ZM962.238 187.38C967.214 192.228 973.301 198.956 976.188 203.224L977.844 202.104C974.843 197.668 968.642 190.828 963.634 185.948L962.238 187.38ZM976.41 201.868L967.834 208.396L969.046 209.988L977.622 203.46L976.41 201.868ZM969.298 208.678C966.552 204.102 960.474 196.87 955.734 191.745L954.266 193.103C958.998 198.218 964.952 205.322 967.583 209.706L969.298 208.678ZM970.616 136.976H1004.92V134.976H970.616V136.976ZM1003.92 135.976V145.448H1005.92V135.976H1003.92ZM1004.92 144.448H970.616V146.448H1004.92V144.448ZM971.616 145.448V135.976H969.616V145.448H971.616ZM966.648 156.304H1001.98V154.304H966.648V156.304ZM1000.98 155.304V164.648H1002.98V155.304H1000.98ZM1001.98 163.648H966.648V165.648H1001.98V163.648ZM967.648 164.648V155.304H965.648V164.648H967.648ZM952.312 173.456H1023.61V171.456H952.312V173.456ZM1022.61 172.456V183.208H1024.61V172.456H1022.61ZM1023.61 182.208H952.312V184.208H1023.61V182.208ZM953.312 183.208V172.456H951.312V183.208H953.312ZM981.88 179.856H993.016V177.856H981.88V179.856ZM992.016 178.856V231.848H994.016V178.856H992.016ZM992.016 231.848C992.016 234.572 991.79 236.522 991.194 237.982C990.622 239.384 989.685 240.395 988.089 241.194L988.983 242.982C990.971 241.989 992.274 240.632 993.046 238.738C993.794 236.902 994.016 234.628 994.016 231.848H992.016ZM988.13 241.174C986.544 241.879 984.491 242.313 981.88 242.565C979.275 242.816 976.18 242.88 972.536 242.88V244.88C976.188 244.88 979.365 244.816 982.072 244.555C984.773 244.295 987.072 243.833 988.942 243.002L988.13 241.174ZM973.528 243.751C973.128 240.684 971.682 236.097 970.102 232.937L968.314 233.831C969.806 236.815 971.176 241.188 971.544 244.009L973.528 243.751ZM969.154 234.383C973.926 234.64 978.588 234.512 979.96 234.512V232.512C978.516 232.512 973.962 232.64 969.262 232.385L969.154 234.383ZM979.96 234.512C980.728 234.512 981.565 234.437 982.16 233.907C982.799 233.34 982.88 232.516 982.88 231.848H980.88C980.88 232.46 980.769 232.468 980.832 232.413C980.853 232.394 980.835 232.424 980.691 232.456C980.541 232.489 980.312 232.512 979.96 232.512V234.512ZM982.88 231.848V178.856H980.88V231.848H982.88ZM950.389 227.205C956.699 223.47 965.944 217.177 975.032 210.778L973.88 209.142C964.792 215.543 955.605 221.794 949.371 225.483L950.389 227.205ZM973.529 210.336L977.113 219.168L978.967 218.416L975.383 209.584L973.529 210.336ZM977.414 218.012C970.263 223.758 962.214 229.764 955.562 234.625L956.742 236.239C963.402 231.372 971.481 225.346 978.666 219.572L977.414 218.012ZM956.975 234.864L950.703 225.776L949.057 226.912L955.329 236L956.975 234.864ZM969.223 125.834L980.487 127.114L980.713 125.126L969.449 123.846L969.223 125.834ZM979.623 125.905C976.811 138.686 972.722 154.661 969.787 164.358L971.701 164.938C974.654 155.179 978.757 139.154 981.577 126.335L979.623 125.905ZM970.744 163.648H958.968V165.648H970.744V163.648ZM959.915 164.968C963.389 154.675 967.623 137.864 970.315 125.046L968.357 124.634C965.673 137.416 961.459 154.141 958.021 164.328L959.915 164.968ZM1001.59 136.976H1002.87V134.976H1001.59V136.976ZM1003.13 136.942L1005.05 136.43L1004.53 134.498L1002.61 135.01L1003.13 136.942ZM1004.64 136.452L1012.83 137.732L1013.14 135.756L1004.95 134.476L1004.64 136.452ZM1012 136.586C1010.08 148.59 1006.89 164.308 1003.95 176.445L1005.89 176.915C1008.84 164.732 1012.05 148.962 1013.97 136.902L1012 136.586ZM1005.05 175.688L994.039 174.28L993.785 176.264L1004.79 177.672L1005.05 175.688ZM994.884 175.505C997.834 163.193 1001.17 146.273 1002.58 137.544L1000.6 137.224C999.201 145.903 995.878 162.775 992.94 175.039L994.884 175.505ZM1002.59 137.384V135.976H1000.59V137.384H1002.59ZM995.937 217.411L1002.47 210.115L1000.97 208.781L994.447 216.077L995.937 217.411ZM1001.14 210.265C1008.57 215.514 1018.75 223.157 1023.69 227.837L1025.06 226.387C1020.01 221.595 1009.72 213.878 1002.3 208.631L1001.14 210.265ZM1023.6 226.48L1016.82 234.8L1018.37 236.064L1025.15 227.744L1023.6 226.48ZM1018.32 234.744C1013.52 229.683 1003.34 221.448 995.781 215.936L994.603 217.552C1002.14 223.048 1012.2 231.197 1016.87 236.12L1018.32 234.744Z" fill="black" mask="url(#path-6-outside-2_71_198)"/>
<path d="M459 252.2V251.2H458V252.2H459ZM1028.6 252.2H1029.6V251.2H1028.6V252.2ZM1028.6 258.6V259.6H1029.6V258.6H1028.6ZM459 258.6H458V259.6H459V258.6ZM459 253.2H1028.6V251.2H459V253.2ZM1027.6 252.2V258.6H1029.6V252.2H1027.6ZM1028.6 257.6H459V259.6H1028.6V257.6ZM460 258.6V252.2H458V258.6H460Z" fill="black" mask="url(#path-6-outside-2_71_198)"/>
</svg>
