<svg width="188" height="224" viewBox="0 0 188 224" fill="none" xmlns="http://www.w3.org/2000/svg">
<path d="M35.7433 23.5652L94.5 0.53703L153.257 23.5652L177.579 79.125L153.257 134.685L94.5 157.713L35.7433 134.685L11.4208 79.125L35.7433 23.5652Z" fill="white" stroke="black"/>
<path d="M73.731 135.29C77.4103 140.278 81.321 141.872 89.9735 143.625L92.1106 129.092L79.9288 115.842L93.6066 119.475V113.063L79.9288 107.079L77.7916 97.4622L87.1951 100.454L93.6066 97.4622V90.4095L89.9735 93.829L87.1951 91.6918L73.731 87.2038L66.6783 70.3201L63.0451 56.856L66.6783 52.1542H57.7022L44.2381 38.4763L48.5124 34.4157H44.2381V31.8511L48.5124 22.875L44.2381 25.867L39.75 35.9117L41.4597 42.3232L53.6416 56.856L59.6257 72.8847L66.6783 89.1272L73.731 95.9661H70.7389V100.454L73.731 104.301L70.7389 107.079L73.731 111.354V121.398L70.7389 124.818L73.731 135.29Z" fill="black" stroke="black" stroke-width="1.875"/>
<path d="M115.192 135.29C111.513 140.278 107.602 141.872 98.9495 143.625L96.8124 129.092L108.994 115.842L95.3163 119.475V113.063L108.994 107.079L111.131 97.4622L101.728 100.454L95.3163 97.4622V90.4095L98.9495 93.829L101.728 91.6918L115.192 87.2038L122.245 70.3201L125.878 56.856L122.245 52.1542H131.221L144.685 38.4763L140.411 34.4157H144.685V31.8511L140.411 22.875L144.685 25.867L149.173 35.9117L147.463 42.3232L135.281 56.856L129.297 72.8847L122.245 89.1272L115.192 95.9661H118.184V100.454L115.192 104.301L118.184 107.079L115.192 111.354V121.398L118.184 124.818L115.192 135.29Z" fill="black" stroke="black" stroke-width="1.875"/>
<path d="M1.62 218.875V206.455H5.68688C8.25188 206.455 10.1756 207.366 10.1756 210.066C10.1756 212.665 8.25188 213.863 5.68688 213.863H3.59438V218.875H1.62ZM3.59438 212.294H5.4675C7.25625 212.294 8.235 211.551 8.235 210.066C8.235 208.564 7.25625 208.041 5.4675 208.041H3.59438V212.294ZM8.42063 218.875L5.31563 213.357L6.76688 212.209L10.6144 218.875H8.42063ZM12.6942 218.875V206.455H20.0517V208.109H14.6686V211.551H19.208V213.222H14.6686V217.221H20.2373V218.875H12.6942ZM27.6558 219.111C24.5508 219.111 22.1376 216.782 22.1376 212.699C22.1376 208.649 24.6183 206.236 27.757 206.236C29.3095 206.236 30.5076 206.978 31.267 207.788L30.2208 209.054C29.5795 208.396 28.8033 207.94 27.7908 207.94C25.6476 207.94 24.1626 209.729 24.1626 212.631C24.1626 215.584 25.5464 217.39 27.7401 217.39C28.8708 217.39 29.7483 216.884 30.4739 216.074L31.537 217.306C30.5414 218.47 29.2758 219.111 27.6558 219.111ZM37.8047 219.111C34.5985 219.111 32.3879 216.631 32.3879 212.614C32.3879 208.615 34.5985 206.236 37.8047 206.236C40.9941 206.236 43.2047 208.615 43.2047 212.614C43.2047 216.631 40.9941 219.111 37.8047 219.111ZM37.8047 217.39C39.8635 217.39 41.1966 215.517 41.1966 212.614C41.1966 209.712 39.8635 207.94 37.8047 207.94C35.7291 207.94 34.4129 209.712 34.4129 212.614C34.4129 215.517 35.7291 217.39 37.8047 217.39ZM45.785 218.875V206.455H49.8519C52.4169 206.455 54.3407 207.366 54.3407 210.066C54.3407 212.665 52.4169 213.863 49.8519 213.863H47.7594V218.875H45.785ZM47.7594 212.294H49.6325C51.4213 212.294 52.4 211.551 52.4 210.066C52.4 208.564 51.4213 208.041 49.6325 208.041H47.7594V212.294ZM52.5857 218.875L49.4807 213.357L50.9319 212.209L54.7794 218.875H52.5857ZM56.8593 218.875V206.455H60.0993C63.913 206.455 66.073 208.564 66.073 212.614C66.073 216.664 63.913 218.875 60.2005 218.875H56.8593ZM58.8336 217.272H59.9474C62.6136 217.272 64.0649 215.702 64.0649 212.614C64.0649 209.526 62.6136 208.041 59.9474 208.041H58.8336V217.272ZM68.6586 218.875V206.455H70.6329V218.875H68.6586ZM73.8661 218.875V206.455H75.8742L80.0086 213.762L81.308 216.377H81.3923C81.2742 215.112 81.1223 213.593 81.1223 212.26V206.455H82.9955V218.875H80.9705L76.8698 211.568L75.5705 208.953H75.4861C75.5705 210.252 75.7392 211.669 75.7392 213.036V218.875H73.8661ZM91.338 219.111C88.0305 219.111 85.5837 216.782 85.5837 212.699C85.5837 208.649 88.098 206.236 91.3887 206.236C93.1437 206.236 94.3249 207.012 95.0843 207.788L94.0212 209.054C93.3968 208.429 92.6374 207.94 91.4562 207.94C89.1274 207.94 87.6087 209.729 87.6087 212.631C87.6087 215.584 88.9755 217.39 91.5405 217.39C92.2999 217.39 93.0593 217.171 93.4812 216.782V213.88H91.0343V212.26H95.2699V217.643C94.443 218.487 93.0255 219.111 91.338 219.111ZM106.623 219.111C103.417 219.111 101.206 216.631 101.206 212.614C101.206 208.615 103.417 206.236 106.623 206.236C109.812 206.236 112.023 208.615 112.023 212.614C112.023 216.631 109.812 219.111 106.623 219.111ZM106.623 217.39C108.682 217.39 110.015 215.517 110.015 212.614C110.015 209.712 108.682 207.94 106.623 207.94C104.547 207.94 103.231 209.712 103.231 212.614C103.231 215.517 104.547 217.39 106.623 217.39ZM114.603 218.875V206.455H121.978V208.109H116.578V211.889H121.168V213.542H116.578V218.875H114.603ZM127.952 218.875V206.455H131.816C134.347 206.455 136.187 207.265 136.187 209.509C136.187 210.707 135.546 211.821 134.432 212.209V212.277C135.849 212.581 136.862 213.559 136.862 215.23C136.862 217.694 134.871 218.875 132.12 218.875H127.952ZM129.926 211.636H131.597C133.487 211.636 134.263 210.927 134.263 209.779C134.263 208.48 133.386 207.991 131.647 207.991H129.926V211.636ZM129.926 217.339H131.901C133.824 217.339 134.938 216.648 134.938 215.146C134.938 213.745 133.875 213.121 131.901 213.121H129.926V217.339ZM139.207 218.875V206.455H146.565V208.109H141.182V211.551H145.721V213.222H141.182V217.221H146.75V218.875H139.207ZM149.326 218.875V206.455H156.683V208.109H151.3V211.551H155.839V213.222H151.3V217.221H156.869V218.875H149.326ZM161.975 218.875V208.109H158.33V206.455H167.595V208.109H163.95V218.875H161.975ZM169.76 218.875V206.455H171.735V217.221H177V218.875H169.76ZM179.17 218.875V206.455H186.528V208.109H181.144V211.551H185.684V213.222H181.144V217.221H186.713V218.875H179.17Z" fill="white"/>
<path d="M21.825 168.062H25.575V199.15H21.825V168.062ZM9.4125 166.637H38.025V189.437H34.2375V170.05H13.05V189.512H9.4125V166.637ZM11.1375 175.45H35.9625V178.787H11.1375V175.45ZM11.1375 184.075H35.925V187.525H11.1375V184.075ZM61.0125 169.187V171.962H80.025V169.187H61.0125ZM57.7125 166.6H83.5125V174.55H57.7125V166.6ZM68.625 164.275H72.15V178.787H68.625V164.275ZM55.2375 177.212C61.875 177.25 72.6 177.137 82.65 177.025L82.5 179.537C72.75 179.875 62.3625 180.1 55.425 180.175L55.2375 177.212ZM76.5375 175.375L78.975 173.95C81.675 175.675 84.975 178.187 86.7 179.8L84.1875 181.487C82.5 179.762 79.1625 177.1 76.5375 175.375ZM57.1875 185.462V188.762H66.3V185.462H57.1875ZM54.525 182.837H69.075V191.425H54.525V182.837ZM60.3 180.325H63.225V196.45H60.3V180.325ZM52.9875 194.95C56.775 194.8 62.3625 194.575 67.9125 194.312L67.875 197.088C62.5875 197.425 57.1875 197.763 53.2125 197.988L52.9875 194.95ZM64.95 192.587L67.3875 191.575C68.7 193.6 70.0875 196.3 70.65 198.1L68.0625 199.225C67.5375 197.425 66.1875 194.612 64.95 192.587ZM73.8 185.462V188.725H83.4V185.462H73.8ZM71.1375 182.8H86.2125V191.387H71.1375V182.8ZM77.0625 180.325H80.0625V196.45H77.0625V180.325ZM70.3125 194.95C74.1 194.837 79.8 194.575 85.3875 194.312L85.35 197.125C80.0625 197.5 74.625 197.838 70.6125 198.063L70.3125 194.95ZM81.9375 192.587L84.45 191.425C85.9875 193.45 87.5625 196.113 88.3125 197.913L85.65 199.225C84.975 197.388 83.4 194.612 81.9375 192.587ZM100.95 166.3H114.563V169.712H100.95V166.3ZM112.2 166.3H115.725V194.425C115.725 196.6 115.238 197.613 113.85 198.213C112.463 198.775 110.138 198.85 106.875 198.85C106.725 197.875 106.163 196.225 105.638 195.25C108 195.362 110.55 195.362 111.263 195.325C111.975 195.325 112.2 195.1 112.2 194.425V166.3ZM99.8625 189.4C102.45 188.125 106.388 185.95 110.213 183.775L111.188 186.737C107.813 188.8 104.137 190.975 101.213 192.625L99.8625 189.4ZM117.713 166.3H131.063V169.712H117.713V166.3ZM129.3 166.3H132.938V194.425C132.938 196.638 132.413 197.688 130.95 198.288C129.488 198.888 127.013 198.925 123.525 198.925C123.375 197.913 122.775 196.225 122.288 195.25C124.763 195.4 127.5 195.362 128.325 195.325C129.075 195.325 129.3 195.062 129.3 194.35V166.3ZM118.125 174.737L120.825 172.862C123.15 174.962 125.963 177.7 127.35 179.425L124.575 181.637C123.188 179.837 120.375 176.875 118.125 174.737ZM101.213 174.85L103.988 173.125C106.275 175.262 109.05 178.112 110.438 179.875L107.55 181.937C106.2 180.1 103.463 177.025 101.213 174.85ZM116.813 188.65C119.4 187.412 123.375 185.275 127.2 183.175L128.063 186.1C124.838 188.162 121.35 190.262 118.575 191.912L116.813 188.65ZM149.4 173.875H158.55V176.875H149.4V173.875ZM147.338 180.4H160.125V183.437H147.338V180.4ZM147.525 185.5L149.925 184.9C150.525 187.037 151.125 189.812 151.35 191.612L148.838 192.287C148.65 190.45 148.088 187.637 147.525 185.5ZM146.7 194.8C150.038 194.312 155.25 193.45 160.313 192.587L160.5 195.437C155.888 196.375 151.05 197.313 147.45 198.025L146.7 194.8ZM158.175 184.6L160.538 185.237C159.938 187.45 159.3 190.112 158.738 191.837L156.825 191.237C157.313 189.437 157.913 186.55 158.175 184.6ZM152.663 175.112H155.588V195.25L152.663 195.812V175.112ZM153.525 164.312L156.263 165.287C154.238 169.637 150.863 174.062 147.45 176.875C147.338 176.162 146.663 174.287 146.213 173.462C149.025 171.25 151.875 167.837 153.525 164.312ZM153 167.612L154.913 165.625C157.2 167.762 160.425 170.762 162 172.525L159.938 174.887C158.438 172.975 155.325 169.862 153 167.612ZM178.538 182.35L180.938 184.375C179.363 186.062 177.45 187.937 175.95 189.137L174.038 187.3C175.425 186.062 177.413 183.925 178.538 182.35ZM161.438 184.112L163.763 182.425C165.225 183.85 167.025 185.837 167.888 187.112L165.375 189.025C164.588 187.712 162.825 185.612 161.438 184.112ZM166.013 167.575H176.063V170.35H166.013V167.575ZM164.85 173.237H175.2V175.975H164.85V173.237ZM160.65 178.262H181.538V181.412H160.65V178.262ZM169.313 180.137H172.575V195.662C172.575 197.275 172.313 198.138 171.263 198.663C170.25 199.113 168.713 199.188 166.575 199.188C166.463 198.325 166.05 197.013 165.6 196.113C166.988 196.188 168.338 196.15 168.75 196.15C169.2 196.15 169.313 196.038 169.313 195.662V180.137ZM159.938 194.05C161.775 192.962 164.475 191.125 167.138 189.25L168.188 191.837C166.088 193.525 163.725 195.287 161.775 196.713L159.938 194.05ZM165.638 164.312L168.938 164.687C168.113 168.437 166.913 173.125 166.05 175.975H162.6C163.613 172.975 164.85 168.062 165.638 164.312ZM175.088 167.575H175.463L176.025 167.425L178.425 167.8C177.863 171.325 176.925 175.937 176.063 179.5L172.838 179.087C173.7 175.487 174.675 170.537 175.088 167.987V167.575ZM173.213 191.237L175.125 189.1C177.3 190.637 180.3 192.887 181.763 194.275L179.775 196.713C178.388 195.25 175.425 192.85 173.213 191.237Z" fill="white"/>
<path d="M4.875 201.625H183V203.5H4.875V201.625Z" fill="white"/>
</svg>
