<svg width="168" height="159" viewBox="0 0 168 159" fill="none" xmlns="http://www.w3.org/2000/svg">
<path d="M24.8683 23.5652L83.625 0.53703L142.382 23.5652L166.704 79.125L142.382 134.685L83.625 157.713L24.8683 134.685L0.545813 79.125L24.8683 23.5652Z" fill="white" stroke="black"/>
<path d="M55.579 136.34C55.1927 136.191 54.8551 135.849 54.5664 135.313C54.2308 134.682 54.0246 133.841 53.9478 132.789C53.9384 132.663 53.9236 132.51 53.9035 132.328C53.8911 132.143 53.8705 131.93 53.8418 131.687L53.6991 131.632C51.9624 133.252 50.4615 133.818 49.1962 133.331C48.7539 133.16 48.459 132.883 48.3115 132.498C48.164 132.113 48.1776 131.694 48.3523 131.24C48.5357 130.765 48.8375 130.399 49.2577 130.143C49.6998 129.863 50.1588 129.815 50.6347 129.998C50.7691 130.05 50.88 130.138 50.9673 130.261C51.0603 130.387 51.0831 130.512 51.0356 130.635C51.0248 130.663 51.0089 130.679 50.9877 130.684L50.9685 130.484C50.9569 130.363 50.856 130.267 50.6656 130.193C50.2569 130.036 49.8401 130.116 49.4151 130.435C49.0454 130.71 48.7774 131.063 48.6113 131.495C48.4667 131.87 48.437 132.205 48.5221 132.502C48.6167 132.841 48.8431 133.079 49.2014 133.217C49.8956 133.484 50.7504 133.277 51.7658 132.594C52.0442 132.406 52.3075 132.215 52.5558 132.021C52.8118 131.824 53.0499 131.623 53.2702 131.419C53.1927 131.37 53.1162 131.318 53.0409 131.263C52.9733 131.205 52.9057 131.146 52.8381 131.088C52.3019 131.595 51.7397 132.028 51.1514 132.387C50.3068 132.91 49.6633 133.086 49.221 132.916C49.165 132.894 49.1446 132.864 49.1597 132.825C49.1705 132.797 49.206 132.788 49.2663 132.798C49.3322 132.811 49.4388 132.826 49.5861 132.844C50.044 132.841 50.6145 132.62 51.2976 132.182C51.5462 132.021 51.7919 131.843 52.0346 131.647C52.2828 131.453 52.5281 131.242 52.7703 131.014C52.444 130.676 52.3229 130.398 52.407 130.179C52.4502 130.067 52.545 129.988 52.6915 129.942C52.8436 129.898 52.9756 129.897 53.0876 129.94C53.2276 129.994 53.3589 130.112 53.4815 130.295L53.8424 129.884C53.7826 129.655 53.7884 129.448 53.8596 129.263C53.9437 129.045 54.0418 128.958 54.1537 129.001C54.2321 129.031 54.2708 129.139 54.2698 129.325C54.444 129.09 54.5982 128.857 54.7323 128.626C54.8742 128.391 55.0016 128.16 55.1146 127.934C54.5629 127.747 54.0066 127.639 53.4458 127.609C53.118 127.592 52.8134 127.606 52.5321 127.652C52.2529 127.693 51.9987 127.768 51.7695 127.879C51.4592 128.017 51.2502 128.226 51.1423 128.506C50.9632 128.97 51.0868 129.401 51.513 129.796C51.5479 129.823 51.5901 129.855 51.6396 129.893C51.6891 129.932 51.7498 129.974 51.8217 130.021C51.8532 130.04 51.8646 130.06 51.8559 130.083C51.8473 130.105 51.8206 130.108 51.7758 130.091L51.759 130.084C51.5854 130.017 51.4326 129.913 51.3004 129.772C51.1683 129.631 51.0486 129.466 50.9415 129.277C50.7225 128.878 50.6799 128.504 50.8136 128.157C50.9085 127.911 51.0967 127.723 51.3781 127.594C51.859 127.38 52.4938 127.31 53.2825 127.382C53.9105 127.438 54.5451 127.576 55.1864 127.798L55.4065 127.226C55.4238 127.182 55.4492 127.166 55.4828 127.179C55.4996 127.185 55.5026 127.202 55.4918 127.23C55.4572 127.404 55.3901 127.603 55.2904 127.828L55.6935 127.983C55.9287 128.074 56.1511 128.173 56.3608 128.279C56.5706 128.386 56.7704 128.501 56.9603 128.626C57.1962 128.781 57.4044 128.942 57.5848 129.108C57.7652 129.274 57.9184 129.452 58.0445 129.642C58.3716 130.128 58.4488 130.595 58.2762 131.043C58.1079 131.479 57.7414 131.788 57.1765 131.969C56.737 132.108 56.239 132.158 55.6825 132.117C55.4249 132.101 55.1598 132.063 54.8871 132.003C54.6145 131.943 54.336 131.865 54.0518 131.768L54.5933 133.742C54.7205 134.196 54.8474 134.576 54.9738 134.882C55.1003 135.188 55.2168 135.419 55.3236 135.576C55.5426 135.892 55.7529 136.089 55.9545 136.167C56.2736 136.289 56.5152 136.138 56.6791 135.713C56.8258 135.332 56.8425 134.93 56.729 134.507C56.723 134.473 56.7211 134.453 56.7232 134.447C56.7297 134.43 56.7413 134.425 56.7581 134.431C56.7861 134.442 56.8094 134.474 56.8279 134.526C56.9771 134.956 56.9794 135.359 56.8348 135.734C56.7313 136.003 56.5638 136.196 56.3324 136.312C56.0988 136.434 55.8477 136.444 55.579 136.34ZM53.9783 131.508C54.583 131.741 55.1536 131.887 55.6903 131.946C56.1444 131.986 56.5439 131.95 56.889 131.839C57.3229 131.698 57.6111 131.442 57.7535 131.073C57.9131 130.658 57.8624 130.214 57.6012 129.741C57.3835 129.355 57.0716 129.013 56.6655 128.715C56.4765 128.571 56.2744 128.445 56.059 128.336C55.8459 128.222 55.6245 128.121 55.395 128.032L55.227 127.968C55.1295 128.187 55.0109 128.412 54.8712 128.641C54.7336 128.864 54.5778 129.093 54.4036 129.328C54.5225 129.304 54.6099 129.302 54.6659 129.323C54.7219 129.345 54.738 129.387 54.7143 129.448C54.6712 129.56 54.5628 129.666 54.3891 129.767C54.3051 129.818 54.2225 129.857 54.1415 129.883C54.0661 129.912 53.994 129.933 53.925 129.945C53.8647 130.018 53.8015 130.09 53.7356 130.161C53.6752 130.234 53.6082 130.308 53.5345 130.382C53.5766 130.457 53.6194 130.537 53.6629 130.625C53.7063 130.712 53.7466 130.808 53.7835 130.912C54.1331 130.539 54.4634 130.133 54.7742 129.693C54.8212 129.621 54.8786 129.531 54.9463 129.422C55.0218 129.309 55.1093 129.182 55.2089 129.041C55.3262 128.887 55.4744 128.844 55.6535 128.913C55.7599 128.954 55.7969 129.017 55.7646 129.101C55.7538 129.129 55.7298 129.174 55.6927 129.237C55.6557 129.3 55.6054 129.38 55.542 129.478C55.3178 129.809 55.0701 130.135 54.799 130.455C54.5356 130.771 54.2504 131.086 53.9435 131.398L53.9783 131.508ZM52.919 130.878C53.0005 130.8 53.0802 130.719 53.1582 130.633C53.2419 130.549 53.3227 130.465 53.4007 130.379C53.2815 130.205 53.1631 130.095 53.0455 130.049C52.8832 129.987 52.7707 130.037 52.7081 130.199C52.6283 130.406 52.6986 130.633 52.919 130.878ZM53.4253 131.266C53.4728 131.227 53.5174 131.186 53.5592 131.144C53.601 131.103 53.6428 131.061 53.6846 131.019C53.6218 130.815 53.5438 130.634 53.4504 130.475C53.3745 130.556 53.2987 130.636 53.2228 130.716C53.1469 130.796 53.0683 130.875 52.9868 130.953C53.1086 131.07 53.2548 131.175 53.4253 131.266ZM57.1957 135.14C56.7982 134.987 56.6987 134.653 56.8972 134.138C56.9274 134.059 56.9625 133.976 57.0026 133.889C57.0505 133.798 57.1061 133.704 57.1695 133.606C57.1536 133.581 57.1398 133.55 57.1282 133.513C57.1188 133.471 57.1115 133.423 57.1064 133.37C57.1266 133.384 57.1447 133.404 57.1606 133.429C57.1843 133.451 57.2136 133.475 57.2484 133.502C57.4179 133.245 57.6926 133.033 58.0727 132.864C58.4859 132.676 58.8241 132.633 59.0873 132.734C59.1488 132.758 59.1764 132.778 59.1699 132.795C59.1656 132.806 59.1156 132.819 59.02 132.834C58.7697 132.866 58.5069 132.964 58.2315 133.128C57.954 133.298 57.729 133.481 57.5565 133.678L57.5669 133.701C57.8356 133.805 58.1652 133.784 58.5555 133.639C58.9459 133.493 59.1929 133.286 59.2964 133.018C59.3288 132.934 59.3355 132.849 59.3166 132.765C59.2977 132.68 59.2491 132.623 59.1707 132.593C59.0587 132.55 58.9155 132.546 58.741 132.582C58.5687 132.612 58.4741 132.624 58.4573 132.617C58.4461 132.613 58.4416 132.608 58.4438 132.602C58.4697 132.535 58.5957 132.5 58.8218 132.497C59.0157 132.495 59.1602 132.512 59.2554 132.548C59.3841 132.598 59.4765 132.675 59.5324 132.781C59.594 132.888 59.5999 133.006 59.5503 133.135C59.436 133.431 59.1317 133.645 58.6375 133.776C58.1955 133.889 57.8067 133.897 57.4712 133.8C57.3746 133.917 57.3026 134.037 57.2551 134.16C57.076 134.625 57.1545 134.922 57.4904 135.051C57.7479 135.15 58.0598 135.142 58.426 135.026C58.7324 134.932 59.0146 134.783 59.2728 134.581C59.3534 134.522 59.4105 134.499 59.4441 134.512C59.4497 134.514 59.4503 134.52 59.446 134.532C59.4374 134.554 59.3956 134.596 59.3206 134.657C59.0413 134.864 58.7007 135.022 58.2987 135.131C57.8601 135.252 57.4924 135.255 57.1957 135.14ZM61.3786 134.621C61.3058 134.592 61.2856 134.536 61.318 134.452C61.3309 134.419 61.3769 134.35 61.4558 134.245C61.5402 134.143 61.5976 134.052 61.6278 133.974C61.7249 133.722 61.6727 133.557 61.4711 133.479C61.3647 133.438 61.2198 133.431 61.0363 133.457C60.8493 133.475 60.753 133.482 60.7474 133.48C60.725 133.472 60.717 133.459 60.7235 133.442C60.7537 133.364 60.8909 133.333 61.1352 133.35C61.3247 133.359 61.4783 133.386 61.5958 133.431C61.8982 133.548 61.9792 133.788 61.839 134.152C61.8002 134.252 61.7385 134.354 61.654 134.457C61.5376 134.592 61.4458 134.646 61.3786 134.621ZM59.341 136.054C58.9547 135.905 58.8457 135.612 59.0139 135.175C59.1822 134.739 59.4976 134.346 59.96 133.997C60.491 133.603 60.958 133.484 61.3612 133.64C61.4227 133.663 61.4492 133.686 61.4406 133.709C61.4341 133.726 61.3619 133.746 61.2241 133.77C60.885 133.832 60.5433 133.993 60.199 134.253C59.8292 134.528 59.5882 134.811 59.476 135.103C59.3012 135.556 59.3846 135.849 59.7261 135.98C59.9389 136.062 60.2064 136.069 60.5287 136C60.6687 135.971 60.8014 135.935 60.9268 135.893C61.0599 135.848 61.184 135.793 61.2991 135.728C61.34 135.705 61.3898 135.676 61.4484 135.641C61.507 135.606 61.5727 135.56 61.6456 135.505C61.7283 135.44 61.7837 135.413 61.8117 135.424C61.8117 135.424 61.8151 135.432 61.822 135.447C61.8155 135.464 61.772 135.502 61.6914 135.561C61.5401 135.67 61.3703 135.768 61.182 135.856C60.9959 135.939 60.7895 136.007 60.5629 136.062C60.0674 136.179 59.6601 136.177 59.341 136.054ZM61.7287 136.771C61.5104 136.687 61.4551 136.505 61.563 136.225C61.6946 135.884 61.9582 135.583 62.3538 135.324C62.3484 135.071 62.3931 134.822 62.4881 134.575C62.5808 134.335 62.7093 134.143 62.8736 134.001C63.1886 133.717 63.4861 133.629 63.7661 133.737C64.1132 133.871 64.2004 134.245 64.0277 134.86C64.1655 134.92 64.2518 135.004 64.2866 135.114C64.3292 135.221 64.3225 135.347 64.2664 135.492C64.2232 135.604 64.1779 135.68 64.1305 135.72C64.0909 135.756 64.0598 135.769 64.0375 135.761C64.0151 135.752 64.0082 135.737 64.0168 135.714C64.0276 135.686 64.0433 135.654 64.064 135.617C64.0903 135.582 64.1143 135.536 64.1358 135.48C64.1661 135.402 64.1607 135.333 64.1198 135.272C64.0811 135.205 64.0197 135.156 63.9358 135.124C63.6054 135.781 63.2385 136.241 62.8351 136.503L63.0954 136.603C63.0054 136.62 62.9324 136.618 62.8764 136.596C62.8652 136.592 62.8495 136.583 62.8293 136.568C62.8146 136.556 62.8017 136.548 62.7905 136.544C62.7995 136.554 62.666 136.608 62.3898 136.708C62.1002 136.808 61.8799 136.829 61.7287 136.771ZM62.4818 135.267C63.0002 134.94 63.4686 134.793 63.8869 134.825C63.9604 134.3 63.8992 134 63.7033 133.925C63.5241 133.856 63.291 133.969 63.0039 134.263C62.8181 134.461 62.6745 134.692 62.5731 134.955C62.5321 135.062 62.5017 135.166 62.4818 135.267ZM62.5826 136.358C62.7644 136.286 62.9943 136.098 63.2724 135.794C63.5603 135.481 63.7378 135.237 63.8046 135.063C63.675 135.033 63.4376 135.073 63.0925 135.184C62.7551 135.292 62.5319 135.396 62.4229 135.496C62.3765 135.966 62.4297 136.254 62.5826 136.358ZM61.851 136.529C62.0078 136.589 62.235 136.542 62.5328 136.387C62.3567 136.293 62.2907 136.014 62.3349 135.548C62.0315 135.785 61.8464 135.99 61.7795 136.164C61.704 136.36 61.7278 136.482 61.851 136.529ZM63.9291 137.677C63.8899 137.662 63.846 137.626 63.7973 137.568C63.7508 137.505 63.7341 137.457 63.747 137.424L63.9352 137.236C64.1145 137.054 64.286 136.876 64.4498 136.701C64.6214 136.523 64.7762 136.338 64.9142 136.147C65.0435 135.978 65.1621 135.754 65.27 135.474C65.2316 135.523 65.1639 135.591 65.0669 135.675C64.97 135.76 64.8426 135.865 64.6849 135.991C64.5349 136.113 64.403 136.214 64.2892 136.292C64.1832 136.367 64.0959 136.426 64.0274 136.471C64.0252 136.476 64.0186 136.477 64.0074 136.473C63.9794 136.462 63.9697 136.445 63.9783 136.423C63.9826 136.412 63.9887 136.404 63.9964 136.401L64.4153 136.09C64.6593 135.907 64.8638 135.735 65.0289 135.574C65.1961 135.407 65.3285 135.255 65.4259 135.119C65.5156 134.987 65.5996 134.935 65.678 134.966C65.7676 135 65.7692 135.129 65.6829 135.353C65.5276 135.756 65.2079 136.202 64.7238 136.691C65.1729 136.427 65.4799 136.256 65.6449 136.178C66.0957 135.959 66.4106 135.884 66.5898 135.953C66.7689 136.023 66.8132 136.175 66.7226 136.41C66.66 136.572 66.5602 136.698 66.4232 136.786C66.2564 136.902 66.1282 136.943 66.0386 136.908C66.0218 136.902 66.0178 136.887 66.0264 136.865C66.0264 136.865 66.0841 136.807 66.1997 136.691C66.3152 136.574 66.3924 136.466 66.4312 136.365C66.4895 136.214 66.471 136.12 66.3758 136.083C66.2302 136.027 65.9461 136.114 65.5234 136.343C65.3462 136.436 65.1892 136.526 65.0521 136.615C64.9172 136.698 64.8035 136.776 64.7108 136.85C64.6987 136.864 64.6448 136.921 64.5492 137.019C64.4535 137.117 64.3222 137.266 64.1554 137.465L63.9775 137.676C63.962 137.683 63.9459 137.684 63.9291 137.677ZM67.9413 139.262C67.6165 139.137 67.5448 138.839 67.726 138.369C67.8145 138.139 67.9965 137.817 68.272 137.402C67.8599 137.771 67.5483 138.02 67.3372 138.151C66.8808 138.451 66.5238 138.552 66.2663 138.452C66.0031 138.351 65.9385 138.127 66.0722 137.78C66.2772 137.248 66.7778 136.791 67.5741 136.41C68.3705 136.029 69.052 135.912 69.6188 136.06C69.8563 135.811 70.0857 135.574 70.3068 135.351C70.5279 135.127 70.7381 134.916 70.9372 134.716C71.0187 134.638 71.1111 134.548 71.2146 134.447C71.3236 134.347 71.4437 134.236 71.5747 134.113C71.7195 134.021 71.8955 134.015 72.1026 134.094C72.181 134.125 72.2127 134.159 72.1976 134.199C72.1976 134.199 72.1877 134.208 72.1678 134.226C72.0885 134.298 71.9827 134.389 71.8504 134.499C71.7237 134.611 71.5782 134.738 71.414 134.88C71.1506 135.113 70.8911 135.344 70.6356 135.574C70.3877 135.8 70.1487 136.02 69.9185 136.233C69.9792 136.276 69.9934 136.339 69.9611 136.423C69.9179 136.535 69.7832 136.676 69.5569 136.846C69.3363 137.018 69.1682 137.121 69.0527 137.153C68.9557 137.238 68.8579 137.342 68.7592 137.465C68.6604 137.587 68.5574 137.721 68.45 137.866C68.3483 138.014 68.2592 138.153 68.1829 138.284C68.1122 138.418 68.0552 138.54 68.0121 138.652C67.9064 138.927 67.9263 139.092 68.0719 139.148C68.2398 139.213 68.5024 139.14 68.8597 138.931C68.9747 138.866 69.2133 138.697 69.5753 138.425C69.6162 138.403 69.6423 138.393 69.6535 138.398C69.6703 138.404 69.6755 138.416 69.669 138.433C69.669 138.433 69.6569 138.447 69.6328 138.476C68.8802 139.145 68.3164 139.406 67.9413 139.262ZM66.428 138.158C66.8367 138.315 67.4129 138.013 68.1564 137.252C68.0371 137.244 67.9439 137.228 67.8767 137.202C67.8543 137.193 67.8474 137.178 67.856 137.155C67.869 137.122 67.919 137.109 68.006 137.117C68.0951 137.119 68.2069 137.104 68.3414 137.072C68.3853 137.025 68.4315 136.972 68.4797 136.913C68.5358 136.851 68.5912 136.783 68.6459 136.707C68.68 136.669 68.7082 136.654 68.7306 136.663C68.7698 136.678 68.7797 136.711 68.7603 136.761C68.7409 136.811 68.6801 136.894 68.5779 137.009L68.7711 136.958L69.4604 136.221C69.0116 136.151 68.4237 136.274 67.6968 136.592C66.95 136.928 66.499 137.298 66.3437 137.701C66.2487 137.947 66.2769 138.1 66.428 138.158ZM71.2376 137.118C71.1256 137.074 71.0923 136.994 71.1376 136.877C71.1591 136.821 71.2186 136.766 71.316 136.714C71.4212 136.658 71.5071 136.627 71.5739 136.62C71.8121 136.603 71.9508 136.602 71.99 136.617C72.0068 136.623 72.0131 136.632 72.0087 136.643C72.0023 136.66 71.9066 136.716 71.7217 136.812C71.7062 136.819 71.6308 136.89 71.4954 137.024C71.3907 137.112 71.3048 137.143 71.2376 137.118ZM69.6949 139.619C69.4093 139.509 69.3216 139.311 69.4316 139.026C69.5136 138.813 69.6731 138.566 69.9102 138.284L69.6685 138.461C69.5482 138.556 69.4741 138.599 69.4461 138.588C69.4349 138.583 69.4325 138.573 69.439 138.556C69.4563 138.511 69.4893 138.476 69.5379 138.45C69.7435 138.317 69.9944 138.108 70.2905 137.823C70.3245 137.785 70.3685 137.738 70.4224 137.681C70.4819 137.627 70.5502 137.566 70.6273 137.5C70.6748 137.46 70.7544 137.462 70.8664 137.505C70.9616 137.542 70.9984 137.588 70.9768 137.644C70.9531 137.706 70.8927 137.779 70.7958 137.864C70.7022 137.956 70.6298 138.002 70.5786 138.002C70.063 138.472 69.7524 138.844 69.6467 139.118C69.5755 139.303 69.6015 139.419 69.7247 139.467C69.9262 139.544 70.2035 139.484 70.5564 139.286C70.9205 139.092 71.0998 138.994 71.0942 138.991C71.1054 138.996 71.1078 139.006 71.1013 139.023C71.0991 139.029 71.086 139.046 71.0618 139.075C70.9769 139.146 70.877 139.213 70.7619 139.278C70.6546 139.34 70.5339 139.402 70.3999 139.467C70.0586 139.618 69.8236 139.669 69.6949 139.619ZM70.4471 140.266C70.3967 140.247 70.3855 140.2 70.4136 140.128L70.42 140.111C70.4726 140.041 70.5328 139.952 70.6005 139.843C70.6738 139.736 70.7574 139.611 70.8514 139.467C70.9454 139.323 71.0629 139.143 71.2039 138.928C71.3471 138.706 71.5155 138.453 71.7091 138.167L71.7022 137.885C71.7022 137.801 71.7003 137.74 71.6965 137.7C71.6982 137.662 71.6991 137.643 71.6991 137.643C71.7142 137.603 71.7758 137.585 71.8839 137.589C72.2048 137.59 72.4045 137.606 72.4829 137.636C72.5669 137.668 72.5991 137.71 72.5797 137.76C72.5806 137.741 72.2998 138.045 71.7372 138.67L71.7081 138.746C71.6477 138.902 71.5923 138.971 71.5419 138.952C71.5363 138.95 71.5311 138.938 71.5264 138.917C71.4277 139.04 71.3311 139.157 71.2367 139.268C71.15 139.376 71.0662 139.485 70.9851 139.596C71.186 139.441 71.3864 139.297 71.5863 139.162C71.7919 139.029 71.9959 138.908 72.1985 138.8C72.8061 138.474 73.247 138.365 73.5214 138.47C73.6501 138.52 73.6951 138.595 73.6563 138.696C73.6433 138.729 73.6188 138.768 73.5825 138.812C73.4644 138.985 73.31 139.202 73.1195 139.463C72.9311 139.719 72.7103 140.016 72.4572 140.356C72.8747 140.24 73.2259 140.08 73.5108 139.874C73.5517 139.852 73.5778 139.842 73.589 139.847C73.6058 139.853 73.6099 139.868 73.6012 139.89C73.5969 139.901 73.581 139.918 73.5534 139.939C73.1388 140.281 72.7055 140.513 72.2535 140.634C72.2182 140.659 72.1753 140.662 72.1249 140.642C72.0857 140.627 72.0748 140.597 72.092 140.553C72.0963 140.541 72.1241 140.494 72.1755 140.411C72.2289 140.322 72.302 140.2 72.3947 140.042C72.4702 139.93 72.5418 139.819 72.6095 139.71C72.6772 139.601 72.746 139.49 72.8158 139.375C72.9607 139.116 73.0787 138.885 73.1697 138.682C73.025 138.691 72.855 138.731 72.6598 138.804C72.4724 138.873 72.2552 138.969 72.0083 139.093C71.7847 139.206 71.5839 139.318 71.4059 139.43C71.2356 139.538 71.0882 139.645 70.9637 139.751C70.8271 139.872 70.7057 140.012 70.5996 140.17C70.5427 140.251 70.4919 140.283 70.4471 140.266ZM71.8469 137.96L72.0292 137.712C71.9926 137.724 71.9286 137.731 71.8373 137.735L71.8469 137.96ZM70.1467 144.327C69.1109 143.927 68.7128 143.417 68.9522 142.796C68.9673 142.756 68.9852 142.718 69.0059 142.681C69.0189 142.648 69.0357 142.612 69.0564 142.575C69.1832 142.38 69.4336 142.181 69.8076 141.977C71.0582 141.302 72.528 141.267 74.2171 141.873L74.2086 141.069C73.8436 141.199 73.5492 141.22 73.3252 141.134C73.1237 141.056 73.065 140.908 73.1491 140.69C73.3066 140.281 73.7109 139.916 74.362 139.595C74.3758 139.542 74.3886 139.492 74.4003 139.446C74.4197 139.395 74.438 139.348 74.4553 139.303C74.5869 138.961 74.7645 138.692 74.9882 138.495C75.2714 138.244 75.567 138.178 75.8749 138.297C75.9085 138.31 75.9382 138.325 75.964 138.341C75.9976 138.354 76.0273 138.369 76.0532 138.385C76.1712 138.463 76.2292 138.604 76.2274 138.809C76.2242 139.001 76.1884 139.16 76.1198 139.288C76.5334 139.216 76.7952 139.037 76.9052 138.752C76.9441 138.651 76.9747 138.605 76.9971 138.614C77.0531 138.635 77.0433 138.744 76.9678 138.94C76.8232 139.315 76.4994 139.521 75.9962 139.559C75.8504 139.837 75.6239 140.116 75.3165 140.397C74.9872 140.701 74.6866 140.897 74.4148 140.985C74.4362 141.096 74.4564 141.235 74.4752 141.403C74.4997 141.574 74.5256 141.773 74.553 142.003C74.9988 142.181 75.3334 142.339 75.5569 142.476C75.64 142.527 75.6761 142.567 75.6653 142.595C75.6502 142.634 75.5979 142.637 75.5083 142.602C75.4579 142.583 75.3946 142.555 75.3184 142.519C75.2422 142.483 75.153 142.439 75.051 142.387C74.8503 142.291 74.6912 142.22 74.5736 142.174C74.6173 142.628 74.5851 142.995 74.4773 143.275C74.2205 143.942 73.5784 144.357 72.5509 144.52C71.6591 144.665 70.8577 144.601 70.1467 144.327ZM74.5236 139.551C74.6012 139.517 74.6871 139.485 74.7815 139.457C74.8814 139.432 74.9898 139.409 75.1065 139.39L75.7121 139.295C75.7349 139.253 75.755 139.209 75.7722 139.164C75.7951 139.121 75.8141 139.081 75.8292 139.041C75.9565 138.711 75.9417 138.516 75.785 138.455C75.6506 138.403 75.4735 138.454 75.2537 138.607C75.0792 138.727 74.9316 138.859 74.8108 139.006C74.6979 139.149 74.6112 139.299 74.5508 139.455C74.5335 139.5 74.5245 139.532 74.5236 139.551ZM74.4026 140.816C74.5844 140.745 74.8133 140.56 75.0892 140.261C75.3496 139.969 75.5175 139.725 75.593 139.529C75.111 139.562 74.7336 139.632 74.4608 139.739C74.4271 139.893 74.4042 140.061 74.392 140.243C74.3876 140.421 74.3911 140.612 74.4026 140.816ZM73.5277 140.884C73.7348 140.964 73.9627 140.965 74.2113 140.887C74.2067 140.615 74.2073 140.439 74.2129 140.357C74.2216 140.251 74.2327 140.156 74.2461 140.071C74.2595 139.986 74.2746 139.905 74.2914 139.828C73.8183 140.121 73.5418 140.372 73.4619 140.579C73.3994 140.741 73.4213 140.843 73.5277 140.884ZM70.1868 144.197C70.7971 144.432 71.5348 144.437 72.3999 144.211C73.3284 143.971 73.9048 143.56 74.1292 142.977C74.1961 142.804 74.2255 142.494 74.2177 142.047C73.7667 141.899 73.333 141.79 72.9165 141.719C72.5034 141.656 72.1048 141.631 71.7205 141.644C70.7426 141.679 69.9883 141.992 69.4577 142.585C69.3818 142.665 69.3255 142.753 69.2889 142.848C69.1831 143.123 69.2407 143.399 69.4615 143.677C69.6483 143.909 69.8901 144.083 70.1868 144.197Z" fill="black"/>
<path d="M81.54 143.348C81.306 143.348 81.189 143.198 81.189 142.898C81.189 142.532 81.327 142.157 81.603 141.773C81.507 141.539 81.459 141.29 81.459 141.026C81.459 140.768 81.51 140.543 81.612 140.351C81.804 139.973 82.05 139.784 82.35 139.784C82.722 139.784 82.938 140.102 82.998 140.738C83.148 140.744 83.259 140.792 83.331 140.882C83.409 140.966 83.448 141.086 83.448 141.242C83.448 141.362 83.433 141.449 83.403 141.503C83.379 141.551 83.355 141.575 83.331 141.575C83.307 141.575 83.295 141.563 83.295 141.539C83.295 141.509 83.298 141.473 83.304 141.431C83.316 141.389 83.322 141.338 83.322 141.278C83.322 141.194 83.292 141.131 83.232 141.089C83.172 141.041 83.097 141.017 83.007 141.017C82.935 141.749 82.758 142.31 82.476 142.7H82.755C82.677 142.748 82.608 142.772 82.548 142.772C82.536 142.772 82.518 142.769 82.494 142.763C82.476 142.757 82.461 142.754 82.449 142.754C82.461 142.76 82.356 142.859 82.134 143.051C81.9 143.249 81.702 143.348 81.54 143.348ZM81.702 141.674C82.068 141.182 82.452 140.876 82.854 140.756C82.734 140.24 82.569 139.982 82.359 139.982C82.167 139.982 81.99 140.171 81.828 140.549C81.726 140.801 81.675 141.068 81.675 141.35C81.675 141.464 81.684 141.572 81.702 141.674ZM82.188 142.655C82.332 142.523 82.479 142.265 82.629 141.881C82.785 141.485 82.863 141.194 82.863 141.008C82.731 141.026 82.524 141.149 82.242 141.377C81.966 141.599 81.795 141.776 81.729 141.908C81.855 142.364 82.008 142.613 82.188 142.655ZM81.567 143.078C81.735 143.078 81.93 142.952 82.152 142.7C81.954 142.676 81.792 142.439 81.666 141.989C81.468 142.319 81.369 142.577 81.369 142.763C81.369 142.973 81.435 143.078 81.567 143.078ZM84.2224 143.645C84.0844 143.645 84.0094 143.594 83.9974 143.492C83.9974 143.492 84.0004 143.447 84.0064 143.357C84.0184 143.267 84.0364 143.132 84.0604 142.952C84.0664 142.928 84.0694 142.886 84.0694 142.826C84.0694 142.76 84.0694 142.67 84.0694 142.556C84.0694 141.932 83.9674 141.518 83.7634 141.314L83.5744 141.188C83.5084 141.14 83.4754 141.077 83.4754 140.999C83.4754 140.885 83.5264 140.828 83.6284 140.828C83.6464 140.828 83.6674 140.828 83.6914 140.828C83.7214 140.828 83.7574 140.831 83.7994 140.837H83.9794C84.2554 140.837 84.5764 140.792 84.9424 140.702C85.6264 139.442 86.3824 138.455 87.2104 137.741C87.4564 137.531 87.6544 137.426 87.8044 137.426C87.9964 137.426 88.0924 137.57 88.0924 137.858C88.0924 138.152 88.0084 138.419 87.8404 138.659C87.7384 138.797 87.6574 138.866 87.5974 138.866C87.5734 138.866 87.5614 138.854 87.5614 138.83C87.5614 138.806 87.6184 138.692 87.7324 138.488C87.8524 138.266 87.9124 138.092 87.9124 137.966C87.9124 137.816 87.8434 137.741 87.7054 137.741C87.4834 137.741 87.1594 137.984 86.7334 138.47C86.4334 138.806 86.1664 139.157 85.9324 139.523C85.7044 139.889 85.4974 140.249 85.3114 140.603C85.3654 140.597 85.6144 140.516 86.0584 140.36C86.4724 140.222 86.6794 140.153 86.6794 140.153C86.7034 140.153 86.7154 140.159 86.7154 140.171C86.7154 140.207 86.6614 140.249 86.5534 140.297C86.3674 140.375 86.1634 140.453 85.9414 140.531C85.7254 140.609 85.4884 140.687 85.2304 140.765C85.0444 141.131 84.8914 141.482 84.7714 141.818C84.6574 142.154 84.5704 142.478 84.5104 142.79L84.4294 143.492C84.4174 143.594 84.3484 143.645 84.2224 143.645ZM84.2134 142.34C84.2914 142.112 84.3814 141.875 84.4834 141.629C84.5914 141.383 84.7144 141.128 84.8524 140.864C84.6124 140.924 84.2824 140.987 83.8624 141.053C84.0604 141.161 84.1774 141.59 84.2134 142.34Z" fill="black"/>
<path d="M93.8215 143.202C93.6087 143.284 93.3707 143.292 93.1075 143.227C92.8231 143.156 92.64 143.014 92.558 142.802C92.4566 142.539 92.5172 142.287 92.7398 142.047C92.906 141.861 93.1374 141.71 93.4342 141.596C93.5909 141.536 93.7615 141.486 93.9458 141.447C94.1302 141.408 94.3311 141.379 94.5487 141.36C94.7675 140.71 94.8864 139.95 94.9053 139.081C94.8165 138.967 94.7426 138.867 94.6835 138.781C94.6279 138.686 94.5861 138.603 94.558 138.53C94.4804 138.329 94.4807 138.213 94.5591 138.182C94.6487 138.148 94.7616 138.207 94.8978 138.361C94.9462 137.885 94.8835 137.122 94.7098 136.07C93.5603 136.558 92.7978 137.241 92.4222 138.118C92.2846 138.429 92.2707 138.727 92.3807 139.012C92.467 139.236 92.6213 139.411 92.8437 139.538C93.0428 139.654 93.2715 139.714 93.53 139.717C93.5679 139.715 93.6181 139.712 93.6806 139.707C93.743 139.703 93.8139 139.694 93.8931 139.683C93.9289 139.676 93.95 139.681 93.9565 139.697C93.9673 139.725 93.9531 139.747 93.9139 139.762L93.8854 139.763C93.5275 139.869 93.1478 139.851 92.7462 139.71C92.308 139.558 92.0242 139.313 91.8948 138.977C91.7977 138.726 91.8129 138.456 91.9402 138.169C92.1527 137.669 92.5391 137.212 93.0993 136.797C93.5618 136.445 94.0925 136.154 94.6916 135.923C94.6575 135.801 94.6279 135.674 94.6029 135.542C94.5812 135.403 94.5624 135.262 94.5464 135.12C94.571 135.117 94.607 135.177 94.6544 135.301C94.6825 135.373 94.7092 135.459 94.7347 135.559C94.758 135.653 94.78 135.76 94.8008 135.881C95.0157 135.804 95.2282 135.739 95.4384 135.683C95.6521 135.62 95.8627 135.574 96.0703 135.546C96.291 135.101 96.5778 134.81 96.9305 134.674C97.1377 134.595 97.3393 134.601 97.5353 134.692C97.7314 134.784 97.8693 134.933 97.9491 135.14C97.9793 135.219 97.9804 135.263 97.9524 135.274C97.93 135.283 97.8802 135.212 97.803 135.062C97.6724 134.823 97.4419 134.767 97.1115 134.894C96.8876 134.98 96.685 135.18 96.5038 135.495C96.892 135.467 97.2469 135.504 97.5688 135.605C97.9695 135.727 98.2302 135.945 98.351 136.259C98.4977 136.639 98.3947 137.023 98.0422 137.41C97.7731 137.713 97.4301 137.957 97.0132 138.144C98.3793 138.235 99.2036 138.647 99.4862 139.38C99.6199 139.727 99.5865 140.075 99.3859 140.422C99.191 140.767 98.9144 141.009 98.556 141.147C98.0185 141.354 97.5168 141.47 97.0507 141.495L95.5134 141.461C95.4278 141.706 95.3332 141.919 95.2295 142.1C95.1335 142.285 95.0246 142.437 94.9028 142.554C94.669 142.799 94.3086 143.015 93.8215 143.202ZM95.1741 141.331C95.3066 140.99 95.3987 140.453 95.4504 139.72C95.4726 139.377 95.4959 139.037 95.5203 138.7C95.5425 138.357 95.5675 138.013 95.5953 137.668C95.6364 137.24 95.6902 136.863 95.7568 136.535C95.829 136.205 95.9128 135.922 96.0083 135.686C95.6241 135.756 95.2529 135.861 94.8945 135.999L94.8274 136.025C94.919 136.613 94.9815 137.351 95.0147 138.238C95.0758 138.163 95.126 138.118 95.1652 138.103C95.21 138.086 95.2432 138.105 95.2647 138.161C95.3251 138.318 95.2381 138.635 95.0036 139.111C94.9849 139.529 94.9452 139.927 94.8847 140.304C94.8276 140.674 94.744 141.024 94.6339 141.356C94.721 141.348 94.809 141.343 94.8982 141.341C94.993 141.336 95.085 141.333 95.1741 141.331ZM98.4293 140.993C99.1851 140.702 99.4638 140.299 99.2654 139.784C99.0001 139.095 98.3126 138.704 97.2028 138.611C97.1382 138.61 97.0574 138.609 96.9605 138.608C96.8614 138.601 96.7462 138.594 96.6148 138.586C96.5937 138.582 96.5745 138.557 96.5572 138.512C96.4969 138.355 96.5414 138.229 96.6908 138.133L96.8588 138.068C96.907 138.043 96.9552 138.018 97.0035 137.993C97.0517 137.968 97.0971 137.944 97.1398 137.921C97.4464 137.732 97.672 137.517 97.8166 137.275C98.0008 136.985 98.0346 136.689 97.9182 136.387C97.8125 136.112 97.6084 135.908 97.3059 135.774C97.0465 135.668 96.7557 135.623 96.4335 135.637C96.2162 136.075 96.0744 136.666 96.008 137.412L95.8871 139.426C95.8358 140.211 95.7298 140.837 95.5689 141.304L97.0118 141.269C97.5481 141.243 98.0206 141.15 98.4293 140.993ZM93.8058 142.986C94.097 142.874 94.3743 142.668 94.6377 142.367C94.9124 142.062 95.0811 141.765 95.1438 141.478C95.056 141.466 94.9663 141.459 94.875 141.456C94.7893 141.45 94.6962 141.451 94.5959 141.457C94.4187 141.982 94.2097 142.291 93.969 142.384C93.8514 142.429 93.7797 142.418 93.7538 142.351C93.743 142.323 93.7544 142.302 93.788 142.289C93.7992 142.285 93.8227 142.279 93.8584 142.272C93.8963 142.27 93.9237 142.266 93.9405 142.259C94.1532 142.178 94.3443 141.914 94.5138 141.47C94.1102 141.49 93.746 141.563 93.4213 141.688C93.1917 141.776 92.9997 141.895 92.8451 142.045C92.6488 142.236 92.5916 142.438 92.6736 142.651C92.7512 142.853 92.9128 142.98 93.1584 143.033C93.3829 143.082 93.5987 143.066 93.8058 142.986ZM101.031 139.48C100.633 139.633 100.335 139.452 100.137 138.937C100.106 138.858 100.077 138.773 100.048 138.682C100.022 138.582 100 138.475 99.9818 138.36C99.953 138.352 99.922 138.338 99.8888 138.319C99.8534 138.294 99.8159 138.263 99.7763 138.227C99.8008 138.224 99.8276 138.226 99.8564 138.235C99.8887 138.235 99.9266 138.233 99.9701 138.229C99.9239 137.926 99.9851 137.584 100.154 137.204C100.334 136.787 100.556 136.528 100.819 136.427C100.88 136.403 100.914 136.399 100.921 136.416C100.925 136.427 100.897 136.471 100.836 136.546C100.672 136.737 100.543 136.986 100.448 137.293C100.356 137.605 100.313 137.892 100.317 138.154L100.34 138.164C100.609 138.06 100.839 137.824 101.031 137.454C101.223 137.084 101.267 136.765 101.164 136.496C101.132 136.412 101.08 136.345 101.009 136.295C100.939 136.245 100.864 136.236 100.786 136.266C100.674 136.309 100.565 136.402 100.46 136.546C100.352 136.684 100.29 136.756 100.273 136.762C100.262 136.767 100.255 136.766 100.253 136.76C100.227 136.693 100.297 136.583 100.463 136.429C100.605 136.297 100.723 136.213 100.819 136.176C100.947 136.126 101.068 136.122 101.18 136.162C101.297 136.2 101.381 136.284 101.431 136.413C101.545 136.71 101.463 137.072 101.185 137.501C100.932 137.881 100.649 138.148 100.335 138.301C100.342 138.452 100.369 138.59 100.417 138.713C100.596 139.178 100.853 139.345 101.189 139.216C101.447 139.117 101.673 138.901 101.866 138.569C102.03 138.294 102.14 137.995 102.195 137.671C102.215 137.573 102.242 137.518 102.276 137.505C102.281 137.503 102.286 137.507 102.291 137.519C102.299 137.541 102.296 137.6 102.282 137.696C102.214 138.037 102.067 138.383 101.842 138.733C101.598 139.116 101.327 139.365 101.031 139.48ZM103.507 138.525C103.11 138.679 102.812 138.498 102.613 137.983C102.583 137.904 102.554 137.819 102.525 137.727C102.499 137.628 102.477 137.521 102.459 137.406C102.43 137.397 102.399 137.384 102.366 137.364C102.33 137.339 102.293 137.309 102.253 137.273C102.278 137.27 102.304 137.272 102.333 137.28C102.366 137.281 102.403 137.279 102.447 137.275C102.401 136.971 102.462 136.63 102.631 136.25C102.811 135.833 103.033 135.574 103.296 135.472C103.357 135.449 103.391 135.445 103.398 135.462C103.402 135.473 103.374 135.516 103.313 135.591C103.149 135.783 103.019 136.032 102.925 136.339C102.833 136.65 102.789 136.937 102.794 137.199L102.817 137.21C103.086 137.106 103.316 136.869 103.508 136.5C103.7 136.13 103.744 135.811 103.641 135.542C103.608 135.458 103.557 135.391 103.486 135.341C103.416 135.291 103.341 135.281 103.263 135.312C103.151 135.355 103.042 135.448 102.936 135.592C102.829 135.729 102.767 135.802 102.75 135.808C102.739 135.812 102.732 135.812 102.73 135.806C102.704 135.739 102.774 135.628 102.94 135.475C103.082 135.343 103.2 135.258 103.296 135.222C103.424 135.172 103.545 135.168 103.657 135.208C103.774 135.246 103.858 135.33 103.908 135.459C104.022 135.755 103.94 136.118 103.661 136.547C103.409 136.927 103.126 137.193 102.812 137.347C102.819 137.498 102.846 137.636 102.894 137.759C103.073 138.223 103.33 138.391 103.666 138.262C103.924 138.162 104.149 137.947 104.343 137.615C104.507 137.34 104.617 137.04 104.672 136.717C104.692 136.619 104.719 136.564 104.753 136.551C104.758 136.549 104.763 136.553 104.768 136.564C104.776 136.587 104.773 136.646 104.759 136.741C104.691 137.083 104.544 137.428 104.319 137.779C104.075 138.162 103.804 138.411 103.507 138.525ZM106.269 137.51C105.989 137.618 105.783 137.501 105.652 137.159C105.557 136.913 105.501 136.584 105.484 136.173C105.434 136.108 105.37 136.059 105.292 136.025C105.218 135.983 105.126 135.96 105.015 135.958L104.491 135.948C104.405 135.942 104.346 135.897 104.314 135.813C104.279 135.724 104.298 135.655 104.37 135.608L104.596 135.521C104.893 135.407 105.191 135.253 105.49 135.061L105.492 135.041L105.574 133.601L105.6 132.945C105.606 132.827 105.696 132.734 105.87 132.668C105.987 132.622 106.057 132.628 106.078 132.684C106.087 132.706 106.075 132.984 106.043 133.517C106.012 134.056 105.989 134.345 105.971 134.384L105.88 134.573L105.857 134.813C105.931 134.753 106.055 134.651 106.231 134.506C106.41 134.353 106.64 134.158 106.922 133.921C106.942 133.907 106.96 133.897 106.977 133.89C106.992 133.878 107.002 133.871 107.008 133.869C107.03 133.86 107.043 133.861 107.048 133.873C107.084 133.968 106.681 134.332 105.839 134.965C105.811 135.227 105.788 135.451 105.77 135.638C105.75 135.819 105.738 135.965 105.736 136.075C105.733 136.501 105.788 136.862 105.903 137.159C105.974 137.344 106.071 137.412 106.194 137.365C106.345 137.307 106.503 137.124 106.667 136.816L106.919 136.343C106.936 136.336 106.948 136.342 106.954 136.358C106.961 136.375 106.962 136.404 106.958 136.444C106.92 136.613 106.832 136.81 106.695 137.037C106.534 137.305 106.392 137.462 106.269 137.51ZM105.472 136.042C105.468 135.915 105.466 135.784 105.466 135.649C105.471 135.512 105.477 135.371 105.486 135.227C105.359 135.314 105.228 135.4 105.093 135.484C104.964 135.566 104.834 135.645 104.702 135.721C105.052 135.76 105.308 135.867 105.472 136.042ZM107.97 136.623C107.69 136.731 107.495 136.642 107.385 136.356C107.266 136.048 107.201 135.453 107.189 134.57C107.122 134.815 107.061 134.948 107.005 134.969C106.988 134.976 106.977 134.971 106.97 134.954C106.968 134.948 107.003 134.822 107.075 134.576C107.111 134.453 107.139 134.358 107.159 134.293C107.182 134.219 107.193 134.173 107.193 134.154C107.19 134.065 107.191 133.949 107.194 133.807C107.197 133.664 107.201 133.502 107.208 133.319C107.224 132.991 107.242 132.663 107.263 132.333C107.281 131.998 107.306 131.661 107.336 131.322C107.344 131.209 107.356 131.073 107.371 130.912C107.392 130.75 107.417 130.564 107.445 130.353C107.47 130.235 107.566 130.143 107.734 130.078C107.835 130.039 107.895 130.045 107.915 130.095C107.921 130.112 107.924 130.127 107.922 130.141L107.857 131.323L107.828 131.797C107.797 131.835 107.763 131.896 107.725 131.982C107.725 131.982 107.717 132.052 107.701 132.194C107.69 132.333 107.667 132.541 107.632 132.818C107.434 134.656 107.425 135.81 107.607 136.281C107.678 136.465 107.775 136.534 107.898 136.487C108.038 136.433 108.173 136.291 108.303 136.061C108.436 135.823 108.498 135.706 108.486 135.71C108.509 135.702 108.524 135.708 108.533 135.731C108.542 135.753 108.539 135.78 108.525 135.811C108.413 136.253 108.228 136.524 107.97 136.623ZM109.535 136.203C109.138 136.356 108.84 136.175 108.642 135.66C108.611 135.582 108.582 135.497 108.553 135.405C108.527 135.305 108.505 135.198 108.487 135.083C108.458 135.075 108.427 135.061 108.394 135.042C108.358 135.017 108.321 134.986 108.281 134.95C108.306 134.947 108.332 134.95 108.361 134.958C108.394 134.958 108.432 134.957 108.475 134.953C108.429 134.649 108.49 134.307 108.659 133.927C108.839 133.51 109.061 133.251 109.324 133.15C109.385 133.126 109.419 133.123 109.426 133.14C109.43 133.151 109.402 133.194 109.341 133.269C109.177 133.461 109.047 133.71 108.953 134.016C108.861 134.328 108.818 134.615 108.822 134.877L108.845 134.887C109.114 134.784 109.344 134.547 109.536 134.177C109.728 133.808 109.772 133.488 109.669 133.22C109.636 133.136 109.585 133.069 109.514 133.019C109.444 132.969 109.369 132.959 109.291 132.989C109.179 133.032 109.07 133.126 108.965 133.269C108.857 133.407 108.795 133.479 108.778 133.486C108.767 133.49 108.76 133.489 108.758 133.484C108.732 133.417 108.802 133.306 108.968 133.152C109.11 133.02 109.228 132.936 109.324 132.899C109.452 132.85 109.573 132.845 109.685 132.886C109.802 132.924 109.886 133.007 109.936 133.136C110.05 133.433 109.968 133.796 109.689 134.224C109.437 134.604 109.154 134.871 108.84 135.024C108.847 135.176 108.874 135.313 108.922 135.436C109.101 135.901 109.358 136.069 109.694 135.939C109.952 135.84 110.177 135.625 110.371 135.293C110.535 135.017 110.645 134.718 110.7 134.394C110.72 134.297 110.747 134.241 110.781 134.228C110.786 134.226 110.791 134.231 110.796 134.242C110.804 134.264 110.801 134.323 110.787 134.419C110.719 134.76 110.572 135.106 110.347 135.456C110.103 135.84 109.832 136.089 109.535 136.203ZM112.124 135.138C111.861 135.24 111.581 135.222 111.284 135.086C110.991 134.942 110.793 134.738 110.692 134.475C110.625 134.301 110.636 134.197 110.726 134.163C110.782 134.141 110.854 134.162 110.942 134.224C110.959 133.767 111.027 133.233 111.145 132.622C111.224 132.244 111.396 132.005 111.659 131.903C111.715 131.882 111.787 131.876 111.875 131.888C111.968 131.897 112.026 131.929 112.047 131.985C112.062 132.024 112.034 132.058 111.961 132.086C111.955 132.088 111.947 132.091 111.936 132.096C111.924 132.1 111.909 132.102 111.89 132.103L111.823 132.129C111.7 132.177 111.605 132.255 111.538 132.365C111.471 132.474 111.461 132.59 111.508 132.714C111.525 132.758 111.552 132.803 111.588 132.847L112.049 133.441C112.145 133.558 112.225 133.672 112.287 133.783C112.347 133.889 112.395 133.989 112.432 134.084C112.574 134.004 112.681 133.898 112.753 133.767C112.799 133.685 112.845 133.539 112.893 133.328C112.901 133.299 112.913 133.281 112.93 133.275C112.947 133.268 112.96 133.276 112.968 133.299C112.97 133.304 112.972 133.326 112.974 133.364C112.907 133.757 112.744 134.035 112.485 134.199C112.544 134.401 112.548 134.586 112.497 134.754C112.444 134.935 112.32 135.063 112.124 135.138ZM112.129 134.326C112.126 134.301 112.122 134.281 112.115 134.264C112.109 134.247 112.101 134.228 112.092 134.205C112.064 134.132 112.013 134.04 111.937 133.927C111.865 133.807 111.771 133.663 111.655 133.496C111.435 133.176 111.314 132.952 111.291 132.826C111.204 133.033 111.121 133.528 111.043 134.31C111.171 134.325 111.28 134.341 111.37 134.358C111.464 134.367 111.537 134.374 111.59 134.379C111.695 134.384 111.791 134.382 111.878 134.375C111.971 134.365 112.054 134.348 112.129 134.326ZM111.841 134.929C112.065 134.843 112.171 134.676 112.16 134.43C111.712 134.603 111.335 134.642 111.028 134.548C111.087 134.666 111.206 134.775 111.385 134.873C111.566 134.958 111.718 134.976 111.841 134.929Z" fill="black"/>
<path d="M65.4375 124.875C68.6654 129.251 72.0965 130.65 79.6875 132.188L81.5625 119.438L70.875 107.812L82.875 111V105.375L70.875 100.125L69 91.6875L77.25 94.3125L82.875 91.6875V85.5L79.6875 88.5L77.25 86.625L65.4375 82.6875L59.25 67.875L56.0625 56.0625L59.25 51.9375H51.375L39.5625 39.9375L43.3125 36.375H39.5625V34.125L43.3125 26.25L39.5625 28.875L35.625 37.6875L37.125 43.3125L47.8125 56.0625L53.0625 70.125L59.25 84.375L65.4375 90.375H62.8125V94.3125L65.4375 97.6875L62.8125 100.125L65.4375 103.875V112.688L62.8125 115.688L65.4375 124.875Z" fill="black" stroke="black" stroke-width="1.875"/>
<path d="M101.812 124.875C98.5846 129.251 95.1535 130.65 87.5625 132.188L85.6875 119.438L96.375 107.812L84.375 111V105.375L96.375 100.125L98.25 91.6875L90 94.3125L84.375 91.6875V85.5L87.5625 88.5L90 86.625L101.812 82.6875L108 67.875L111.188 56.0625L108 51.9375H115.875L127.688 39.9375L123.938 36.375H127.688V34.125L123.938 26.25L127.688 28.875L131.625 37.6875L130.125 43.3125L119.438 56.0625L114.188 70.125L108 84.375L101.812 90.375H104.438V94.3125L101.812 97.6875L104.438 100.125L101.812 103.875V112.688L104.438 115.688L101.812 124.875Z" fill="black" stroke="black" stroke-width="1.875"/>
</svg>
