<svg width="390" height="159" viewBox="0 0 390 159" fill="none" xmlns="http://www.w3.org/2000/svg">
<path d="M24.8683 23.5652L83.625 0.53703L142.382 23.5652L166.704 79.125L142.382 134.685L83.625 157.713L24.8683 134.685L0.545813 79.125L24.8683 23.5652Z" fill="white" stroke="black"/>
<path d="M62.856 135.29C66.5353 140.278 70.446 141.872 79.0985 143.625L81.2356 129.092L69.0538 115.842L82.7316 119.475V113.063L69.0538 107.079L66.9166 97.4622L76.3201 100.454L82.7316 97.4622V90.4095L79.0985 93.829L76.3201 91.6918L62.856 87.2038L55.8033 70.3201L52.1701 56.856L55.8033 52.1542H46.8272L33.3631 38.4763L37.6374 34.4157H33.3631V31.8511L37.6374 22.875L33.3631 25.867L28.875 35.9117L30.5847 42.3232L42.7666 56.856L48.7507 72.8847L55.8033 89.1272L62.856 95.9661H59.8639V100.454L62.856 104.301L59.8639 107.079L62.856 111.354V121.398L59.8639 124.818L62.856 135.29Z" fill="black" stroke="black" stroke-width="1.875"/>
<path d="M104.317 135.29C100.638 140.278 96.727 141.872 88.0746 143.625L85.9375 129.092L98.1193 115.842L84.4415 119.475V113.063L98.1193 107.079L100.257 97.4622L90.853 100.454L84.4415 97.4622V90.4095L88.0746 93.829L90.853 91.6918L104.317 87.2038L111.37 70.3201L115.003 56.856L111.37 52.1542H120.346L133.81 38.4763L129.536 34.4157H133.81V31.8511L129.536 22.875L133.81 25.867L138.298 35.9117L136.588 42.3232L124.407 56.856L118.422 72.8847L111.37 89.1272L104.317 95.9661H107.309V100.454L104.317 104.301L107.309 107.079L104.317 111.354V121.398L107.309 124.818L104.317 135.29Z" fill="black" stroke="black" stroke-width="1.875"/>
<path d="M173.997 120.125V105.773H178.697C181.661 105.773 183.884 106.826 183.884 109.946C183.884 112.949 181.661 114.333 178.697 114.333H176.279V120.125H173.997ZM176.279 112.52H178.443C180.51 112.52 181.641 111.662 181.641 109.946C181.641 108.21 180.51 107.606 178.443 107.606H176.279V112.52ZM181.856 120.125L178.268 113.748L179.945 112.422L184.391 120.125H181.856ZM186.794 120.125V105.773H195.296V107.684H189.075V111.662H194.321V113.592H189.075V118.214H195.51V120.125H186.794ZM204.083 120.398C200.495 120.398 197.706 117.707 197.706 112.988C197.706 108.308 200.573 105.519 204.2 105.519C205.994 105.519 207.378 106.377 208.256 107.313L207.047 108.776C206.306 108.015 205.409 107.489 204.239 107.489C201.762 107.489 200.046 109.556 200.046 112.91C200.046 116.322 201.645 118.409 204.18 118.409C205.487 118.409 206.501 117.824 207.339 116.888L208.568 118.311C207.417 119.657 205.955 120.398 204.083 120.398ZM215.81 120.398C212.105 120.398 209.551 117.531 209.551 112.89C209.551 108.269 212.105 105.519 215.81 105.519C219.496 105.519 222.05 108.269 222.05 112.89C222.05 117.531 219.496 120.398 215.81 120.398ZM215.81 118.409C218.189 118.409 219.73 116.244 219.73 112.89C219.73 109.536 218.189 107.489 215.81 107.489C213.412 107.489 211.891 109.536 211.891 112.89C211.891 116.244 213.412 118.409 215.81 118.409ZM225.032 120.125V105.773H229.732C232.696 105.773 234.919 106.826 234.919 109.946C234.919 112.949 232.696 114.333 229.732 114.333H227.314V120.125H225.032ZM227.314 112.52H229.478C231.545 112.52 232.676 111.662 232.676 109.946C232.676 108.21 231.545 107.606 229.478 107.606H227.314V112.52ZM232.891 120.125L229.303 113.748L230.98 112.422L235.426 120.125H232.891ZM237.829 120.125V105.773H241.573C245.98 105.773 248.476 108.21 248.476 112.89C248.476 117.57 245.98 120.125 241.69 120.125H237.829ZM240.111 118.272H241.398C244.479 118.272 246.156 116.459 246.156 112.89C246.156 109.322 244.479 107.606 241.398 107.606H240.111V118.272ZM251.464 120.125V105.773H253.745V120.125H251.464ZM257.481 120.125V105.773H259.802L264.579 114.216L266.081 117.239H266.178C266.042 115.776 265.866 114.021 265.866 112.481V105.773H268.031V120.125H265.691L260.952 111.681L259.451 108.659H259.353C259.451 110.16 259.646 111.798 259.646 113.378V120.125H257.481ZM277.671 120.398C273.849 120.398 271.022 117.707 271.022 112.988C271.022 108.308 273.927 105.519 277.73 105.519C279.758 105.519 281.123 106.416 282 107.313L280.772 108.776C280.05 108.054 279.173 107.489 277.808 107.489C275.117 107.489 273.362 109.556 273.362 112.91C273.362 116.322 274.941 118.409 277.905 118.409C278.783 118.409 279.66 118.155 280.148 117.707V114.353H277.32V112.481H282.215V118.701C281.259 119.676 279.621 120.398 277.671 120.398ZM295.334 120.398C291.629 120.398 289.074 117.531 289.074 112.89C289.074 108.269 291.629 105.519 295.334 105.519C299.019 105.519 301.574 108.269 301.574 112.89C301.574 117.531 299.019 120.398 295.334 120.398ZM295.334 118.409C297.713 118.409 299.253 116.244 299.253 112.89C299.253 109.536 297.713 107.489 295.334 107.489C292.935 107.489 291.414 109.536 291.414 112.89C291.414 116.244 292.935 118.409 295.334 118.409ZM304.556 120.125V105.773H313.077V107.684H306.837V112.052H312.141V113.963H306.837V120.125H304.556ZM319.98 120.125V105.773H324.446C327.371 105.773 329.496 106.709 329.496 109.302C329.496 110.687 328.755 111.974 327.468 112.422V112.5C329.106 112.851 330.276 113.982 330.276 115.913C330.276 118.76 327.975 120.125 324.797 120.125H319.98ZM322.262 111.759H324.192C326.376 111.759 327.273 110.94 327.273 109.614C327.273 108.113 326.259 107.547 324.251 107.547H322.262V111.759ZM322.262 118.35H324.543C326.766 118.35 328.053 117.551 328.053 115.815C328.053 114.197 326.825 113.475 324.543 113.475H322.262V118.35ZM332.987 120.125V105.773H341.489V107.684H335.268V111.662H340.514V113.592H335.268V118.214H341.703V120.125H332.987ZM344.679 120.125V105.773H353.181V107.684H346.961V111.662H352.206V113.592H346.961V118.214H353.396V120.125H344.679ZM359.297 120.125V107.684H355.085V105.773H365.79V107.684H361.578V120.125H359.297ZM368.292 120.125V105.773H370.574V118.214H376.658V120.125H368.292ZM379.166 120.125V105.773H387.668V107.684H381.447V111.662H386.693V113.592H381.447V118.214H387.882V120.125H379.166Z" fill="black"/>
<path d="M193.821 52.115H198.621V91.907H193.821V52.115ZM177.933 50.291H214.557V79.475H209.709V54.659H182.589V79.571H177.933V50.291ZM180.141 61.571H211.917V65.843H180.141V61.571ZM180.141 72.611H211.869V77.027H180.141V72.611ZM239.181 53.555V57.107H263.517V53.555H239.181ZM234.957 50.243H267.981V60.419H234.957V50.243ZM248.925 47.267H253.437V65.843H248.925V47.267ZM231.789 63.827C240.285 63.875 254.013 63.731 266.877 63.587L266.685 66.803C254.205 67.235 240.909 67.523 232.029 67.619L231.789 63.827ZM259.053 61.475L262.173 59.651C265.629 61.859 269.853 65.075 272.061 67.139L268.845 69.299C266.685 67.091 262.413 63.683 259.053 61.475ZM234.285 74.387V78.611H245.949V74.387H234.285ZM230.877 71.027H249.501V82.019H230.877V71.027ZM238.269 67.811H242.013V88.451H238.269V67.811ZM228.909 86.531C233.757 86.339 240.909 86.051 248.013 85.715L247.965 89.267C241.197 89.699 234.285 90.131 229.197 90.419L228.909 86.531ZM244.221 83.507L247.341 82.211C249.021 84.803 250.797 88.259 251.517 90.563L248.205 92.003C247.533 89.699 245.805 86.099 244.221 83.507ZM255.549 74.387V78.563H267.837V74.387H255.549ZM252.141 70.979H271.437V81.971H252.141V70.979ZM259.725 67.811H263.565V88.451H259.725V67.811ZM251.085 86.531C255.933 86.387 263.229 86.051 270.381 85.715L270.333 89.315C263.565 89.795 256.605 90.227 251.469 90.515L251.085 86.531ZM265.965 83.507L269.181 82.019C271.149 84.611 273.165 88.019 274.125 90.323L270.717 92.003C269.853 89.651 267.837 86.099 265.965 83.507ZM285.501 49.859H302.925V54.227H285.501V49.859ZM299.901 49.859H304.413V85.859C304.413 88.643 303.789 89.939 302.013 90.707C300.237 91.427 297.261 91.523 293.085 91.523C292.893 90.275 292.173 88.163 291.501 86.915C294.525 87.059 297.789 87.059 298.701 87.011C299.613 87.011 299.901 86.723 299.901 85.859V49.859ZM284.109 79.427C287.421 77.795 292.461 75.011 297.357 72.227L298.605 76.019C294.285 78.659 289.581 81.443 285.837 83.555L284.109 79.427ZM306.957 49.859H324.045V54.227H306.957V49.859ZM321.789 49.859H326.445V85.859C326.445 88.691 325.773 90.035 323.901 90.803C322.029 91.571 318.861 91.619 314.397 91.619C314.205 90.323 313.437 88.163 312.813 86.915C315.981 87.107 319.485 87.059 320.541 87.011C321.501 87.011 321.789 86.675 321.789 85.763V49.859ZM307.485 60.659L310.941 58.259C313.917 60.947 317.517 64.451 319.293 66.659L315.741 69.491C313.965 67.187 310.365 63.395 307.485 60.659ZM285.837 60.803L289.389 58.595C292.317 61.331 295.869 64.979 297.645 67.235L293.949 69.875C292.221 67.523 288.717 63.587 285.837 60.803ZM305.805 78.467C309.117 76.883 314.205 74.147 319.101 71.459L320.205 75.203C316.077 77.843 311.613 80.531 308.061 82.643L305.805 78.467ZM342.717 59.555H354.429V63.395H342.717V59.555ZM340.077 67.907H356.445V71.795H340.077V67.907ZM340.317 74.435L343.389 73.667C344.157 76.403 344.925 79.955 345.213 82.259L341.997 83.123C341.757 80.771 341.037 77.171 340.317 74.435ZM339.261 86.339C343.533 85.715 350.205 84.611 356.685 83.507L356.925 87.155C351.021 88.355 344.829 89.555 340.221 90.467L339.261 86.339ZM353.949 73.283L356.973 74.099C356.205 76.931 355.389 80.339 354.669 82.547L352.221 81.779C352.845 79.475 353.613 75.779 353.949 73.283ZM346.893 61.139H350.637V86.915L346.893 87.635V61.139ZM347.997 47.315L351.501 48.563C348.909 54.131 344.589 59.795 340.221 63.395C340.077 62.483 339.213 60.083 338.637 59.027C342.237 56.195 345.885 51.827 347.997 47.315ZM347.325 51.539L349.773 48.995C352.701 51.731 356.829 55.571 358.845 57.827L356.205 60.851C354.285 58.403 350.301 54.419 347.325 51.539ZM380.013 70.403L383.085 72.995C381.069 75.155 378.621 77.555 376.701 79.091L374.253 76.739C376.029 75.155 378.573 72.419 380.013 70.403ZM358.125 72.659L361.101 70.499C362.973 72.323 365.277 74.867 366.381 76.499L363.165 78.947C362.157 77.267 359.901 74.579 358.125 72.659ZM363.981 51.491H376.845V55.043H363.981V51.491ZM362.493 58.739H375.741V62.243H362.493V58.739ZM357.117 65.171H383.853V69.203H357.117V65.171ZM368.205 67.571H372.381V87.443C372.381 89.507 372.045 90.611 370.701 91.283C369.405 91.859 367.437 91.955 364.701 91.955C364.557 90.851 364.029 89.171 363.453 88.019C365.229 88.115 366.957 88.067 367.485 88.067C368.061 88.067 368.205 87.923 368.205 87.443V67.571ZM356.205 85.379C358.557 83.987 362.013 81.635 365.421 79.235L366.765 82.547C364.077 84.707 361.053 86.963 358.557 88.787L356.205 85.379ZM363.501 47.315L367.725 47.795C366.669 52.595 365.133 58.595 364.029 62.243H359.613C360.909 58.403 362.493 52.115 363.501 47.315ZM375.597 51.491H376.077L376.797 51.299L379.869 51.779C379.149 56.291 377.949 62.195 376.845 66.755L372.717 66.227C373.821 61.619 375.069 55.283 375.597 52.019V51.491ZM373.197 81.779L375.645 79.043C378.429 81.011 382.269 83.891 384.141 85.667L381.597 88.787C379.821 86.915 376.029 83.843 373.197 81.779Z" fill="black"/>
<path d="M172.125 95.075H385.725V97.475H172.125V95.075Z" fill="black"/>
</svg>
