<svg width="169" height="159" viewBox="0 0 169 159" fill="none" xmlns="http://www.w3.org/2000/svg">
<path d="M84.5 0.625L143.632 23.8002L168.125 79.75L143.632 135.7L84.5 158.875L25.3682 135.7L0.875 79.75L25.3682 23.8002L84.5 0.625Z" fill="white"/>
<path d="M56.454 136.965C56.0677 136.816 55.7301 136.474 55.4414 135.938C55.1058 135.307 54.8996 134.466 54.8228 133.414C54.8134 133.288 54.7986 133.135 54.7785 132.953C54.7661 132.768 54.7455 132.555 54.7168 132.312L54.5741 132.257C52.8374 133.877 51.3365 134.443 50.0712 133.956C49.6289 133.785 49.334 133.508 49.1865 133.123C49.039 132.738 49.0526 132.319 49.2273 131.865C49.4107 131.39 49.7125 131.024 50.1327 130.768C50.5748 130.488 51.0338 130.44 51.5097 130.623C51.6441 130.675 51.755 130.763 51.8423 130.886C51.9353 131.012 51.9581 131.137 51.9106 131.26C51.8998 131.288 51.8839 131.304 51.8627 131.309L51.8435 131.109C51.8319 130.988 51.731 130.892 51.5406 130.818C51.1319 130.661 50.7151 130.741 50.2901 131.06C49.9204 131.335 49.6524 131.688 49.4863 132.12C49.3417 132.495 49.312 132.83 49.3971 133.127C49.4917 133.466 49.7181 133.704 50.0764 133.842C50.7706 134.109 51.6254 133.902 52.6408 133.219C52.9192 133.031 53.1825 132.84 53.4308 132.646C53.6868 132.449 53.9249 132.248 54.1452 132.044C54.0677 131.995 53.9912 131.943 53.9159 131.888C53.8483 131.83 53.7807 131.771 53.7131 131.713C53.1769 132.22 52.6147 132.653 52.0264 133.012C51.1818 133.535 50.5383 133.711 50.096 133.541C50.04 133.519 50.0196 133.489 50.0347 133.45C50.0455 133.422 50.081 133.413 50.1413 133.423C50.2072 133.436 50.3138 133.451 50.4611 133.469C50.919 133.466 51.4895 133.245 52.1726 132.807C52.4212 132.646 52.6669 132.468 52.9096 132.272C53.1578 132.078 53.4031 131.867 53.6453 131.639C53.319 131.301 53.1979 131.023 53.282 130.804C53.3252 130.692 53.42 130.613 53.5665 130.567C53.7186 130.523 53.8506 130.522 53.9626 130.565C54.1026 130.619 54.2339 130.737 54.3565 130.92L54.7174 130.509C54.6576 130.28 54.6634 130.073 54.7346 129.888C54.8187 129.67 54.9168 129.583 55.0287 129.626C55.1071 129.656 55.1458 129.764 55.1448 129.95C55.319 129.715 55.4732 129.482 55.6073 129.251C55.7492 129.016 55.8766 128.785 55.9896 128.559C55.4379 128.372 54.8816 128.264 54.3208 128.234C53.993 128.217 53.6884 128.231 53.4071 128.277C53.1279 128.318 52.8737 128.393 52.6445 128.504C52.3342 128.642 52.1252 128.851 52.0173 129.131C51.8382 129.595 51.9618 130.026 52.388 130.421C52.4229 130.448 52.4651 130.48 52.5146 130.518C52.5641 130.557 52.6248 130.599 52.6967 130.646C52.7282 130.665 52.7396 130.685 52.7309 130.708C52.7223 130.73 52.6956 130.733 52.6508 130.716L52.634 130.709C52.4604 130.642 52.3076 130.538 52.1754 130.397C52.0433 130.256 51.9236 130.091 51.8165 129.902C51.5975 129.503 51.5549 129.129 51.6886 128.782C51.7835 128.536 51.9717 128.348 52.2531 128.219C52.734 128.005 53.3688 127.935 54.1575 128.007C54.7855 128.063 55.4201 128.201 56.0614 128.423L56.2815 127.851C56.2988 127.807 56.3242 127.791 56.3578 127.804C56.3746 127.81 56.3776 127.827 56.3668 127.855C56.3322 128.029 56.2651 128.228 56.1654 128.453L56.5685 128.608C56.8037 128.699 57.0261 128.798 57.2358 128.904C57.4456 129.011 57.6454 129.126 57.8353 129.251C58.0712 129.406 58.2794 129.567 58.4598 129.733C58.6402 129.899 58.7934 130.077 58.9195 130.267C59.2466 130.753 59.3238 131.22 59.1512 131.668C58.9829 132.104 58.6164 132.413 58.0515 132.594C57.612 132.733 57.114 132.783 56.5575 132.742C56.2999 132.726 56.0348 132.688 55.7621 132.628C55.4895 132.568 55.211 132.49 54.9268 132.393L55.4683 134.367C55.5955 134.821 55.7224 135.201 55.8488 135.507C55.9753 135.813 56.0918 136.044 56.1986 136.201C56.4176 136.517 56.6279 136.714 56.8295 136.792C57.1486 136.914 57.3902 136.763 57.5541 136.338C57.7008 135.957 57.7175 135.555 57.604 135.132C57.598 135.098 57.5961 135.078 57.5982 135.072C57.6047 135.055 57.6163 135.05 57.6331 135.056C57.6611 135.067 57.6844 135.099 57.7029 135.151C57.8521 135.581 57.8544 135.984 57.7098 136.359C57.6063 136.628 57.4388 136.821 57.2074 136.937C56.9738 137.059 56.7227 137.069 56.454 136.965ZM54.8533 132.133C55.458 132.366 56.0286 132.512 56.5653 132.571C57.0194 132.611 57.4189 132.575 57.764 132.464C58.1979 132.323 58.4861 132.067 58.6285 131.698C58.7881 131.283 58.7374 130.839 58.4762 130.366C58.2585 129.98 57.9466 129.638 57.5405 129.34C57.3515 129.196 57.1494 129.07 56.934 128.961C56.7209 128.847 56.4995 128.746 56.27 128.657L56.102 128.593C56.0045 128.812 55.8859 129.037 55.7462 129.266C55.6086 129.489 55.4528 129.718 55.2786 129.953C55.3975 129.929 55.4849 129.927 55.5409 129.948C55.5969 129.97 55.613 130.012 55.5893 130.073C55.5462 130.185 55.4378 130.291 55.2641 130.392C55.1801 130.443 55.0975 130.482 55.0165 130.508C54.9411 130.537 54.869 130.558 54.8 130.57C54.7397 130.643 54.6765 130.715 54.6106 130.786C54.5502 130.859 54.4832 130.933 54.4095 131.007C54.4516 131.082 54.4944 131.162 54.5379 131.25C54.5813 131.337 54.6216 131.433 54.6585 131.537C55.0081 131.164 55.3384 130.758 55.6492 130.318C55.6962 130.246 55.7536 130.156 55.8213 130.047C55.8968 129.934 55.9843 129.807 56.0839 129.666C56.2012 129.512 56.3494 129.469 56.5285 129.538C56.6349 129.579 56.6719 129.642 56.6396 129.726C56.6288 129.754 56.6048 129.799 56.5677 129.862C56.5307 129.925 56.4804 130.005 56.417 130.103C56.1928 130.434 55.9451 130.76 55.674 131.08C55.4106 131.396 55.1254 131.711 54.8185 132.023L54.8533 132.133ZM53.794 131.503C53.8755 131.425 53.9552 131.344 54.0332 131.258C54.1169 131.174 54.1977 131.09 54.2757 131.004C54.1565 130.83 54.0381 130.72 53.9205 130.674C53.7582 130.612 53.6457 130.662 53.5831 130.824C53.5033 131.031 53.5736 131.258 53.794 131.503ZM54.3003 131.891C54.3478 131.852 54.3924 131.811 54.4342 131.769C54.476 131.728 54.5178 131.686 54.5596 131.644C54.4968 131.44 54.4188 131.259 54.3254 131.1C54.2495 131.181 54.1737 131.261 54.0978 131.341C54.0219 131.421 53.9433 131.5 53.8618 131.578C53.9836 131.695 54.1298 131.8 54.3003 131.891ZM58.0707 135.765C57.6732 135.612 57.5737 135.278 57.7722 134.763C57.8024 134.684 57.8375 134.601 57.8776 134.514C57.9255 134.423 57.9811 134.329 58.0445 134.231C58.0286 134.206 58.0148 134.175 58.0032 134.138C57.9938 134.096 57.9865 134.048 57.9814 133.995C58.0016 134.009 58.0197 134.029 58.0356 134.054C58.0593 134.076 58.0886 134.1 58.1234 134.127C58.2929 133.87 58.5676 133.658 58.9477 133.489C59.3609 133.301 59.6991 133.258 59.9623 133.359C60.0238 133.383 60.0514 133.403 60.0449 133.42C60.0406 133.431 59.9906 133.444 59.895 133.459C59.6447 133.491 59.3819 133.589 59.1065 133.753C58.829 133.923 58.604 134.106 58.4315 134.303L58.4419 134.326C58.7106 134.43 59.0402 134.409 59.4305 134.264C59.8209 134.118 60.0679 133.911 60.1714 133.643C60.2038 133.559 60.2105 133.474 60.1916 133.39C60.1727 133.305 60.1241 133.248 60.0457 133.218C59.9337 133.175 59.7905 133.171 59.616 133.207C59.4437 133.237 59.3491 133.249 59.3323 133.242C59.3211 133.238 59.3166 133.233 59.3188 133.227C59.3447 133.16 59.4707 133.125 59.6968 133.122C59.8907 133.12 60.0352 133.137 60.1304 133.173C60.2591 133.223 60.3515 133.3 60.4074 133.406C60.469 133.513 60.4749 133.631 60.4253 133.76C60.311 134.056 60.0067 134.27 59.5125 134.401C59.0705 134.514 58.6817 134.522 58.3462 134.425C58.2496 134.542 58.1776 134.662 58.1301 134.785C57.951 135.25 58.0295 135.547 58.3654 135.676C58.6229 135.775 58.9348 135.767 59.301 135.651C59.6074 135.557 59.8896 135.408 60.1478 135.206C60.2284 135.147 60.2855 135.124 60.3191 135.137C60.3247 135.139 60.3253 135.145 60.321 135.157C60.3124 135.179 60.2706 135.221 60.1956 135.282C59.9163 135.489 59.5757 135.647 59.1737 135.756C58.7351 135.877 58.3674 135.88 58.0707 135.765ZM62.2536 135.246C62.1808 135.217 62.1606 135.161 62.193 135.077C62.2059 135.044 62.2519 134.975 62.3308 134.87C62.4152 134.768 62.4726 134.677 62.5028 134.599C62.5999 134.347 62.5477 134.182 62.3461 134.104C62.2397 134.063 62.0948 134.056 61.9113 134.082C61.7243 134.1 61.628 134.107 61.6224 134.105C61.6 134.097 61.592 134.084 61.5985 134.067C61.6287 133.989 61.7659 133.958 62.0102 133.975C62.1997 133.984 62.3533 134.011 62.4708 134.056C62.7732 134.173 62.8542 134.413 62.714 134.777C62.6752 134.877 62.6135 134.979 62.529 135.082C62.4126 135.217 62.3208 135.271 62.2536 135.246ZM60.216 136.679C59.8297 136.53 59.7207 136.237 59.8889 135.8C60.0572 135.364 60.3726 134.971 60.835 134.622C61.366 134.228 61.833 134.109 62.2362 134.265C62.2977 134.288 62.3242 134.311 62.3156 134.334C62.3091 134.351 62.2369 134.371 62.0991 134.395C61.76 134.457 61.4183 134.618 61.074 134.878C60.7042 135.153 60.4632 135.436 60.351 135.728C60.1762 136.181 60.2596 136.474 60.6011 136.605C60.8139 136.687 61.0814 136.694 61.4037 136.625C61.5437 136.596 61.6764 136.56 61.8018 136.518C61.9349 136.473 62.059 136.418 62.1741 136.353C62.215 136.33 62.2648 136.301 62.3234 136.266C62.382 136.231 62.4477 136.185 62.5206 136.13C62.6033 136.065 62.6587 136.038 62.6867 136.049C62.6867 136.049 62.6901 136.057 62.697 136.072C62.6905 136.089 62.647 136.127 62.5664 136.186C62.4151 136.295 62.2453 136.393 62.057 136.481C61.8709 136.564 61.6645 136.632 61.4379 136.687C60.9424 136.804 60.5351 136.802 60.216 136.679ZM62.6037 137.396C62.3854 137.312 62.3301 137.13 62.438 136.85C62.5696 136.509 62.8332 136.208 63.2288 135.949C63.2234 135.696 63.2681 135.447 63.3631 135.2C63.4558 134.96 63.5843 134.768 63.7486 134.626C64.0636 134.342 64.3611 134.254 64.6411 134.362C64.9882 134.496 65.0754 134.87 64.9027 135.485C65.0405 135.545 65.1268 135.629 65.1616 135.739C65.2042 135.846 65.1975 135.972 65.1414 136.117C65.0982 136.229 65.0529 136.305 65.0055 136.345C64.9659 136.381 64.9348 136.394 64.9125 136.386C64.8901 136.377 64.8832 136.362 64.8918 136.339C64.9026 136.311 64.9183 136.279 64.939 136.242C64.9653 136.207 64.9893 136.161 65.0108 136.105C65.0411 136.027 65.0357 135.958 64.9948 135.897C64.9561 135.83 64.8947 135.781 64.8108 135.749C64.4804 136.406 64.1135 136.866 63.7101 137.128L63.9704 137.228C63.8804 137.245 63.8074 137.243 63.7514 137.221C63.7402 137.217 63.7245 137.208 63.7043 137.193C63.6896 137.181 63.6767 137.173 63.6655 137.169C63.6745 137.179 63.541 137.233 63.2648 137.333C62.9752 137.433 62.7549 137.454 62.6037 137.396ZM63.3568 135.892C63.8752 135.565 64.3436 135.418 64.7619 135.45C64.8354 134.925 64.7742 134.625 64.5783 134.55C64.3991 134.481 64.166 134.594 63.8789 134.888C63.6931 135.086 63.5495 135.317 63.4481 135.58C63.4071 135.687 63.3767 135.791 63.3568 135.892ZM63.4576 136.983C63.6394 136.911 63.8693 136.723 64.1474 136.419C64.4353 136.106 64.6128 135.862 64.6796 135.688C64.55 135.658 64.3126 135.698 63.9675 135.809C63.6301 135.917 63.4069 136.021 63.2979 136.121C63.2515 136.591 63.3047 136.879 63.4576 136.983ZM62.726 137.154C62.8828 137.214 63.11 137.167 63.4078 137.012C63.2317 136.918 63.1657 136.639 63.2099 136.173C62.9065 136.41 62.7214 136.615 62.6545 136.789C62.579 136.985 62.6028 137.107 62.726 137.154ZM64.8041 138.302C64.7649 138.287 64.721 138.251 64.6723 138.193C64.6258 138.13 64.6091 138.082 64.622 138.049L64.8102 137.861C64.9895 137.679 65.161 137.501 65.3248 137.326C65.4964 137.148 65.6512 136.963 65.7892 136.772C65.9185 136.603 66.0371 136.379 66.145 136.099C66.1066 136.148 66.0389 136.216 65.9419 136.3C65.845 136.385 65.7176 136.49 65.5599 136.616C65.4099 136.738 65.278 136.839 65.1642 136.917C65.0582 136.992 64.9709 137.051 64.9024 137.096C64.9002 137.101 64.8936 137.102 64.8824 137.098C64.8544 137.087 64.8447 137.07 64.8533 137.048C64.8576 137.037 64.8637 137.029 64.8714 137.026L65.2903 136.715C65.5343 136.532 65.7388 136.36 65.9039 136.199C66.0711 136.032 66.2035 135.88 66.3009 135.744C66.3906 135.612 66.4746 135.56 66.553 135.591C66.6426 135.625 66.6442 135.754 66.5579 135.978C66.4026 136.381 66.0829 136.827 65.5988 137.316C66.0479 137.052 66.3549 136.881 66.5199 136.803C66.9707 136.584 67.2856 136.509 67.4648 136.578C67.6439 136.648 67.6882 136.8 67.5976 137.035C67.535 137.197 67.4352 137.323 67.2982 137.411C67.1314 137.527 67.0032 137.568 66.9136 137.533C66.8968 137.527 66.8928 137.512 66.9014 137.49C66.9014 137.49 66.9591 137.432 67.0747 137.316C67.1902 137.199 67.2674 137.091 67.3062 136.99C67.3645 136.839 67.346 136.745 67.2508 136.708C67.1052 136.652 66.8211 136.739 66.3984 136.968C66.2212 137.061 66.0642 137.151 65.9271 137.24C65.7922 137.323 65.6785 137.401 65.5858 137.475C65.5737 137.489 65.5198 137.546 65.4242 137.644C65.3285 137.742 65.1972 137.891 65.0304 138.09L64.8525 138.301C64.837 138.308 64.8209 138.309 64.8041 138.302ZM68.8163 139.887C68.4915 139.762 68.4198 139.464 68.601 138.994C68.6895 138.764 68.8715 138.442 69.147 138.027C68.7349 138.396 68.4233 138.645 68.2122 138.776C67.7558 139.076 67.3988 139.177 67.1413 139.077C66.8781 138.976 66.8135 138.752 66.9472 138.405C67.1522 137.873 67.6528 137.416 68.4491 137.035C69.2455 136.654 69.927 136.537 70.4938 136.685C70.7313 136.436 70.9607 136.199 71.1818 135.976C71.4029 135.752 71.6131 135.541 71.8122 135.341C71.8937 135.263 71.9861 135.173 72.0896 135.072C72.1986 134.972 72.3187 134.861 72.4497 134.738C72.5945 134.646 72.7705 134.64 72.9776 134.719C73.056 134.75 73.0877 134.784 73.0726 134.824C73.0726 134.824 73.0627 134.833 73.0428 134.851C72.9635 134.923 72.8577 135.014 72.7254 135.124C72.5987 135.236 72.4532 135.363 72.289 135.505C72.0256 135.738 71.7661 135.969 71.5106 136.199C71.2627 136.425 71.0237 136.645 70.7935 136.858C70.8542 136.901 70.8684 136.964 70.8361 137.048C70.7929 137.16 70.6582 137.301 70.4319 137.471C70.2113 137.643 70.0432 137.746 69.9277 137.778C69.8307 137.863 69.7329 137.967 69.6342 138.09C69.5354 138.212 69.4324 138.346 69.325 138.491C69.2233 138.639 69.1342 138.778 69.0579 138.909C68.9872 139.043 68.9302 139.165 68.8871 139.277C68.7814 139.552 68.8013 139.717 68.9469 139.773C69.1148 139.838 69.3774 139.765 69.7347 139.556C69.8497 139.491 70.0883 139.322 70.4503 139.05C70.4912 139.028 70.5173 139.018 70.5285 139.023C70.5453 139.029 70.5505 139.041 70.544 139.058C70.544 139.058 70.5319 139.072 70.5078 139.101C69.7552 139.77 69.1914 140.031 68.8163 139.887ZM67.303 138.783C67.7117 138.94 68.2879 138.638 69.0314 137.877C68.9121 137.869 68.8189 137.853 68.7517 137.827C68.7293 137.818 68.7224 137.803 68.731 137.78C68.744 137.747 68.794 137.734 68.881 137.742C68.9701 137.744 69.0819 137.729 69.2164 137.697C69.2603 137.65 69.3065 137.597 69.3547 137.538C69.4108 137.476 69.4662 137.408 69.5209 137.332C69.555 137.294 69.5832 137.279 69.6056 137.288C69.6448 137.303 69.6547 137.336 69.6353 137.386C69.6159 137.436 69.5551 137.519 69.4529 137.634L69.6461 137.583L70.3354 136.846C69.8866 136.776 69.2987 136.899 68.5718 137.217C67.825 137.553 67.374 137.923 67.2187 138.326C67.1237 138.572 67.1519 138.725 67.303 138.783ZM72.1126 137.743C72.0006 137.699 71.9673 137.619 72.0126 137.502C72.0341 137.446 72.0936 137.391 72.191 137.339C72.2962 137.283 72.3821 137.252 72.4489 137.245C72.6871 137.228 72.8258 137.227 72.865 137.242C72.8818 137.248 72.8881 137.257 72.8837 137.268C72.8773 137.285 72.7816 137.341 72.5967 137.437C72.5812 137.444 72.5058 137.515 72.3704 137.649C72.2657 137.737 72.1798 137.768 72.1126 137.743ZM70.5699 140.244C70.2843 140.134 70.1966 139.936 70.3066 139.651C70.3886 139.438 70.5481 139.191 70.7852 138.909L70.5435 139.086C70.4232 139.181 70.3491 139.224 70.3211 139.213C70.3099 139.208 70.3075 139.198 70.314 139.181C70.3313 139.136 70.3643 139.101 70.4129 139.075C70.6185 138.942 70.8694 138.733 71.1655 138.448C71.1995 138.41 71.2435 138.363 71.2974 138.306C71.3569 138.252 71.4252 138.191 71.5023 138.125C71.5498 138.085 71.6294 138.087 71.7414 138.13C71.8366 138.167 71.8734 138.213 71.8518 138.269C71.8281 138.331 71.7677 138.404 71.6708 138.489C71.5772 138.581 71.5048 138.627 71.4536 138.627C70.938 139.097 70.6274 139.469 70.5217 139.743C70.4505 139.928 70.4765 140.044 70.5997 140.092C70.8012 140.169 71.0785 140.109 71.4314 139.911C71.7955 139.717 71.9748 139.619 71.9692 139.616C71.9804 139.621 71.9828 139.631 71.9763 139.648C71.9741 139.654 71.961 139.671 71.9368 139.7C71.8519 139.771 71.752 139.838 71.6369 139.903C71.5296 139.965 71.4089 140.027 71.2749 140.092C70.9336 140.243 70.6986 140.294 70.5699 140.244ZM71.3221 140.891C71.2717 140.872 71.2605 140.825 71.2886 140.753L71.295 140.736C71.3476 140.666 71.4078 140.577 71.4755 140.468C71.5488 140.361 71.6324 140.236 71.7264 140.092C71.8204 139.948 71.9379 139.768 72.0789 139.553C72.2221 139.331 72.3905 139.078 72.5841 138.792L72.5772 138.51C72.5772 138.426 72.5753 138.365 72.5715 138.325C72.5732 138.287 72.5741 138.268 72.5741 138.268C72.5892 138.228 72.6508 138.21 72.7589 138.214C73.0798 138.215 73.2795 138.231 73.3579 138.261C73.4419 138.293 73.4741 138.335 73.4547 138.385C73.4556 138.366 73.1748 138.67 72.6122 139.295L72.5831 139.371C72.5227 139.527 72.4673 139.596 72.4169 139.577C72.4113 139.575 72.4061 139.563 72.4014 139.542C72.3027 139.665 72.2061 139.782 72.1117 139.893C72.025 140.001 71.9412 140.11 71.8601 140.221C72.061 140.066 72.2614 139.922 72.4613 139.787C72.6669 139.654 72.8709 139.533 73.0735 139.425C73.6811 139.099 74.122 138.99 74.3964 139.095C74.5251 139.145 74.5701 139.22 74.5313 139.321C74.5183 139.354 74.4938 139.393 74.4575 139.437C74.3394 139.61 74.185 139.827 73.9945 140.088C73.8061 140.344 73.5853 140.641 73.3322 140.981C73.7497 140.865 74.1009 140.705 74.3858 140.499C74.4267 140.477 74.4528 140.467 74.464 140.472C74.4808 140.478 74.4849 140.493 74.4762 140.515C74.4719 140.526 74.456 140.543 74.4284 140.564C74.0138 140.906 73.5805 141.138 73.1285 141.259C73.0932 141.284 73.0503 141.287 72.9999 141.267C72.9607 141.252 72.9498 141.222 72.967 141.178C72.9713 141.166 72.9991 141.119 73.0505 141.036C73.1039 140.947 73.177 140.825 73.2697 140.667C73.3452 140.555 73.4168 140.444 73.4845 140.335C73.5522 140.226 73.621 140.115 73.6908 140C73.8357 139.741 73.9537 139.51 74.0447 139.307C73.9 139.316 73.73 139.356 73.5348 139.429C73.3474 139.498 73.1302 139.594 72.8833 139.718C72.6597 139.831 72.4589 139.943 72.2809 140.055C72.1106 140.163 71.9632 140.27 71.8387 140.376C71.7021 140.497 71.5807 140.637 71.4746 140.795C71.4177 140.876 71.3669 140.908 71.3221 140.891ZM72.7219 138.585L72.9042 138.337C72.8676 138.349 72.8036 138.356 72.7123 138.36L72.7219 138.585ZM71.0217 144.952C69.9859 144.552 69.5878 144.042 69.8272 143.421C69.8423 143.381 69.8602 143.343 69.8809 143.306C69.8939 143.273 69.9107 143.237 69.9314 143.2C70.0582 143.005 70.3086 142.806 70.6826 142.602C71.9332 141.927 73.403 141.892 75.0921 142.498L75.0836 141.694C74.7186 141.824 74.4242 141.845 74.2002 141.759C73.9987 141.681 73.94 141.533 74.0241 141.315C74.1816 140.906 74.5859 140.541 75.237 140.22C75.2508 140.167 75.2636 140.117 75.2753 140.071C75.2947 140.02 75.313 139.973 75.3303 139.928C75.4619 139.586 75.6395 139.317 75.8632 139.12C76.1464 138.869 76.442 138.803 76.7499 138.922C76.7835 138.935 76.8132 138.95 76.839 138.966C76.8726 138.979 76.9023 138.994 76.9282 139.01C77.0462 139.088 77.1042 139.229 77.1024 139.434C77.0992 139.626 77.0634 139.785 76.9948 139.913C77.4084 139.841 77.6702 139.662 77.7802 139.377C77.8191 139.276 77.8497 139.23 77.8721 139.239C77.9281 139.26 77.9183 139.369 77.8428 139.565C77.6982 139.94 77.3744 140.146 76.8712 140.184C76.7254 140.462 76.4989 140.741 76.1915 141.022C75.8622 141.326 75.5616 141.522 75.2898 141.61C75.3112 141.721 75.3314 141.86 75.3502 142.028C75.3747 142.199 75.4006 142.398 75.428 142.628C75.8738 142.806 76.2084 142.964 76.4319 143.101C76.515 143.152 76.5511 143.192 76.5403 143.22C76.5252 143.259 76.4729 143.262 76.3833 143.227C76.3329 143.208 76.2696 143.18 76.1934 143.144C76.1172 143.108 76.028 143.064 75.926 143.012C75.7253 142.916 75.5662 142.845 75.4486 142.799C75.4923 143.253 75.4601 143.62 75.3523 143.9C75.0955 144.567 74.4534 144.982 73.4259 145.145C72.5341 145.29 71.7327 145.226 71.0217 144.952ZM75.3986 140.176C75.4762 140.142 75.5621 140.11 75.6565 140.082C75.7564 140.057 75.8648 140.034 75.9815 140.015L76.5871 139.92C76.6099 139.878 76.63 139.834 76.6472 139.789C76.6701 139.746 76.6891 139.706 76.7042 139.666C76.8315 139.336 76.8167 139.141 76.66 139.08C76.5256 139.028 76.3485 139.079 76.1287 139.232C75.9542 139.352 75.8066 139.484 75.6858 139.631C75.5729 139.774 75.4862 139.924 75.4258 140.08C75.4085 140.125 75.3995 140.157 75.3986 140.176ZM75.2776 141.441C75.4594 141.37 75.6883 141.185 75.9642 140.886C76.2246 140.594 76.3925 140.35 76.468 140.154C75.986 140.187 75.6086 140.257 75.3358 140.364C75.3021 140.518 75.2792 140.686 75.267 140.868C75.2626 141.046 75.2661 141.237 75.2776 141.441ZM74.4027 141.509C74.6098 141.589 74.8377 141.59 75.0863 141.512C75.0817 141.24 75.0823 141.064 75.0879 140.982C75.0966 140.876 75.1077 140.781 75.1211 140.696C75.1345 140.611 75.1496 140.53 75.1664 140.453C74.6933 140.746 74.4168 140.997 74.3369 141.204C74.2744 141.366 74.2963 141.468 74.4027 141.509ZM71.0618 144.822C71.6721 145.057 72.4098 145.062 73.2749 144.836C74.2034 144.596 74.7798 144.185 75.0042 143.602C75.0711 143.429 75.1005 143.119 75.0927 142.672C74.6417 142.524 74.208 142.415 73.7915 142.344C73.3784 142.281 72.9798 142.256 72.5955 142.269C71.6176 142.304 70.8633 142.617 70.3327 143.21C70.2568 143.29 70.2005 143.378 70.1639 143.473C70.0581 143.748 70.1157 144.024 70.3365 144.302C70.5233 144.534 70.7651 144.708 71.0618 144.822Z" fill="black"/>
<path d="M82.415 143.973C82.181 143.973 82.064 143.823 82.064 143.523C82.064 143.157 82.202 142.782 82.478 142.398C82.382 142.164 82.334 141.915 82.334 141.651C82.334 141.393 82.385 141.168 82.487 140.976C82.679 140.598 82.925 140.409 83.225 140.409C83.597 140.409 83.813 140.727 83.873 141.363C84.023 141.369 84.134 141.417 84.206 141.507C84.284 141.591 84.323 141.711 84.323 141.867C84.323 141.987 84.308 142.074 84.278 142.128C84.254 142.176 84.23 142.2 84.206 142.2C84.182 142.2 84.17 142.188 84.17 142.164C84.17 142.134 84.173 142.098 84.179 142.056C84.191 142.014 84.197 141.963 84.197 141.903C84.197 141.819 84.167 141.756 84.107 141.714C84.047 141.666 83.972 141.642 83.882 141.642C83.81 142.374 83.633 142.935 83.351 143.325H83.63C83.552 143.373 83.483 143.397 83.423 143.397C83.411 143.397 83.393 143.394 83.369 143.388C83.351 143.382 83.336 143.379 83.324 143.379C83.336 143.385 83.231 143.484 83.009 143.676C82.775 143.874 82.577 143.973 82.415 143.973ZM82.577 142.299C82.943 141.807 83.327 141.501 83.729 141.381C83.609 140.865 83.444 140.607 83.234 140.607C83.042 140.607 82.865 140.796 82.703 141.174C82.601 141.426 82.55 141.693 82.55 141.975C82.55 142.089 82.559 142.197 82.577 142.299ZM83.063 143.28C83.207 143.148 83.354 142.89 83.504 142.506C83.66 142.11 83.738 141.819 83.738 141.633C83.606 141.651 83.399 141.774 83.117 142.002C82.841 142.224 82.67 142.401 82.604 142.533C82.73 142.989 82.883 143.238 83.063 143.28ZM82.442 143.703C82.61 143.703 82.805 143.577 83.027 143.325C82.829 143.301 82.667 143.064 82.541 142.614C82.343 142.944 82.244 143.202 82.244 143.388C82.244 143.598 82.31 143.703 82.442 143.703ZM85.0974 144.27C84.9594 144.27 84.8844 144.219 84.8724 144.117C84.8724 144.117 84.8754 144.072 84.8814 143.982C84.8934 143.892 84.9114 143.757 84.9354 143.577C84.9414 143.553 84.9444 143.511 84.9444 143.451C84.9444 143.385 84.9444 143.295 84.9444 143.181C84.9444 142.557 84.8424 142.143 84.6384 141.939L84.4494 141.813C84.3834 141.765 84.3504 141.702 84.3504 141.624C84.3504 141.51 84.4014 141.453 84.5034 141.453C84.5214 141.453 84.5424 141.453 84.5664 141.453C84.5964 141.453 84.6324 141.456 84.6744 141.462H84.8544C85.1304 141.462 85.4514 141.417 85.8174 141.327C86.5014 140.067 87.2574 139.08 88.0854 138.366C88.3314 138.156 88.5294 138.051 88.6794 138.051C88.8714 138.051 88.9674 138.195 88.9674 138.483C88.9674 138.777 88.8834 139.044 88.7154 139.284C88.6134 139.422 88.5324 139.491 88.4724 139.491C88.4484 139.491 88.4364 139.479 88.4364 139.455C88.4364 139.431 88.4934 139.317 88.6074 139.113C88.7274 138.891 88.7874 138.717 88.7874 138.591C88.7874 138.441 88.7184 138.366 88.5804 138.366C88.3584 138.366 88.0344 138.609 87.6084 139.095C87.3084 139.431 87.0414 139.782 86.8074 140.148C86.5794 140.514 86.3724 140.874 86.1864 141.228C86.2404 141.222 86.4894 141.141 86.9334 140.985C87.3474 140.847 87.5544 140.778 87.5544 140.778C87.5784 140.778 87.5904 140.784 87.5904 140.796C87.5904 140.832 87.5364 140.874 87.4284 140.922C87.2424 141 87.0384 141.078 86.8164 141.156C86.6004 141.234 86.3634 141.312 86.1054 141.39C85.9194 141.756 85.7664 142.107 85.6464 142.443C85.5324 142.779 85.4454 143.103 85.3854 143.415L85.3044 144.117C85.2924 144.219 85.2234 144.27 85.0974 144.27ZM85.0884 142.965C85.1664 142.737 85.2564 142.5 85.3584 142.254C85.4664 142.008 85.5894 141.753 85.7274 141.489C85.4874 141.549 85.1574 141.612 84.7374 141.678C84.9354 141.786 85.0524 142.215 85.0884 142.965Z" fill="black"/>
<path d="M94.6965 143.827C94.4837 143.909 94.2457 143.917 93.9825 143.852C93.6981 143.781 93.515 143.639 93.433 143.427C93.3316 143.164 93.3922 142.912 93.6148 142.672C93.781 142.486 94.0124 142.335 94.3092 142.221C94.4659 142.161 94.6365 142.111 94.8208 142.072C95.0052 142.033 95.2061 142.004 95.4237 141.985C95.6425 141.335 95.7614 140.575 95.7803 139.706C95.6915 139.592 95.6176 139.492 95.5585 139.406C95.5029 139.311 95.4611 139.228 95.433 139.155C95.3554 138.954 95.3557 138.838 95.4341 138.807C95.5237 138.773 95.6366 138.832 95.7728 138.986C95.8212 138.51 95.7585 137.747 95.5848 136.695C94.4353 137.183 93.6728 137.866 93.2972 138.743C93.1596 139.054 93.1457 139.352 93.2557 139.637C93.342 139.861 93.4963 140.036 93.7187 140.163C93.9178 140.279 94.1465 140.339 94.405 140.342C94.4429 140.34 94.4931 140.337 94.5556 140.332C94.618 140.328 94.6889 140.319 94.7681 140.308C94.8039 140.301 94.825 140.306 94.8315 140.322C94.8423 140.35 94.8281 140.372 94.7889 140.387L94.7604 140.388C94.4025 140.494 94.0228 140.476 93.6212 140.335C93.183 140.183 92.8992 139.938 92.7698 139.602C92.6727 139.351 92.6879 139.081 92.8152 138.794C93.0277 138.294 93.4141 137.837 93.9743 137.422C94.4368 137.07 94.9675 136.779 95.5666 136.548C95.5325 136.426 95.5029 136.299 95.4779 136.167C95.4562 136.028 95.4374 135.887 95.4214 135.745C95.446 135.742 95.482 135.802 95.5294 135.926C95.5575 135.998 95.5842 136.084 95.6097 136.184C95.633 136.278 95.655 136.385 95.6758 136.506C95.8907 136.429 96.1032 136.364 96.3134 136.308C96.5271 136.245 96.7377 136.199 96.9453 136.171C97.166 135.726 97.4528 135.435 97.8055 135.299C98.0127 135.22 98.2143 135.226 98.4103 135.317C98.6064 135.409 98.7443 135.558 98.8241 135.765C98.8543 135.844 98.8554 135.888 98.8274 135.899C98.805 135.908 98.7552 135.837 98.678 135.687C98.5474 135.448 98.3169 135.392 97.9865 135.519C97.7626 135.605 97.56 135.805 97.3788 136.12C97.767 136.092 98.1219 136.129 98.4438 136.23C98.8445 136.352 99.1052 136.57 99.226 136.884C99.3727 137.264 99.2697 137.648 98.9172 138.035C98.6481 138.338 98.3051 138.582 97.8882 138.769C99.2543 138.86 100.079 139.272 100.361 140.005C100.495 140.352 100.461 140.7 100.261 141.047C100.066 141.392 99.7894 141.634 99.431 141.772C98.8935 141.979 98.3918 142.095 97.9257 142.12L96.3884 142.086C96.3028 142.331 96.2082 142.544 96.1045 142.725C96.0085 142.91 95.8996 143.062 95.7778 143.179C95.544 143.424 95.1836 143.64 94.6965 143.827ZM96.0491 141.956C96.1816 141.615 96.2737 141.078 96.3254 140.345C96.3476 140.002 96.3709 139.662 96.3953 139.325C96.4175 138.982 96.4425 138.638 96.4703 138.293C96.5114 137.865 96.5652 137.488 96.6318 137.16C96.704 136.83 96.7878 136.547 96.8833 136.311C96.4991 136.381 96.1279 136.486 95.7695 136.624L95.7024 136.65C95.794 137.238 95.8565 137.976 95.8897 138.863C95.9508 138.788 96.001 138.743 96.0402 138.728C96.085 138.711 96.1182 138.73 96.1397 138.786C96.2001 138.943 96.1131 139.26 95.8786 139.736C95.8599 140.154 95.8202 140.552 95.7597 140.929C95.7026 141.299 95.619 141.649 95.5089 141.981C95.596 141.973 95.684 141.968 95.7732 141.966C95.868 141.961 95.96 141.958 96.0491 141.956ZM99.3043 141.618C100.06 141.327 100.339 140.924 100.14 140.409C99.8751 139.72 99.1876 139.329 98.0778 139.236C98.0132 139.235 97.9324 139.234 97.8355 139.233C97.7364 139.226 97.6212 139.219 97.4898 139.211C97.4687 139.207 97.4495 139.182 97.4322 139.137C97.3719 138.98 97.4164 138.854 97.5658 138.758L97.7338 138.693C97.782 138.668 97.8302 138.643 97.8785 138.618C97.9267 138.593 97.9721 138.569 98.0148 138.546C98.3214 138.357 98.547 138.142 98.6916 137.9C98.8758 137.61 98.9096 137.314 98.7932 137.012C98.6875 136.737 98.4834 136.533 98.1809 136.399C97.9215 136.293 97.6307 136.248 97.3085 136.262C97.0912 136.7 96.9494 137.291 96.883 138.037L96.7621 140.051C96.7108 140.836 96.6048 141.462 96.4439 141.929L97.8868 141.894C98.4231 141.868 98.8956 141.775 99.3043 141.618ZM94.6808 143.611C94.972 143.499 95.2493 143.293 95.5127 142.992C95.7874 142.687 95.9561 142.39 96.0188 142.103C95.931 142.091 95.8413 142.084 95.75 142.081C95.6643 142.075 95.5712 142.076 95.4709 142.082C95.2937 142.607 95.0847 142.916 94.844 143.009C94.7264 143.054 94.6547 143.043 94.6288 142.976C94.618 142.948 94.6294 142.927 94.663 142.914C94.6742 142.91 94.6977 142.904 94.7334 142.897C94.7713 142.895 94.7987 142.891 94.8155 142.884C95.0282 142.803 95.2193 142.539 95.3888 142.095C94.9852 142.115 94.621 142.188 94.2963 142.313C94.0667 142.401 93.8747 142.52 93.7201 142.67C93.5238 142.861 93.4666 143.063 93.5486 143.276C93.6262 143.478 93.7878 143.605 94.0334 143.658C94.2579 143.707 94.4737 143.691 94.6808 143.611ZM101.906 140.105C101.508 140.258 101.21 140.077 101.012 139.562C100.981 139.483 100.952 139.398 100.923 139.307C100.897 139.207 100.875 139.1 100.857 138.985C100.828 138.977 100.797 138.963 100.764 138.944C100.728 138.919 100.691 138.888 100.651 138.852C100.676 138.849 100.703 138.851 100.731 138.86C100.764 138.86 100.802 138.858 100.845 138.854C100.799 138.551 100.86 138.209 101.029 137.829C101.209 137.412 101.431 137.153 101.694 137.052C101.755 137.028 101.789 137.024 101.796 137.041C101.8 137.052 101.772 137.096 101.711 137.171C101.547 137.362 101.418 137.611 101.323 137.918C101.231 138.23 101.188 138.517 101.192 138.779L101.215 138.789C101.484 138.685 101.714 138.449 101.906 138.079C102.098 137.709 102.142 137.39 102.039 137.121C102.007 137.037 101.955 136.97 101.884 136.92C101.814 136.87 101.739 136.861 101.661 136.891C101.549 136.934 101.44 137.027 101.335 137.171C101.227 137.309 101.165 137.381 101.148 137.387C101.137 137.392 101.13 137.391 101.128 137.385C101.102 137.318 101.172 137.208 101.338 137.054C101.48 136.922 101.598 136.838 101.694 136.801C101.822 136.751 101.943 136.747 102.055 136.787C102.172 136.825 102.256 136.909 102.306 137.038C102.42 137.335 102.338 137.697 102.06 138.126C101.807 138.506 101.524 138.773 101.21 138.926C101.217 139.077 101.244 139.215 101.292 139.338C101.471 139.803 101.728 139.97 102.064 139.841C102.322 139.742 102.548 139.526 102.741 139.194C102.905 138.919 103.015 138.62 103.07 138.296C103.09 138.198 103.117 138.143 103.151 138.13C103.156 138.128 103.161 138.132 103.166 138.144C103.174 138.166 103.171 138.225 103.157 138.321C103.089 138.662 102.942 139.008 102.717 139.358C102.473 139.741 102.202 139.99 101.906 140.105ZM104.382 139.15C103.985 139.304 103.687 139.123 103.488 138.608C103.458 138.529 103.429 138.444 103.4 138.352C103.374 138.253 103.352 138.146 103.334 138.031C103.305 138.022 103.274 138.009 103.241 137.989C103.205 137.964 103.168 137.934 103.128 137.898C103.153 137.895 103.179 137.897 103.208 137.905C103.241 137.906 103.278 137.904 103.322 137.9C103.276 137.596 103.337 137.255 103.506 136.875C103.686 136.458 103.908 136.199 104.171 136.097C104.232 136.074 104.266 136.07 104.273 136.087C104.277 136.098 104.249 136.141 104.188 136.216C104.024 136.408 103.894 136.657 103.8 136.964C103.708 137.275 103.664 137.562 103.669 137.824L103.692 137.835C103.961 137.731 104.191 137.494 104.383 137.125C104.575 136.755 104.619 136.436 104.516 136.167C104.483 136.083 104.432 136.016 104.361 135.966C104.291 135.916 104.216 135.906 104.138 135.937C104.026 135.98 103.917 136.073 103.811 136.217C103.704 136.354 103.642 136.427 103.625 136.433C103.614 136.437 103.607 136.437 103.605 136.431C103.579 136.364 103.649 136.253 103.815 136.1C103.957 135.968 104.075 135.883 104.171 135.847C104.299 135.797 104.42 135.793 104.532 135.833C104.649 135.871 104.733 135.955 104.783 136.084C104.897 136.38 104.815 136.743 104.536 137.172C104.284 137.552 104.001 137.818 103.687 137.972C103.694 138.123 103.721 138.261 103.769 138.384C103.948 138.848 104.205 139.016 104.541 138.887C104.799 138.787 105.024 138.572 105.218 138.24C105.382 137.965 105.492 137.665 105.547 137.342C105.567 137.244 105.594 137.189 105.628 137.176C105.633 137.174 105.638 137.178 105.643 137.189C105.651 137.212 105.648 137.271 105.634 137.366C105.566 137.708 105.419 138.053 105.194 138.404C104.95 138.787 104.679 139.036 104.382 139.15ZM107.144 138.135C106.864 138.243 106.658 138.126 106.527 137.784C106.432 137.538 106.376 137.209 106.359 136.798C106.309 136.733 106.245 136.684 106.167 136.65C106.093 136.608 106.001 136.585 105.89 136.583L105.366 136.573C105.28 136.567 105.221 136.522 105.189 136.438C105.154 136.349 105.173 136.28 105.245 136.233L105.471 136.146C105.768 136.032 106.066 135.878 106.365 135.686L106.367 135.666L106.449 134.226L106.475 133.57C106.481 133.452 106.571 133.359 106.745 133.293C106.862 133.247 106.932 133.253 106.953 133.309C106.962 133.331 106.95 133.609 106.918 134.142C106.887 134.681 106.864 134.97 106.846 135.009L106.755 135.198L106.732 135.438C106.806 135.378 106.93 135.276 107.106 135.131C107.285 134.978 107.515 134.783 107.797 134.546C107.817 134.532 107.835 134.522 107.852 134.515C107.867 134.503 107.877 134.496 107.883 134.494C107.905 134.485 107.918 134.486 107.923 134.498C107.959 134.593 107.556 134.957 106.714 135.59C106.686 135.852 106.663 136.076 106.645 136.263C106.625 136.444 106.613 136.59 106.611 136.7C106.608 137.126 106.663 137.487 106.778 137.784C106.849 137.969 106.946 138.037 107.069 137.99C107.22 137.932 107.378 137.749 107.542 137.441L107.794 136.968C107.811 136.961 107.823 136.967 107.829 136.983C107.836 137 107.837 137.029 107.833 137.069C107.795 137.238 107.707 137.435 107.57 137.662C107.409 137.93 107.267 138.087 107.144 138.135ZM106.347 136.667C106.343 136.54 106.341 136.409 106.341 136.274C106.346 136.137 106.352 135.996 106.361 135.852C106.234 135.939 106.103 136.025 105.968 136.109C105.839 136.191 105.709 136.27 105.577 136.346C105.927 136.385 106.183 136.492 106.347 136.667ZM108.845 137.248C108.565 137.356 108.37 137.267 108.26 136.981C108.141 136.673 108.076 136.078 108.064 135.195C107.997 135.44 107.936 135.573 107.88 135.594C107.863 135.601 107.852 135.596 107.845 135.579C107.843 135.573 107.878 135.447 107.95 135.201C107.986 135.078 108.014 134.983 108.034 134.918C108.057 134.844 108.068 134.798 108.068 134.779C108.065 134.69 108.066 134.574 108.069 134.432C108.072 134.289 108.076 134.127 108.083 133.944C108.099 133.616 108.117 133.288 108.138 132.958C108.156 132.623 108.181 132.286 108.211 131.947C108.219 131.834 108.231 131.698 108.246 131.537C108.267 131.375 108.292 131.189 108.32 130.978C108.345 130.86 108.441 130.768 108.609 130.703C108.71 130.664 108.77 130.67 108.79 130.72C108.796 130.737 108.799 130.752 108.797 130.766L108.732 131.948L108.703 132.422C108.672 132.46 108.638 132.521 108.6 132.607C108.6 132.607 108.592 132.677 108.576 132.819C108.565 132.958 108.542 133.166 108.507 133.443C108.309 135.281 108.3 136.435 108.482 136.906C108.553 137.09 108.65 137.159 108.773 137.112C108.913 137.058 109.048 136.916 109.178 136.686C109.311 136.448 109.373 136.331 109.361 136.335C109.384 136.327 109.399 136.333 109.408 136.356C109.417 136.378 109.414 136.405 109.4 136.436C109.288 136.878 109.103 137.149 108.845 137.248ZM110.41 136.828C110.013 136.981 109.715 136.8 109.517 136.285C109.486 136.207 109.457 136.122 109.428 136.03C109.402 135.93 109.38 135.823 109.362 135.708C109.333 135.7 109.302 135.686 109.269 135.667C109.233 135.642 109.196 135.611 109.156 135.575C109.181 135.572 109.207 135.575 109.236 135.583C109.269 135.583 109.307 135.582 109.35 135.578C109.304 135.274 109.365 134.932 109.534 134.552C109.714 134.135 109.936 133.876 110.199 133.775C110.26 133.751 110.294 133.748 110.301 133.765C110.305 133.776 110.277 133.819 110.216 133.894C110.052 134.086 109.922 134.335 109.828 134.641C109.736 134.953 109.693 135.24 109.697 135.502L109.72 135.512C109.989 135.409 110.219 135.172 110.411 134.802C110.603 134.433 110.647 134.113 110.544 133.845C110.511 133.761 110.46 133.694 110.389 133.644C110.319 133.594 110.244 133.584 110.166 133.614C110.054 133.657 109.945 133.751 109.84 133.894C109.732 134.032 109.67 134.104 109.653 134.111C109.642 134.115 109.635 134.114 109.633 134.109C109.607 134.042 109.677 133.931 109.843 133.777C109.985 133.645 110.103 133.561 110.199 133.524C110.327 133.475 110.448 133.47 110.56 133.511C110.677 133.549 110.761 133.632 110.811 133.761C110.925 134.058 110.843 134.421 110.564 134.849C110.312 135.229 110.029 135.496 109.715 135.649C109.722 135.801 109.749 135.938 109.797 136.061C109.976 136.526 110.233 136.694 110.569 136.564C110.827 136.465 111.052 136.25 111.246 135.918C111.41 135.642 111.52 135.343 111.575 135.019C111.595 134.922 111.622 134.866 111.656 134.853C111.661 134.851 111.666 134.856 111.671 134.867C111.679 134.889 111.676 134.948 111.662 135.044C111.594 135.385 111.447 135.731 111.222 136.081C110.978 136.465 110.707 136.714 110.41 136.828ZM112.999 135.763C112.736 135.865 112.456 135.847 112.159 135.711C111.866 135.567 111.668 135.363 111.567 135.1C111.5 134.926 111.511 134.822 111.601 134.788C111.657 134.766 111.729 134.787 111.817 134.849C111.834 134.392 111.902 133.858 112.02 133.247C112.099 132.869 112.271 132.63 112.534 132.528C112.59 132.507 112.662 132.501 112.75 132.513C112.843 132.522 112.901 132.554 112.922 132.61C112.937 132.649 112.909 132.683 112.836 132.711C112.83 132.713 112.822 132.716 112.811 132.721C112.799 132.725 112.784 132.727 112.765 132.728L112.698 132.754C112.575 132.802 112.48 132.88 112.413 132.99C112.346 133.099 112.336 133.215 112.383 133.339C112.4 133.383 112.427 133.428 112.463 133.472L112.924 134.066C113.02 134.183 113.1 134.297 113.162 134.408C113.222 134.514 113.27 134.614 113.307 134.709C113.449 134.629 113.556 134.523 113.628 134.392C113.674 134.31 113.72 134.164 113.768 133.953C113.776 133.924 113.788 133.906 113.805 133.9C113.822 133.893 113.835 133.901 113.843 133.924C113.845 133.929 113.847 133.951 113.849 133.989C113.782 134.382 113.619 134.66 113.36 134.824C113.419 135.026 113.423 135.211 113.372 135.379C113.319 135.56 113.195 135.688 112.999 135.763ZM113.004 134.951C113.001 134.926 112.997 134.906 112.99 134.889C112.984 134.872 112.976 134.853 112.967 134.83C112.939 134.757 112.888 134.665 112.812 134.552C112.74 134.432 112.646 134.288 112.53 134.121C112.31 133.801 112.189 133.577 112.166 133.451C112.079 133.658 111.996 134.153 111.918 134.935C112.046 134.95 112.155 134.966 112.245 134.983C112.339 134.992 112.412 134.999 112.465 135.004C112.57 135.009 112.666 135.007 112.753 135C112.846 134.99 112.929 134.973 113.004 134.951ZM112.716 135.554C112.94 135.468 113.046 135.301 113.035 135.055C112.587 135.228 112.21 135.267 111.903 135.173C111.962 135.291 112.081 135.4 112.26 135.498C112.441 135.583 112.593 135.601 112.716 135.554Z" fill="black"/>
<path d="M66.3125 125.5C69.5404 129.876 72.9715 131.275 80.5625 132.812L82.4375 120.062L71.75 108.438L83.75 111.625V106L71.75 100.75L69.875 92.3125L78.125 94.9375L83.75 92.3125V86.125L80.5625 89.125L78.125 87.25L66.3125 83.3125L60.125 68.5L56.9375 56.6875L60.125 52.5625H52.25L40.4375 40.5625L44.1875 37H40.4375V34.75L44.1875 26.875L40.4375 29.5L36.5 38.3125L38 43.9375L48.6875 56.6875L53.9375 70.75L60.125 85L66.3125 91H63.6875V94.9375L66.3125 98.3125L63.6875 100.75L66.3125 104.5V113.312L63.6875 116.312L66.3125 125.5Z" fill="black" stroke="black" stroke-width="1.875"/>
<path d="M102.688 125.5C99.4596 129.876 96.0285 131.275 88.4375 132.812L86.5625 120.062L97.25 108.438L85.25 111.625V106L97.25 100.75L99.125 92.3125L90.875 94.9375L85.25 92.3125V86.125L88.4375 89.125L90.875 87.25L102.688 83.3125L108.875 68.5L112.062 56.6875L108.875 52.5625H116.75L128.562 40.5625L124.812 37H128.562V34.75L124.812 26.875L128.562 29.5L132.5 38.3125L131 43.9375L120.312 56.6875L115.062 70.75L108.875 85L102.688 91H105.312V94.9375L102.688 98.3125L105.312 100.75L102.688 104.5V113.312L105.312 116.312L102.688 125.5Z" fill="black" stroke="black" stroke-width="1.875"/>
</svg>
