<svg width="449" height="319" viewBox="0 0 449 319" fill="none" xmlns="http://www.w3.org/2000/svg">
<path d="M394.571 36.2494L410.343 46.1229L367.457 50.2161L336.053 60.7683L298.338 85.8199L292.909 99.3025L284.781 92.8033L271.223 99.7867L260.993 123.055L254.136 147.959L270.366 149.441L271.829 131.534L280.139 134.565L296.808 125.979L299.097 130.424L304.586 121.972L308.593 129.75L314.365 116.935L326.743 123.495L346.503 120.909L356.659 100.773L366.081 103.231L372.6 96.7797L373.839 106.828L349.136 126.021L305.165 142.203L283.162 153.536L277.35 162.998L259.402 158.182L240.733 167.799L225.843 175.469L211.465 169.94L202.764 153.049L197.148 132.319L188.325 142.488L204.353 173.603L178.726 199.739L143.968 210.332L120.632 222.352L110.255 214.762C106.55 209.899 105.177 206.328 106.666 195.238C109.266 183.853 111.813 177.503 121.301 166.327L161.339 139.235L200.199 125.686L236.904 100.311L271.164 76.1952L322.947 49.521L360.473 36.659L394.571 36.2494Z" fill="#D9D9D9" stroke="#D9D9D9" stroke-width="2.5"/>
<path d="M388.16 23.8035L403.932 33.677L361.046 37.7703L329.642 48.3224L291.927 73.374L286.498 86.8566L278.37 80.3574L264.812 87.3408L254.582 110.609L247.725 135.513L263.956 136.995L265.418 119.088L273.728 122.119L290.397 113.533L292.686 117.978L298.175 109.526L302.182 117.305L307.954 104.489L320.332 111.049L340.092 108.463L350.248 88.327L359.67 90.7854L366.189 84.3338L367.428 94.382L342.725 113.575L298.754 129.757L276.751 141.091L270.939 150.552L252.991 145.737L234.322 155.353L219.432 163.023L205.054 157.494L196.353 140.603L190.737 119.873L181.914 130.042L197.942 161.157L172.315 187.293L137.557 197.886L114.221 209.906L103.844 202.316C100.139 197.453 98.7659 193.882 100.255 182.792C102.855 171.408 105.402 165.057 114.89 153.881L154.929 126.789L193.788 113.24L230.493 87.865L264.753 63.7493L316.536 37.0751L354.062 24.2132L388.16 23.8035Z" fill="black" stroke="black" stroke-width="2.5"/>
<path d="M135.768 212.869L167.549 196.498L164.121 208.95L142.691 221.395L125.416 235.355L112.714 248.366L101.015 261.142L99.6415 258.475L93.9574 259.996L89.6404 263.626L84.8452 264.69L79.0668 267.667L76.2652 267.141L70.6214 272.017L64.2638 273.323L61.287 276.825L54.303 281.829L54.3296 293.345L49.6358 284.233L49.0765 293.52L44.8407 285.297L52.0134 277.384L71.5712 267.31L101.352 251.969L107.192 244.743L135.768 212.869Z" fill="#D9D9D9"/>
<path d="M202.206 186.801L209.238 167.15L213.952 168.658L216.47 173.548L211.096 182.222L207.014 196.135L205.317 203.759L198.75 215.578L198.568 209.766L193.841 216.42L194.002 220.555L188.89 223.188L191.18 227.633L187.2 231.371L186.634 240.099L193.994 247.837L187.933 245.897L183.542 243.378L182.64 251.999L180.121 247.109L180.95 241.62L182.782 235.896L184.149 228.724L187.112 224.104L186.082 222.104L189.396 218.709L189.234 214.574L193.901 212.17L195.316 208.911L197.835 204.52L200.347 199.57L202.206 186.801Z" fill="#D9D9D9"/>
<path d="M231.583 165.763L246.211 164.134L236.654 169.056L243.833 170.983L256.501 173.738L270.314 178.715L272.32 187.524L278.254 188.124L286.221 190.488L294.006 196.32L284.577 193.303L285.594 203.465L281.244 195.02L276.381 190.494L271.903 189.989L268.32 189.585L266.603 186.251L263.565 184.722L262.535 182.722L261.047 179.833L255.713 182.58L255.323 178.001L244.574 176.788L233.832 176.134L227.408 171.851L231.583 165.763Z" fill="#D9D9D9"/>
<path d="M135.768 212.869L167.549 196.498L164.121 208.95L142.691 221.395L125.416 235.355L112.714 248.366L101.015 261.142L99.6415 258.475L93.9574 259.996L89.6404 263.626L84.8452 264.69L79.0668 267.667L76.2652 267.141L70.6214 272.017L64.2638 273.323L61.287 276.825L54.303 281.829L54.3296 293.345L49.6358 284.233L49.0765 293.52L44.8407 285.297L52.0134 277.384L71.5712 267.31L101.352 251.969L107.192 244.743L135.768 212.869Z" stroke="#D9D9D9" stroke-width="2.5"/>
<path d="M202.206 186.801L209.238 167.15L213.952 168.658L216.47 173.548L211.096 182.222L207.014 196.135L205.317 203.759L198.75 215.578L198.568 209.766L193.841 216.42L194.002 220.555L188.89 223.188L191.18 227.633L187.2 231.371L186.634 240.099L193.994 247.837L187.933 245.897L183.542 243.378L182.64 251.999L180.121 247.109L180.95 241.62L182.782 235.896L184.149 228.724L187.112 224.104L186.082 222.104L189.396 218.709L189.234 214.574L193.901 212.17L195.316 208.911L197.835 204.52L200.347 199.57L202.206 186.801Z" stroke="#D9D9D9" stroke-width="2.5"/>
<path d="M231.583 165.763L246.211 164.134L236.654 169.056L243.833 170.983L256.501 173.738L270.314 178.715L272.32 187.524L278.254 188.124L286.221 190.488L294.006 196.32L284.577 193.303L285.594 203.465L281.244 195.02L276.381 190.494L271.903 189.989L268.32 189.585L266.603 186.251L263.565 184.722L262.535 182.722L261.047 179.833L255.713 182.58L255.323 178.001L244.574 176.788L233.832 176.134L227.408 171.851L231.583 165.763Z" stroke="#D9D9D9" stroke-width="2.5"/>
<path d="M131.417 204.423L163.199 188.052L159.77 200.505L138.34 212.95L121.065 226.91L108.363 239.921L96.665 252.696L95.2912 250.029L89.6071 251.551L85.29 255.181L80.4949 256.245L74.7165 259.221L71.9149 258.696L66.2711 263.572L59.9135 264.878L56.9367 268.38L49.9527 273.383L49.9792 284.9L45.2855 275.788L44.7262 285.075L40.4904 276.851L47.6631 268.938L67.2208 258.864L97.002 243.524L102.841 236.297L131.417 204.423Z" fill="black"/>
<path d="M197.856 178.356L204.887 158.704L209.602 160.213L212.12 165.102L206.746 173.776L202.664 187.69L200.967 195.314L194.4 207.133L194.218 201.321L189.49 207.974L189.652 212.109L184.54 214.743L186.83 219.188L182.849 222.925L182.283 231.653L189.644 239.392L183.583 237.452L179.192 234.933L178.289 243.553L175.771 238.664L176.599 233.175L178.431 227.451L179.799 220.278L182.762 215.658L181.732 213.658L185.045 210.264L184.884 206.129L189.551 203.725L190.965 200.465L193.484 196.074L195.996 191.125L197.856 178.356Z" fill="black"/>
<path d="M227.233 157.318L241.861 155.688L232.304 160.611L239.483 162.537L252.151 165.292L265.964 170.27L267.97 179.079L273.903 179.678L281.87 182.042L289.655 187.875L280.227 184.857L281.244 195.02L276.893 186.575L272.031 182.049L267.553 181.543L263.97 181.139L262.252 177.806L259.215 176.277L258.185 174.276L256.697 171.387L251.363 174.135L250.972 169.555L240.224 168.343L229.482 167.689L223.057 163.406L227.233 157.318Z" fill="black"/>
<path d="M131.417 204.423L163.199 188.052L159.77 200.505L138.34 212.95L121.065 226.91L108.363 239.921L96.665 252.696L95.2912 250.029L89.6071 251.551L85.29 255.181L80.4949 256.245L74.7165 259.221L71.9149 258.696L66.2711 263.572L59.9135 264.878L56.9367 268.38L49.9527 273.383L49.9792 284.9L45.2855 275.788L44.7262 285.075L40.4904 276.851L47.6631 268.938L67.2208 258.864L97.002 243.524L102.841 236.297L131.417 204.423Z" stroke="black" stroke-width="2.5"/>
<path d="M197.856 178.356L204.887 158.704L209.602 160.213L212.12 165.102L206.746 173.776L202.664 187.69L200.967 195.314L194.4 207.133L194.218 201.321L189.49 207.974L189.652 212.109L184.54 214.743L186.83 219.188L182.849 222.925L182.283 231.653L189.644 239.392L183.583 237.452L179.192 234.933L178.289 243.553L175.771 238.664L176.599 233.175L178.431 227.451L179.799 220.278L182.762 215.658L181.732 213.658L185.045 210.264L184.884 206.129L189.551 203.725L190.965 200.465L193.484 196.074L195.996 191.125L197.856 178.356Z" stroke="black" stroke-width="2.5"/>
<path d="M227.233 157.318L241.861 155.688L232.304 160.611L239.483 162.537L252.151 165.292L265.964 170.27L267.97 179.079L273.903 179.678L281.87 182.042L289.655 187.875L280.227 184.857L281.244 195.02L276.893 186.575L272.031 182.049L267.553 181.543L263.97 181.139L262.252 177.806L259.215 176.277L258.185 174.276L256.697 171.387L251.363 174.135L250.972 169.555L240.224 168.343L229.482 167.689L223.057 163.406L227.233 157.318Z" stroke="black" stroke-width="2.5"/>
<path d="M157.227 128.417L180.051 120.316L173.801 139.846L184.327 141.173L184.738 147.43L195.203 162.287L172.432 184.14L161.838 186.503L158.694 176.031L144.638 178.771L140.011 193.81L114.453 206.975L102.93 197.162L106.743 170.17L122.509 151.643L157.227 128.417Z" fill="black" stroke="black" stroke-width="2.5"/>
<path d="M215.751 123.017C214.418 123.704 214.33 134.998 213.104 135.348C211.878 135.698 216.229 144.144 216.424 141.793C216.62 139.443 218.6 136.736 218.6 136.736L223.846 126.722L227.308 117.064C227.308 117.064 228.824 112.909 231.558 107.845C234.293 102.78 224.164 113.667 223.267 115.771C223.267 115.771 217.085 122.33 215.751 123.017Z" fill="white" stroke="#FFFEFE" stroke-width="2.5"/>
<path d="M267.056 130.899L249.088 124.406L254.018 115.961L258.402 117.921L260.348 121.699L269.083 122.824L267.056 130.899Z" fill="black" stroke="black" stroke-width="2.5"/>
</svg>
