<svg width="149" height="132" viewBox="0 0 149 132" fill="none" xmlns="http://www.w3.org/2000/svg">
<path fill-rule="evenodd" clip-rule="evenodd" d="M49.7205 39.6332L53.4986 41.2667L56.5253 116.926L55.8313 116.667L53.6078 118.508L50.6382 124.521L48.0511 126.469C44.505 128.116 42.5038 128.933 38.6403 128.057C32.3145 129.56 30.412 129.382 28.0736 128.406C22.9033 126.937 20.7194 125.492 18.6682 121.299L10.7056 112.384L8.40478 92.514L3.82488 70.9445L5.29954 51.1468L7.58409 44.1507L9.65902 40.8143L32.5934 29.987L34.207 30.5731L37.8122 32.0789L37.7281 34.4747L35.761 35.8449L43.3003 34.6104L49.7205 39.6332Z" fill="black"/>
<path d="M53.4986 41.2667L53.8483 41.2527L53.8395 41.0328L53.6375 40.9454L53.4986 41.2667ZM49.7205 39.6332L49.5048 39.9089L49.5403 39.9366L49.5816 39.9545L49.7205 39.6332ZM56.5253 116.926L56.403 117.254L56.8961 117.438L56.875 116.912L56.5253 116.926ZM55.8313 116.667L55.9535 116.339L55.7639 116.269L55.6081 116.398L55.8313 116.667ZM53.6078 118.508L53.3846 118.238L53.3271 118.286L53.294 118.353L53.6078 118.508ZM50.6382 124.521L50.8487 124.8L50.9151 124.75L50.952 124.676L50.6382 124.521ZM48.0511 126.469L48.1986 126.786L48.2321 126.771L48.2616 126.748L48.0511 126.469ZM38.6403 128.057L38.7177 127.716L38.6384 127.698L38.5593 127.717L38.6403 128.057ZM28.0736 128.406L28.2085 128.083L28.1893 128.075L28.1692 128.069L28.0736 128.406ZM18.6682 121.299L18.9826 121.145L18.9614 121.102L18.9293 121.066L18.6682 121.299ZM10.7056 112.384L10.3579 112.425L10.3707 112.535L10.4445 112.617L10.7056 112.384ZM8.40478 92.514L8.75246 92.4737L8.75057 92.4574L8.74715 92.4413L8.40478 92.514ZM3.82488 70.9445L3.47585 70.9185L3.47214 70.9683L3.48252 71.0172L3.82488 70.9445ZM5.29954 51.1468L4.96683 51.0381L4.95366 51.0784L4.95051 51.1208L5.29954 51.1468ZM7.58409 44.1507L7.28688 43.9659L7.26452 44.0018L7.25138 44.0421L7.58409 44.1507ZM9.65902 40.8143L9.5096 40.4978L9.41629 40.5418L9.3618 40.6295L9.65902 40.8143ZM32.5934 29.987L32.7129 29.6581L32.5758 29.6083L32.444 29.6705L32.5934 29.987ZM34.207 30.5731L34.3419 30.2501L34.3342 30.2469L34.3264 30.2441L34.207 30.5731ZM37.8122 32.0789L38.1619 32.0912L38.1704 31.8493L37.9471 31.756L37.8122 32.0789ZM37.7281 34.4747L37.9281 34.7619L38.0717 34.6619L38.0778 34.487L37.7281 34.4747ZM35.761 35.8449L35.5609 35.5577L35.8175 36.1903L35.761 35.8449ZM43.3003 34.6104L43.516 34.3347L43.3952 34.2402L43.2438 34.265L43.3003 34.6104ZM53.6375 40.9454L49.8594 39.312L49.5816 39.9545L53.3597 41.588L53.6375 40.9454ZM56.875 116.912L53.8483 41.2527L53.1489 41.2807L56.1756 116.94L56.875 116.912ZM55.709 116.995L56.403 117.254L56.6476 116.598L55.9535 116.339L55.709 116.995ZM53.831 118.778L56.0545 116.937L55.6081 116.398L53.3846 118.238L53.831 118.778ZM50.952 124.676L53.9216 118.663L53.294 118.353L50.3243 124.366L50.952 124.676ZM48.2616 126.748L50.8487 124.8L50.4276 124.241L47.8406 126.189L48.2616 126.748ZM38.5629 128.399C40.5346 128.846 42.0526 128.865 43.5369 128.552C45.0084 128.242 46.4302 127.608 48.1986 126.786L47.9036 126.151C46.1259 126.977 44.774 127.576 43.3925 127.867C42.0238 128.155 40.6094 128.145 38.7177 127.716L38.5629 128.399ZM27.9387 128.729C29.1424 129.231 30.2503 129.533 31.8665 129.511C33.4654 129.49 35.5534 129.151 38.7212 128.398L38.5593 127.717C35.4014 128.467 33.3753 128.791 31.8569 128.811C30.3557 128.832 29.3433 128.557 28.2085 128.083L27.9387 128.729ZM18.3538 121.453C19.3949 123.581 20.4851 125.043 21.9934 126.156C23.494 127.263 25.382 128.005 27.978 128.743L28.1692 128.069C25.5948 127.338 23.8058 126.623 22.409 125.592C21.02 124.568 19.9927 123.21 18.9826 121.145L18.3538 121.453ZM10.4445 112.617L18.4072 121.532L18.9293 121.066L10.9666 112.151L10.4445 112.617ZM8.05711 92.5542L10.3579 112.425L11.0533 112.344L8.75246 92.4737L8.05711 92.5542ZM3.48252 71.0172L8.06242 92.5867L8.74715 92.4413L4.16725 70.8718L3.48252 71.0172ZM4.95051 51.1208L3.47585 70.9185L4.17392 70.9705L5.64858 51.1727L4.95051 51.1208ZM7.25138 44.0421L4.96683 51.0381L5.63225 51.2554L7.9168 44.2593L7.25138 44.0421ZM9.3618 40.6295L7.28688 43.9659L7.8813 44.3355L9.95623 40.9991L9.3618 40.6295ZM32.444 29.6705L9.5096 40.4978L9.80844 41.1308L32.7428 30.3035L32.444 29.6705ZM34.3264 30.2441L32.7129 29.6581L32.4739 30.316L34.0875 30.902L34.3264 30.2441ZM37.9471 31.756L34.3419 30.2501L34.0721 30.896L37.6773 32.4019L37.9471 31.756ZM38.0778 34.487L38.1619 32.0912L37.4624 32.0666L37.3783 34.4624L38.0778 34.487ZM35.961 36.1321L37.9281 34.7619L37.528 34.1875L35.5609 35.5577L35.961 36.1321ZM43.2438 34.265L35.7044 35.4995L35.8175 36.1903L43.3569 34.9558L43.2438 34.265ZM49.9362 39.3576L43.516 34.3347L43.0847 34.886L49.5048 39.9089L49.9362 39.3576Z" fill="black"/>
<path fill-rule="evenodd" clip-rule="evenodd" d="M134.066 35.6649L135.915 33.8546L141.298 30.9035L140.503 27.0409L141.756 28.107L144.142 28.2827L145.853 26.5524L146.531 25.773L137.054 13.6296L133.845 12.3998L126.997 10.8608L107.327 9.01674L85.5384 10.1208L65.5776 10.1726L56.2209 13.6833C51.9184 14.4821 50.35 15.5006 48.5852 18.0206C47.4756 19.143 47.1876 20.0904 48.3215 23.3572C47.2236 25.2526 47.9231 26.3051 49.3621 28.1813L51.1563 29.5915L56.984 31.4205L58.6923 32.6419L58.3939 32.9767L134.066 35.6649Z" fill="black"/>
<path d="M135.915 33.8546L135.746 33.5477L135.704 33.5709L135.67 33.6046L135.915 33.8546ZM134.066 35.6649L134.053 36.0147L134.204 36.02L134.311 35.915L134.066 35.6649ZM141.298 30.9035L141.466 31.2104L141.693 31.0862L141.641 30.8329L141.298 30.9035ZM140.503 27.0409L140.729 26.7743L139.955 26.1153L140.16 27.1115L140.503 27.0409ZM141.756 28.107L141.529 28.3736L141.616 28.4477L141.73 28.4561L141.756 28.107ZM144.142 28.2827L144.116 28.6318L144.277 28.6436L144.391 28.5288L144.142 28.2827ZM145.853 26.5524L146.102 26.7985L146.11 26.7905L146.117 26.7821L145.853 26.5524ZM146.531 25.773L146.795 26.0028L146.985 25.7852L146.807 25.5577L146.531 25.773ZM137.054 13.6296L137.33 13.4142L137.271 13.3375L137.18 13.3027L137.054 13.6296ZM133.845 12.3998L133.971 12.0729L133.947 12.0638L133.922 12.0583L133.845 12.3998ZM126.997 10.8608L127.073 10.5193L127.051 10.5144L127.029 10.5123L126.997 10.8608ZM107.327 9.01674L107.359 8.66827L107.334 8.66591L107.309 8.66719L107.327 9.01674ZM85.5384 10.1208L85.5393 10.4708L85.5477 10.4708L85.5561 10.4704L85.5384 10.1208ZM65.5776 10.1726L65.5767 9.82261L65.5136 9.82277L65.4546 9.84492L65.5776 10.1726ZM56.2209 13.6833L56.2848 14.0274L56.315 14.0218L56.3438 14.011L56.2209 13.6833ZM48.5852 18.0206L48.8341 18.2667L48.8549 18.2456L48.8719 18.2214L48.5852 18.0206ZM48.3215 23.3572L48.6244 23.5327L48.7048 23.3939L48.6522 23.2425L48.3215 23.3572ZM49.3621 28.1813L49.0843 28.3943L49.1111 28.4292L49.1458 28.4564L49.3621 28.1813ZM51.1563 29.5915L50.94 29.8667L50.9903 29.9063L51.0515 29.9255L51.1563 29.5915ZM56.984 31.4205L57.1876 31.1358L57.1421 31.1033L57.0888 31.0866L56.984 31.4205ZM58.6923 32.6419L58.9536 32.8747L59.2128 32.5838L58.8958 32.3572L58.6923 32.6419ZM58.3939 32.9767L58.1326 32.7439L57.6371 33.3001L58.3815 33.3265L58.3939 32.9767ZM135.67 33.6046L133.821 35.4148L134.311 35.915L136.159 34.1047L135.67 33.6046ZM141.13 30.5966L135.746 33.5477L136.083 34.1615L141.466 31.2104L141.13 30.5966ZM140.16 27.1115L140.955 30.9741L141.641 30.8329L140.845 26.9703L140.16 27.1115ZM141.983 27.8404L140.729 26.7743L140.276 27.3075L141.529 28.3736L141.983 27.8404ZM144.168 27.9337L141.782 27.758L141.73 28.4561L144.116 28.6318L144.168 27.9337ZM145.604 26.3063L143.893 28.0366L144.391 28.5288L146.102 26.7985L145.604 26.3063ZM146.267 25.5433L145.589 26.3226L146.117 26.7821L146.795 26.0028L146.267 25.5433ZM136.779 13.8449L146.255 25.9884L146.807 25.5577L137.33 13.4142L136.779 13.8449ZM133.72 12.7266L136.929 13.9564L137.18 13.3027L133.971 12.0729L133.72 12.7266ZM126.92 11.2022L133.769 12.7412L133.922 12.0583L127.073 10.5193L126.92 11.2022ZM107.294 9.36521L126.964 11.2092L127.029 10.5123L107.359 8.66827L107.294 9.36521ZM85.5561 10.4704L107.344 9.36629L107.309 8.66719L85.5207 9.77127L85.5561 10.4704ZM65.5785 10.5226L85.5393 10.4708L85.5375 9.77082L65.5767 9.82261L65.5785 10.5226ZM56.3438 14.011L65.7005 10.5003L65.4546 9.84492L56.0979 13.3556L56.3438 14.011ZM48.8719 18.2214C49.7377 16.9849 50.5364 16.1439 51.6274 15.509C52.7262 14.8696 54.1475 14.4242 56.2848 14.0274L56.157 13.3391C53.9919 13.7411 52.4776 14.2044 51.2754 14.904C50.0654 15.608 49.1974 16.5362 48.2985 17.8198L48.8719 18.2214ZM48.6522 23.2425C48.0871 21.6145 47.8987 20.6215 47.9607 19.9153C48.0197 19.2436 48.3085 18.7983 48.8341 18.2667L48.3363 17.7745C47.7523 18.3652 47.3423 18.9549 47.2634 19.8541C47.1875 20.719 47.4221 21.8332 47.9909 23.472L48.6522 23.2425ZM49.6398 27.9683C48.9107 27.0177 48.4217 26.3378 48.2261 25.6771C48.0424 25.0568 48.1107 24.4194 48.6244 23.5327L48.0187 23.1818C47.4344 24.1904 47.3035 25.027 47.5549 25.8758C47.7943 26.6842 48.3745 27.4687 49.0843 28.3943L49.6398 27.9683ZM51.3725 29.3164L49.5784 27.9061L49.1458 28.4564L50.94 29.8667L51.3725 29.3164ZM57.0888 31.0866L51.2611 29.2576L51.0515 29.9255L56.8792 31.7545L57.0888 31.0866ZM58.8958 32.3572L57.1876 31.1358L56.7804 31.7053L58.4887 32.9266L58.8958 32.3572ZM58.6552 33.2096L58.9536 32.8747L58.431 32.4091L58.1326 32.7439L58.6552 33.2096ZM134.078 35.3151L58.4064 32.627L58.3815 33.3265L134.053 36.0147L134.078 35.3151Z" fill="black"/>
</svg>
