<svg width="344" height="296" viewBox="0 0 344 296" fill="none" xmlns="http://www.w3.org/2000/svg">
<path d="M213.89 199.466L206.201 188.296L195.582 182.435L197.463 190.4L200.89 197.92L210.319 205.937L218.054 213.886L221.995 221.257L224.631 235.7L229.746 241.337L233.425 240.553L239.565 243.941L245.841 250.219L251.814 253.516L256.626 256.172L266.146 264.024L268.304 265.214L264.498 267.01L273.487 269.157L270.73 263.956L276.234 264.179L274.484 257.153L269.443 258.05L272.928 259.973L268.436 259.875L265.117 258.044L257.817 254.015L256.169 250.724L250.527 247.611L248.039 246.237L243.724 243.856L242.129 239.295L235.989 235.907L231.509 233.435L236.997 234.082L232.517 231.61L229.21 227.403L226.516 218.557L223.925 213.447L218.324 205.16L213.89 199.466Z" fill="#D9D9D9"/>
<path d="M168.194 150.869L172.23 139.242L164.431 141.215L159.875 144.762L159.04 148.63L152.877 149.991L149.042 154.585L141.38 159.448L130.558 166.897L120.819 172.778L110.072 180.484L111.073 182.985L109.424 185.971L111.942 184.547L111.032 188.157L109.921 192.523L106.814 193.839L103.662 192.099L102.168 191.275L96.6409 189.523L91.4338 190.329L86.6274 189.625L85.0706 192.445L87.0218 192.44L91.4392 192.28L89.8825 195.101L87.8678 198.751L89.2923 201.269L90.0366 197.567L92.4974 195.462L97.9049 193.901L101.555 195.915L104.708 197.655L110.047 197.787L114.07 194.812L114.631 191.442L115.095 186.287L117.934 181.143L118.374 187.014L120.949 179.993L123.593 177.556L131.496 173.042L131.856 176.705L134.329 172.225L141.35 168.523L140.972 171.562L146.185 166.43L150.34 164.393L155.69 162.151L157.339 159.164L160.325 160.813L166.082 159.011L168.194 150.869Z" fill="#D9D9D9"/>
<path d="M131.93 137.348L128.64 132.719L123.553 136.838L120.005 138.56L113.917 140.178L103.995 140.114L97.9007 139.781L94.8678 141.355L94.5124 145.921L92.2378 142.198L88.2072 142.441L82.6056 140.432L76.7981 137.227L66.9622 135.045L63.8096 133.305L65.1832 130.816L67.5147 128.553L73.3427 132.505L72.4903 130.52L68.8399 128.505L67.5147 128.553L63.3181 128.705L69.3096 125.301L73.464 123.264L68.0338 123.298L60.1655 126.965L59.3296 130.833L60.3415 137.236L64.4897 139.525L64.5233 144.955L67.3903 143.291L70.9609 143.097L72.952 144.196L72.0363 145.855L71.4923 148.802L76.0185 148.053L80.7506 148.5L87.714 150.394L96.4855 153.72L97.5037 155.797L99.8267 157.079L108.45 153.613L116.319 149.946L124.725 147.659L133.279 145.886L139.271 142.482L134.058 141.337L131.93 137.348Z" fill="#D9D9D9"/>
<path d="M67.5147 128.553L63.3181 128.705L69.3096 125.301L73.464 123.264L68.0338 123.298L60.1655 126.965L59.3296 130.833L60.3415 137.236L64.4897 139.525L64.5233 144.955L67.3903 143.291L70.9609 143.097L72.952 144.196L72.0363 145.855L71.4923 148.802L76.0185 148.053L80.7506 148.5L87.714 150.394L96.4855 153.72L97.5037 155.797L99.8267 157.079L108.45 153.613L116.319 149.946L124.725 147.659L133.279 145.886L139.271 142.482L134.058 141.337L131.93 137.348L128.64 132.719L123.553 136.838L120.005 138.56L113.917 140.178L103.995 140.114L97.9007 139.781L94.8678 141.355L94.5124 145.921L92.2378 142.198L88.2072 142.441L82.6056 140.432L76.7981 137.227L66.9622 135.045L63.8096 133.305L65.1833 130.816L67.5147 128.553ZM67.5147 128.553L68.8399 128.505L72.4903 130.52L73.3427 132.505L67.5147 128.553ZM206.201 188.296L213.89 199.466L218.324 205.16L223.925 213.447L226.516 218.557L229.21 227.403L232.517 231.61L236.997 234.082L231.509 233.435L235.989 235.907L242.129 239.295L243.724 243.856L248.039 246.237L250.527 247.611L256.169 250.724L257.817 254.015L265.117 258.044L268.436 259.875L272.928 259.973L269.443 258.05L274.484 257.153L276.234 264.179L270.73 263.956L273.487 269.157L264.498 267.01L268.304 265.214L266.146 264.024L256.626 256.172L251.814 253.516L245.841 250.219L239.565 243.941L233.425 240.553L229.746 241.337L224.631 235.7L221.995 221.257L218.054 213.886L210.319 205.937L200.89 197.92L197.463 190.4L195.582 182.435L206.201 188.296ZM172.23 139.242L168.194 150.869L166.082 159.011L160.325 160.813L157.339 159.164L155.69 162.151L150.34 164.393L146.185 166.43L140.972 171.562L141.35 168.523L134.329 172.225L131.856 176.705L131.496 173.042L123.593 177.556L120.949 179.993L118.374 187.014L117.934 181.143L115.095 186.287L114.631 191.442L114.07 194.812L110.047 197.787L104.708 197.655L101.555 195.915L97.9049 193.901L92.4974 195.462L90.0366 197.567L89.2923 201.269L87.8678 198.751L89.8825 195.101L91.4392 192.28L87.0218 192.44L85.0706 192.445L86.6273 189.625L91.4338 190.329L96.6409 189.523L102.168 191.275L103.662 192.099L106.814 193.839L109.921 192.523L111.032 188.157L111.942 184.547L109.424 185.971L111.073 182.985L110.072 180.484L120.819 172.778L130.558 166.897L141.38 159.448L149.042 154.585L152.877 149.991L159.04 148.63L159.875 144.762L164.431 141.215L172.23 139.242Z" stroke="#D9D9D9" stroke-width="0.7"/>
<path d="M86.3979 17.4067L85.9354 10.0081L82.1354 13.7555L81.8771 20.1069L83.9762 26.8936L82.2762 31.1505L80.4228 26.6642L76.7615 20.7471L75.9037 16.8103L73.9924 17.9201L72.7104 20.2431L73.1611 30.0164L73.4522 35.3722L78.4011 40.9175L85.7808 53.4326L98.813 72.9637L110.369 91.2471L113.955 103.184L112.307 106.17L106.647 109.757L103.563 112.601L102.104 110.93L98.5224 107.222L98.2531 109.671L98.8017 114.952L102.618 117.058L106.985 111.892L114.801 109.495L120.105 110.475L125.581 113.496L130.021 114.865L132.371 125.903L135.89 133.256L144.352 137.926L153.776 137.716L172.522 133.558L175.616 147.172L178.911 153.752L191.783 168.866L210.207 180.982L225.815 193.493L237.745 194.232C242.152 195.771 244.721 195.263 249.43 192.672C251.779 191.722 253.257 190.511 256.698 184.994C260.061 182.9 260.909 180.912 262.272 177.247L262.742 174.042L260.625 167.679L260.912 164.807L262.64 164.029L262.876 156.15C258.976 147.792 256.934 143.049 250.044 135.863C250.044 135.863 243.308 126.551 237.692 122.552L217.987 106.482L210.738 101.183L205.543 99.614L202.608 96.6954L195.587 94.1195L193.309 95.893L193.664 97.604L195.38 99.2007L196.862 102.399L199.889 105.152L203.207 106.984L206.537 112.718L202.399 114.331L194.303 115.274L189.81 121.453L190.245 119.096L188.62 117.333L184.998 118.797L180.935 120.668L181.679 116.966L185.239 112.869L189.497 108.292L191.283 101.918L191.936 98.382L190.511 95.8641L191.519 94.0389L191.439 91.8301L188.452 90.1818L183.395 85.2258L176.094 81.1966L170.252 78.8383L163.809 78.7459L158.127 74.528L152.532 68.1929L145.055 60.1696L138.749 56.6898L134.069 54.9726L133.519 55.9681L135.573 59.6992L133.073 60.7002L128.678 62.3876L129.307 63.6008L131.333 63.8528L133.673 64.7114L138.611 66.3543L142.284 69.8967L143.748 73.519L143.616 78.8576L140.869 83.8354C137.139 88.5306 134.965 86.4168 131.135 85.3905L123.273 84.7315L115.372 76.6909L106.19 64.6963L97.654 53.4914L91.0812 39.9064L92.1927 29.2636L97.1378 20.3035L100.618 13.9983L93.1555 18.1057C90.5546 20.3664 89.0802 20.5492 86.3979 17.4067Z" fill="#D9D9D9" stroke="#D9D9D9" stroke-width="0.7"/>
<path d="M206.27 111.977C218.391 117.766 230.755 125.065 240.396 134.5C243.099 137.146 245.148 140.341 247.561 143.242C249.879 146.029 251.989 148.755 253.927 151.762C254.837 153.174 255.632 154.828 256.71 156.109C257.89 157.511 257.814 159.893 258.977 161.313C259.928 162.475 260.653 164.323 260.775 165.775" stroke="white" stroke-width="2.1" stroke-linecap="round"/>
<path d="M125.3 103.827C125.219 103.702 125.168 103.575 125.031 103.473C124.182 102.832 123.79 103.096 122.822 103.217C122.686 103.234 122.541 103.327 122.419 103.456C121.802 103.72 121.179 104.131 121.482 104.314C121.764 104.485 122.127 104.563 122.463 104.517C122.508 104.535 122.554 104.549 122.602 104.56C122.412 104.843 122.209 105.144 122.388 105.035C122.69 104.851 122.976 104.697 123.256 104.564C123.661 104.495 124.076 104.326 124.398 104.188C124.486 104.15 124.534 104.106 124.55 104.056C124.793 103.977 125.041 103.903 125.3 103.827Z" fill="#D9D9D9"/>
<path d="M125.582 103.106C125.207 102.847 124.109 101.445 123.505 101.813C122.959 102.146 122.506 102.561 121.998 102.946C121.466 103.349 121.052 103.68 120.669 104.206C120.32 104.687 120.238 104.62 120.83 104.946C121.117 105.104 121.302 105.372 121.598 105.535C123.005 106.312 124.52 105.05 125.853 104.578C126.185 104.461 125.706 104.166 125.599 104.107C125.248 103.913 125.274 103.656 125.031 103.473C124.182 102.832 123.79 103.096 122.822 103.217C122.376 103.273 121.829 104.15 122.325 104.449C122.904 104.798 123.808 104.441 124.398 104.188C125.028 103.918 123.606 103.281 123.332 103.224C122.904 103.134 120.995 104.02 121.482 104.314C122.044 104.654 122.925 104.627 123.28 103.984C123.534 103.523 122.903 104.068 122.813 104.232C122.666 104.497 122.129 105.192 122.388 105.035C123.563 104.318 124.507 104.056 125.753 103.696" stroke="white" stroke-width="2.1" stroke-linecap="round"/>
<path d="M123.551 102.244C123.633 102.225 123.923 102.205 123.913 102.32C123.901 102.462 124.348 102.652 124.481 102.697C124.672 102.76 124.832 102.729 125.016 102.756C125.104 102.769 125.189 102.802 125.276 102.822C125.355 102.841 125.462 102.807 125.528 102.837C125.576 102.858 125.824 102.968 125.812 103.021C125.798 103.079 125.749 103.117 125.753 103.183C125.759 103.276 125.85 103.273 125.877 103.34C125.895 103.385 125.951 103.659 125.942 103.688C125.893 103.855 126.001 103.845 126.121 103.912" stroke="white" stroke-width="2.1" stroke-linecap="round"/>
<path d="M217.37 193.161L209.681 181.991L199.061 176.13L200.943 184.095L204.369 191.614L213.798 199.632L221.533 207.581L225.475 214.952L228.111 229.395L233.226 235.031L236.905 234.248L243.044 237.636L249.321 243.914L255.294 247.211L260.106 249.867L269.626 257.718L271.783 258.909L267.978 260.705L276.967 262.852L274.21 257.65L279.714 257.874L277.964 250.847L272.923 251.745L276.407 253.668L271.916 253.57L268.597 251.739L261.296 247.709L259.649 244.419L254.007 241.306L251.518 239.932L247.204 237.551L245.608 232.99L239.469 229.602L234.989 227.13L240.476 227.777L235.996 225.304L232.69 221.098L229.996 212.252L227.404 207.141L221.804 198.855L217.37 193.161Z" fill="black"/>
<path d="M171.674 144.564L175.71 132.937L167.91 134.91L163.355 138.457L162.519 142.325L156.356 143.686L152.522 148.28L144.86 153.143L134.038 160.592L124.299 166.473L113.552 174.179L114.553 176.679L112.904 179.666L115.422 178.242L114.512 181.852L113.401 186.218L110.294 187.534L107.141 185.794L105.648 184.969L100.121 183.218L94.9136 184.024L90.1071 183.319L88.5504 186.14L90.5016 186.135L94.919 185.975L93.3623 188.796L91.3476 192.446L92.7721 194.964L93.5164 191.262L95.9772 189.157L101.385 187.595L105.035 189.61L108.188 191.35L113.526 191.482L117.549 188.507L118.111 185.137L118.575 179.982L121.414 174.838L121.853 180.709L124.429 173.688L127.073 171.251L134.976 166.737L135.336 170.399L137.808 165.919L144.83 162.218L144.452 165.257L149.665 160.125L153.82 158.088L159.17 155.846L160.818 152.859L163.805 154.507L169.562 152.706L171.674 144.564Z" fill="black"/>
<path d="M135.41 131.043L132.12 126.414L127.033 130.533L123.485 132.255L117.396 133.873L107.474 133.809L101.38 133.476L98.3476 135.049L97.9922 139.616L95.7176 135.893L91.687 136.136L86.0854 134.127L80.2779 130.921L70.442 128.74L67.2894 127L68.663 124.511L70.9945 122.248L76.8225 126.2L75.9701 124.215L72.3197 122.2L70.9945 122.248L66.7979 122.4L72.7894 118.996L76.9438 116.959L71.5136 116.993L63.6453 120.66L62.8094 124.528L63.8213 130.931L67.9695 133.22L68.0031 138.65L70.8701 136.986L74.4407 136.791L76.4318 137.89L75.5161 139.55L74.9721 142.496L79.4983 141.747L84.2304 142.194L91.1938 144.089L99.9653 147.415L100.984 149.492L103.307 150.774L111.93 147.308L119.798 143.641L128.204 141.353L136.759 139.581L142.75 136.177L137.538 135.032L135.41 131.043Z" fill="black"/>
<path d="M70.9945 122.248L66.7979 122.4L72.7894 118.996L76.9438 116.959L71.5136 116.993L63.6453 120.66L62.8094 124.528L63.8213 130.931L67.9695 133.22L68.0031 138.65L70.8701 136.986L74.4407 136.791L76.4318 137.89L75.5161 139.55L74.9721 142.496L79.4983 141.747L84.2304 142.194L91.1938 144.089L99.9653 147.415L100.984 149.492L103.307 150.774L111.93 147.308L119.798 143.641L128.204 141.353L136.759 139.581L142.75 136.177L137.538 135.032L135.41 131.043L132.12 126.414L127.033 130.533L123.485 132.255L117.396 133.873L107.474 133.809L101.38 133.476L98.3476 135.049L97.9922 139.616L95.7176 135.893L91.687 136.136L86.0854 134.127L80.2779 130.921L70.442 128.74L67.2894 127L68.663 124.511L70.9945 122.248ZM70.9945 122.248L72.3197 122.2L75.9701 124.215L76.8225 126.2L70.9945 122.248ZM209.681 181.991L217.37 193.161L221.804 198.855L227.404 207.141L229.996 212.252L232.69 221.098L235.996 225.304L240.476 227.777L234.989 227.13L239.469 229.602L245.608 232.99L247.204 237.551L251.518 239.932L254.007 241.306L259.649 244.419L261.296 247.709L268.597 251.739L271.916 253.57L276.407 253.668L272.923 251.745L277.964 250.847L279.714 257.874L274.21 257.65L276.967 262.852L267.978 260.705L271.783 258.909L269.626 257.718L260.106 249.867L255.294 247.211L249.321 243.914L243.044 237.636L236.905 234.248L233.226 235.031L228.111 229.395L225.475 214.952L221.533 207.581L213.798 199.632L204.369 191.614L200.943 184.095L199.061 176.13L209.681 181.991ZM175.71 132.937L171.674 144.564L169.562 152.706L163.805 154.507L160.818 152.859L159.17 155.846L153.82 158.088L149.665 160.125L144.452 165.257L144.83 162.218L137.808 165.919L135.336 170.399L134.976 166.737L127.073 171.251L124.429 173.688L121.853 180.709L121.414 174.838L118.575 179.982L118.111 185.137L117.549 188.507L113.526 191.482L108.188 191.35L105.035 189.61L101.385 187.595L95.9772 189.157L93.5164 191.262L92.7721 194.964L91.3476 192.446L93.3623 188.796L94.919 185.975L90.5016 186.135L88.5504 186.14L90.1071 183.319L94.9136 184.024L100.121 183.218L105.648 184.969L107.141 185.794L110.294 187.534L113.401 186.218L114.512 181.852L115.422 178.242L112.904 179.666L114.553 176.679L113.552 174.179L124.299 166.473L134.038 160.592L144.86 153.143L152.522 148.28L156.356 143.686L162.519 142.325L163.355 138.457L167.91 134.91L175.71 132.937Z" stroke="black" stroke-width="0.7"/>
<path d="M91.3992 15.4047L90.9367 8.00607L87.1368 11.7535L86.8784 18.1049L88.9775 24.8916L87.2775 29.1485L85.4242 24.6622L81.7629 18.7451L80.9051 14.8082L78.9938 15.9181L77.7117 18.241L78.1625 28.0143L78.4536 33.3702L83.4024 38.9155L90.7822 51.4306L103.814 70.9617L115.37 89.2451L118.957 101.182L117.308 104.168L111.649 107.755L108.564 110.599L107.105 108.928L103.524 105.219L103.254 107.668L103.803 112.95L107.619 115.056L111.986 109.89L119.803 107.493L125.107 108.472L130.582 111.494L135.023 112.863L137.373 123.901L140.891 131.254L149.353 135.924L158.777 135.714L177.523 131.556L180.617 145.17L183.912 151.75L196.785 166.864L215.208 178.98L230.816 191.49L242.747 192.23C247.153 193.769 249.722 193.261 254.431 190.67C256.78 189.72 258.258 188.509 261.699 182.992C265.062 180.898 265.911 178.91 267.273 175.245L267.743 172.04L265.627 165.677L265.913 162.805L267.641 162.027L267.877 154.148C263.978 145.79 261.935 141.047 255.045 133.861C255.045 133.861 248.309 124.549 242.693 120.55L222.989 104.48L215.739 99.1805L210.544 97.612L207.609 94.6934L200.588 92.1175L198.311 93.891L198.665 95.602L200.382 97.1986L201.863 100.397L204.89 103.15L208.208 104.982L211.538 110.716L207.401 112.329L199.304 113.272L194.811 119.451L195.246 117.093L193.622 115.331L189.999 116.795L185.936 118.666L186.681 114.964L190.24 110.867L194.498 106.29L196.284 99.9161L196.937 96.3799L195.513 93.862L196.52 92.0369L196.44 89.8281L193.454 88.1798L188.396 83.2238L181.095 79.1945L175.253 76.8363L168.81 76.7439L163.129 72.526L157.534 66.1909L150.056 58.1676L143.751 54.6878L139.07 52.9706L138.521 53.9661L140.575 57.6972L138.074 58.6982L133.679 60.3856L134.308 61.5988L136.334 61.8508L138.674 62.7094L143.612 64.3523L147.285 67.8947L148.749 71.517L148.617 76.8556L145.87 81.8334C142.14 86.5286 139.966 84.4148 136.137 83.3885L128.275 82.7294L120.373 74.6889L111.191 62.6943L102.655 51.4894L96.0826 37.9044L97.1941 27.2616L102.139 18.3015L105.619 11.9963L98.1568 16.1037C95.556 18.3644 94.0815 18.5472 91.3992 15.4047Z" fill="black" stroke="black" stroke-width="0.7"/>
<path d="M211.272 109.975C223.392 115.764 235.756 123.063 245.397 132.498C248.101 135.144 250.149 138.339 252.562 141.24C254.88 144.027 256.99 146.753 258.928 149.76C259.838 151.172 260.634 152.826 261.712 154.107C262.891 155.509 262.815 157.891 263.978 159.311C264.929 160.473 265.654 162.321 265.776 163.773" stroke="white" stroke-width="2.1" stroke-linecap="round"/>
<path d="M130.584 101.105C130.208 100.845 129.111 99.4427 128.506 99.8111C127.96 100.144 127.508 100.559 126.999 100.944C126.468 101.347 126.053 101.678 125.671 102.204C125.321 102.685 125.24 102.618 125.831 102.944C126.118 103.102 126.304 103.37 126.599 103.533C128.006 104.31 129.522 103.048 130.855 102.576C131.187 102.459 130.707 102.164 130.601 102.105C130.249 101.911 130.276 101.654 130.033 101.471C129.183 100.83 128.792 101.094 127.823 101.215C127.377 101.271 126.831 102.148 127.327 102.447C127.905 102.796 128.809 102.439 129.399 102.186C130.03 101.916 128.607 101.279 128.334 101.222C127.905 101.132 125.996 102.018 126.483 102.312C127.045 102.652 127.927 102.625 128.281 101.982C128.536 101.521 127.905 102.066 127.814 102.23C127.668 102.495 127.131 103.19 127.389 103.033C128.565 102.316 129.508 102.054 130.754 101.694" stroke="white" stroke-width="2.1" stroke-linecap="round"/>
<path d="M128.552 100.242C128.635 100.223 128.925 100.203 128.915 100.318C128.903 100.46 129.349 100.65 129.482 100.695C129.674 100.758 129.833 100.727 130.017 100.754C130.106 100.767 130.191 100.8 130.277 100.82C130.356 100.839 130.464 100.805 130.53 100.835C130.577 100.857 130.825 100.966 130.813 101.019C130.8 101.077 130.75 101.115 130.755 101.181C130.76 101.274 130.852 101.271 130.878 101.338C130.896 101.383 130.952 101.657 130.943 101.687C130.895 101.853 131.002 101.844 131.122 101.91" stroke="white" stroke-width="2.1" stroke-linecap="round"/>
<path d="M251.473 138.735C252.08 139.105 253.123 139.704 253.391 140.44C253.552 140.885 253.981 140.773 253.981 141.317C253.981 141.788 254.427 142.221 254.637 142.62C254.802 142.936 254.831 143.328 255.03 143.612C255.862 144.8 256.464 146.201 257.358 147.324C258.306 148.517 259.13 149.762 259.882 151.094C260.807 152.733 261.754 154.166 262.398 155.938C262.8 157.044 263.338 158.417 264.013 159.38C264.596 160.214 264.668 161.098 264.93 162.044C265.066 162.53 265.352 163.065 265.75 163.372C265.842 163.442 266.026 163.782 266.135 163.782C266.178 163.782 265.657 162.646 265.635 162.601C264.675 160.593 263.611 158.641 262.652 156.627C261.273 153.73 259.619 150.896 258.054 148.095C257.38 146.887 256.992 145.569 256.202 144.423C255.595 143.543 254.824 142.814 254.145 141.989C253.635 141.37 253.033 140.833 252.538 140.21C252.325 139.942 251.885 139.336 251.588 139.21C250.585 138.786 250.014 137.861 249.145 137.26C248.713 136.96 247.317 136.333 248.318 137.334C248.855 137.871 249.363 138.224 249.776 138.866C250.003 139.218 250.251 139.669 250.522 139.989C252.101 141.855 253.117 144.067 254.866 145.816" stroke="black" stroke-width="3" stroke-linecap="round"/>
<path d="M221.837 115.442C222.899 116.32 224.363 117.066 225.701 117.468C226.798 117.797 227.581 118.628 228.598 119.064" stroke="white" stroke-width="3" stroke-linecap="round"/>
<path d="M221.234 113.993C221.978 114.98 222.708 115.611 223.702 116.274C224.561 116.846 225.563 117.096 226.398 117.736C227.454 118.545 228.727 119.104 229.738 119.976C230.925 120.999 232.158 122.004 233.427 122.927C234.14 123.446 234.827 124.041 235.573 124.51C236.369 125.01 236.956 125.529 237.672 126.126C238.948 127.189 240.273 128.179 241.636 129.124C242.652 129.829 243.503 130.281 244.238 131.31C244.988 132.36 246.122 133.085 246.874 134.147C246.999 134.324 247.289 134.901 247.216 134.697C247.087 134.335 246.757 133.933 246.519 133.658C244.856 131.74 242.8 130.151 240.925 128.453C237.662 125.498 234.727 122.263 230.932 119.996C229.135 118.922 227.568 117.712 225.526 117.172C224.224 116.828 222.69 116.046 221.321 116.046C220.853 116.046 222.188 116.4 222.615 116.589C223.443 116.955 224.191 117.42 224.923 117.95C225.126 118.098 226.641 119.391 226.566 119.466C226.303 119.729 223.78 117.879 223.521 117.689C222.561 116.986 221.793 116.085 220.872 115.348C219.637 114.36 220.433 115.77 220.872 116.408" stroke="black" stroke-width="3" stroke-linecap="round"/>
</svg>
