<svg width="118" height="86" viewBox="0 0 118 86" fill="none" xmlns="http://www.w3.org/2000/svg">
<path fill-rule="evenodd" clip-rule="evenodd" d="M116.032 28.9269L93.0666 19.59L45.1112 13.479C30.6051 15.6013 24.4976 18.686 15.0248 25.5153C9.25289 30.534 6.80607 33.7987 5.69756 37.3101L26.3551 19.596L50.4302 16.1031L91.8378 21.6013L114.324 30.5974L96.7297 41.1303L103.755 49.0803L99.9305 54.0485L97.9723 72.1154L66.4413 73.4787L56.9269 68.2548L61.4844 58.3153L49.1222 51.0876L35.7139 59.3205L7.82928 52.3199L5.66972 37.3993C5.1762 38.9969 4.95558 40.649 4.82141 42.5433L7.59811 55.0972L33.058 61.4891L66.1493 76.4985L102.654 73.8062L111.176 39.8597L113.362 39.5638L116.032 28.9269Z" fill="black"/>
<path d="M116.032 28.9269L117.245 29.2313L117.509 28.178L116.503 27.7689L116.032 28.9269ZM93.0666 19.59L93.5374 18.432L93.3863 18.3706L93.2246 18.35L93.0666 19.59ZM45.1112 13.479L45.2692 12.239L45.0995 12.2174L44.9302 12.2421L45.1112 13.479ZM15.0248 25.5153L14.2938 24.5013L14.2476 24.5346L14.2046 24.572L15.0248 25.5153ZM5.69756 37.3101L4.50555 36.9338L3.18739 41.1093L6.51125 38.259L5.69756 37.3101ZM26.3551 19.596L26.1756 18.3589L25.8167 18.411L25.5414 18.6471L26.3551 19.596ZM50.4302 16.1031L50.5948 14.864L50.4226 14.8411L50.2508 14.8661L50.4302 16.1031ZM91.8378 21.6013L92.3021 20.4407L92.1571 20.3827L92.0023 20.3622L91.8378 21.6013ZM114.324 30.5974L114.966 31.6699L117.131 30.374L114.788 29.4369L114.324 30.5974ZM96.7297 41.1303L96.0877 40.0578L94.7967 40.8306L95.7931 41.958L96.7297 41.1303ZM103.755 49.0803L104.746 49.8428L105.375 49.0255L104.692 48.2525L103.755 49.0803ZM99.9305 54.0485L98.94 53.2859L98.7257 53.5644L98.6878 53.9138L99.9305 54.0485ZM97.9723 72.1154L98.0263 73.3643L99.0993 73.3179L99.215 72.2501L97.9723 72.1154ZM66.4413 73.4787L65.8397 74.5744L66.1461 74.7427L66.4953 74.7276L66.4413 73.4787ZM56.9269 68.2548L55.7907 67.7338L55.306 68.7908L56.3253 69.3505L56.9269 68.2548ZM61.4844 58.3153L62.6206 58.8363L63.0923 57.8075L62.1153 57.2362L61.4844 58.3153ZM49.1222 51.0876L49.7531 50.0085L49.1065 49.6304L48.4681 50.0224L49.1222 51.0876ZM35.7139 59.3205L35.4096 60.5329L35.9197 60.661L36.368 60.3857L35.7139 59.3205ZM7.82928 52.3199L6.59217 52.499L6.71219 53.3283L7.5249 53.5323L7.82928 52.3199ZM5.66972 37.3993L6.90683 37.2202L4.47541 37.0303L5.66972 37.3993ZM4.82141 42.5433L3.57454 42.4549L3.56171 42.636L3.60091 42.8132L4.82141 42.5433ZM7.59811 55.0972L6.37761 55.3672L6.54445 56.1215L7.29374 56.3096L7.59811 55.0972ZM33.058 61.4891L33.5744 60.3507L33.4717 60.3041L33.3624 60.2767L33.058 61.4891ZM66.1493 76.4985L65.6329 77.6369L65.9233 77.7686L66.2412 77.7451L66.1493 76.4985ZM102.654 73.8062L102.746 75.0528L103.646 74.9864L103.866 74.1106L102.654 73.8062ZM111.176 39.8597L111.008 38.621L110.17 38.7345L109.964 39.5553L111.176 39.8597ZM113.362 39.5638L113.529 40.8025L114.368 40.689L114.574 39.8682L113.362 39.5638ZM116.503 27.7689L93.5374 18.432L92.5958 20.7479L115.561 30.0849L116.503 27.7689ZM93.2246 18.35L45.2692 12.239L44.9532 14.7189L92.9086 20.8299L93.2246 18.35ZM44.9302 12.2421C37.6177 13.312 32.3531 14.6341 27.6987 16.5786C23.0442 18.5232 19.0588 21.0661 14.2938 24.5013L15.7558 26.5292C20.4636 23.1352 24.2684 20.7211 28.6624 18.8854C33.0564 17.0497 38.0986 15.7683 45.2922 14.7158L44.9302 12.2421ZM14.2046 24.572C8.3834 29.6336 5.72029 33.0859 4.50555 36.9338L6.88957 37.6864C7.89185 34.5116 10.1224 31.4344 15.845 26.4585L14.2046 24.572ZM6.51125 38.259L27.1688 20.5449L25.5414 18.6471L4.88387 36.3612L6.51125 38.259ZM26.5346 20.833L50.6097 17.3402L50.2508 14.8661L26.1756 18.3589L26.5346 20.833ZM50.2657 17.3422L91.6732 22.8404L92.0023 20.3622L50.5948 14.864L50.2657 17.3422ZM91.3735 22.7618L113.86 31.758L114.788 29.4369L92.3021 20.4407L91.3735 22.7618ZM113.682 29.5249L96.0877 40.0578L97.3718 42.2028L114.966 31.6699L113.682 29.5249ZM95.7931 41.958L102.819 49.908L104.692 48.2525L97.6664 40.3025L95.7931 41.958ZM102.765 48.3177L98.94 53.2859L100.921 54.811L104.746 49.8428L102.765 48.3177ZM98.6878 53.9138L96.7296 71.9807L99.215 72.2501L101.173 54.1832L98.6878 53.9138ZM97.9183 70.8666L66.3873 72.2299L66.4953 74.7276L98.0263 73.3643L97.9183 70.8666ZM67.0429 72.383L57.5286 67.1591L56.3253 69.3505L65.8397 74.5744L67.0429 72.383ZM58.0632 68.7758L62.6206 58.8363L60.3481 57.7943L55.7907 67.7338L58.0632 68.7758ZM62.1153 57.2362L49.7531 50.0085L48.4913 52.1667L60.8535 59.3944L62.1153 57.2362ZM48.4681 50.0224L35.0599 58.2553L36.368 60.3857L49.7763 52.1528L48.4681 50.0224ZM36.0183 58.1081L8.13365 51.1076L7.5249 53.5323L35.4096 60.5329L36.0183 58.1081ZM9.06639 52.1409L6.90683 37.2202L4.43261 37.5783L6.59217 52.499L9.06639 52.1409ZM4.47541 37.0303C3.9411 38.76 3.71156 40.5204 3.57454 42.4549L6.06829 42.6316C6.1996 40.7776 6.4113 39.2338 6.86404 37.7682L4.47541 37.0303ZM3.60091 42.8132L6.37761 55.3672L8.81862 54.8273L6.04192 42.2733L3.60091 42.8132ZM7.29374 56.3096L32.7537 62.7015L33.3624 60.2767L7.90249 53.8849L7.29374 56.3096ZM32.5417 62.6274L65.6329 77.6369L66.6656 75.3601L33.5744 60.3507L32.5417 62.6274ZM66.2412 77.7451L102.746 75.0528L102.562 72.5596L66.0573 75.2519L66.2412 77.7451ZM103.866 74.1106L112.388 40.164L109.964 39.5553L101.441 73.5018L103.866 74.1106ZM111.344 41.0984L113.529 40.8025L113.194 38.3251L111.008 38.621L111.344 41.0984ZM114.574 39.8682L117.245 29.2313L114.82 28.6225L112.149 39.2594L114.574 39.8682Z" fill="black"/>
<path d="M91.6551 22.3287L114.141 31.3249L96.5471 41.8577L103.573 49.8077L99.7479 54.7759L97.7897 72.8429L66.2587 74.2062L56.7443 68.9822L61.3017 59.0428L48.9396 51.8151L35.5313 60.048L7.64665 53.0474L5.47869 38.0687L26.1725 20.3234L50.2476 16.8306L91.6551 22.3287Z" fill="#827935" stroke="#827935" stroke-width="2.5"/>
</svg>
