<svg width="18" height="18" viewBox="0 0 18 18" fill="none" xmlns="http://www.w3.org/2000/svg">
<path d="M9.48726 0.736328C8.83521 0.736328 8.25023 0.908669 7.85302 1.16115C7.4558 1.41359 7.26506 1.71641 7.26506 2.01443C7.26506 2.31246 7.4558 2.61528 7.85302 2.86772C8.00505 2.9644 8.18481 3.04905 8.38511 3.11705C7.70506 3.37873 7.08903 3.87938 6.58436 4.56782C6.49463 4.69057 6.40998 4.81695 6.33063 4.94666C7.30914 4.49359 8.39815 4.26675 9.4874 4.26675C10.5767 4.26675 11.6657 4.49359 12.6442 4.94662C12.5649 4.81692 12.4802 4.69053 12.3906 4.56778C11.8859 3.87931 11.2699 3.37862 10.5899 3.11701C10.79 3.04898 10.9696 2.96429 11.1215 2.86772C11.5187 2.61528 11.7095 2.31242 11.7095 2.01443C11.7095 1.71645 11.5187 1.41359 11.1215 1.16115C10.7243 0.908705 10.1394 0.736328 9.48726 0.736328ZM6.47415 1.15359C5.94563 1.15359 5.52429 1.57493 5.52429 2.10345C5.52429 2.63197 5.9456 3.05327 6.47415 3.05327C6.61695 3.05327 6.75183 3.02227 6.87279 2.96698C6.65852 2.69083 6.52786 2.36799 6.52786 2.01443C6.52786 1.71884 6.61902 1.44463 6.77403 1.20125C6.67722 1.16962 6.576 1.15351 6.47415 1.15359ZM12.5011 1.15359C12.3959 1.15359 12.2949 1.17053 12.2006 1.2015C12.3556 1.44478 12.4466 1.71892 12.4466 2.01443C12.4466 2.36785 12.3161 2.69062 12.1019 2.96669C12.2272 3.02397 12.3634 3.0535 12.5011 3.05327C13.0296 3.05327 13.4509 2.632 13.4509 2.10345C13.4509 1.57486 13.0296 1.15359 12.5011 1.15359H12.5011ZM2.33447 2.14628C2.69247 2.59186 2.80297 3.00615 2.81385 3.40526L1.97919 3.23833C2.26443 3.61967 2.54609 3.95422 2.68592 4.6452C2.64126 5.11642 2.68019 5.58986 3.0731 6.09457C3.38727 6.63981 3.83264 6.9857 4.35027 7.09753C4.47617 7.12474 4.6044 7.13849 4.73456 7.14139C4.77609 6.9148 4.82714 6.69005 4.8876 6.46775C4.74376 6.47717 4.61127 6.46929 4.49157 6.4434C4.18685 6.37759 3.93441 6.21237 3.71147 5.8601C3.62647 3.54194 4.86819 2.33781 2.3345 2.14638L2.33447 2.14628ZM16.6131 2.14628C14.0794 2.33774 15.3212 3.54183 15.2361 5.86007C15.0133 6.2123 14.7608 6.37748 14.4561 6.44337C14.344 6.46754 14.2211 6.47642 14.0878 6.46972C14.148 6.69112 14.1988 6.91494 14.2402 7.14061C14.3611 7.13642 14.4803 7.12277 14.5974 7.09746C15.1151 6.98563 15.5606 6.63959 15.8749 6.09414C16.2295 5.63853 16.2951 5.20841 16.2717 4.78237C16.4005 3.99683 16.6999 3.64395 17.0034 3.23822L16.133 3.41224C16.1428 3.01102 16.253 2.5944 16.6131 2.14628H16.6131ZM9.15282 4.9618C8.94249 4.9714 8.7328 4.99052 8.52455 5.0182L8.10138 12.937L7.74749 5.16548C7.53099 5.21927 7.31731 5.28385 7.10726 5.35898L6.65823 10.9793L6.2998 5.71311C6.13419 5.80025 5.97289 5.89534 5.81648 5.99807C5.50764 6.80695 5.33 7.73221 5.33 8.71634C5.33 10.3486 5.81812 11.8196 6.58433 12.865C7.27312 13.8047 8.16952 14.3944 9.15278 14.5041L9.15282 4.9618ZM9.82199 4.9618V14.5041C10.8054 14.3944 11.7017 13.8048 12.3906 12.8649C13.1568 11.8196 13.645 10.3486 13.645 8.71631C13.645 7.73218 13.4673 6.80681 13.1584 5.99782C13.0408 5.92066 12.9205 5.8478 12.7976 5.77939L12.4437 10.9793L11.9985 5.40728C11.7879 5.32672 11.5724 5.25689 11.353 5.19788L11.0006 12.937L10.5784 5.03675C10.3278 4.9986 10.0753 4.9736 9.82202 4.96184L9.82199 4.9618ZM4.45215 8.35902C4.0129 8.36493 3.5831 8.53967 3.20086 8.87293C2.54688 9.30269 2.3601 9.97425 2.21566 10.6652C1.89948 11.3108 1.53747 11.5634 1.15927 11.8609L1.89916 11.9087C1.73101 12.3302 1.46589 12.6996 0.977478 12.9508C3.36941 13.8063 2.68405 11.5539 3.69425 9.32764C3.97405 9.09418 4.23995 9.01523 4.52684 9.0293C4.5504 9.03049 4.57427 9.03242 4.59845 9.0351C4.59466 8.92947 4.59275 8.82321 4.59273 8.71634C4.59273 8.59818 4.59516 8.48073 4.59974 8.364C4.58635 8.36307 4.57303 8.36156 4.55964 8.36092C4.52383 8.35916 4.488 8.35853 4.45215 8.35902ZM14.4955 8.35902C14.4597 8.35854 14.4238 8.35918 14.388 8.36092C14.3837 8.36113 14.3794 8.36163 14.3751 8.36189C14.3797 8.47933 14.3822 8.59743 14.3822 8.71638C14.3821 8.82244 14.3803 8.92791 14.3765 9.03281C14.3913 9.03152 14.4062 9.03001 14.4208 9.0293C14.7077 9.01523 14.9737 9.09422 15.2535 9.32771C16.2636 11.554 15.5783 13.8063 17.9702 12.9508C17.4823 12.6999 17.2174 12.3312 17.0492 11.9104L17.8159 11.861C17.4179 11.5477 17.0377 11.2845 16.7101 10.5599C16.5678 9.9065 16.3676 9.28088 15.7468 8.87293C15.3646 8.53967 14.9348 8.36493 14.4955 8.35902ZM5.08361 11.5829C4.849 11.682 4.63863 11.8097 4.45823 11.9732C4.05311 12.3404 3.83938 12.8852 3.85434 13.5421C3.78087 13.9976 4.10141 14.388 4.57393 14.8351C4.8104 15.52 4.73266 15.9564 4.6754 16.436L5.38546 15.8121C5.51115 16.3339 5.44798 16.7094 5.39943 17.1158L6.17788 16.4318C6.42774 16.7453 6.65949 17.0965 6.84855 17.498C7.70828 14.9319 4.8828 14.719 4.60658 12.9098C4.67211 12.7316 4.77398 12.5902 4.90772 12.469C5.02159 12.3657 5.16675 12.2769 5.34099 12.2031C5.24583 12.0004 5.15994 11.7934 5.08361 11.5829V11.5829ZM13.8875 11.5932C13.8109 11.8036 13.7247 12.0103 13.6292 12.2128C13.7934 12.2846 13.9311 12.3703 14.0399 12.469C14.1737 12.5902 14.2756 12.7316 14.3411 12.9098C14.0648 14.719 11.2393 14.9319 12.099 17.498C12.2851 17.1032 12.5123 16.757 12.7575 16.4475L13.5181 17.1158C13.4696 16.7094 13.4065 16.3339 13.5321 15.8121L14.2421 16.436C14.186 15.9662 14.1103 15.5379 14.3295 14.8769C14.8261 14.4124 15.1692 14.0115 15.0934 13.5419C15.1083 12.885 14.8945 12.3403 14.4894 11.9732C14.3151 11.8151 14.1126 11.6909 13.8875 11.5932L13.8875 11.5932Z" fill="black"/>
</svg>
